<svg width="1276" height="1024" viewBox="0 0 1276 1024" fill="none" xmlns="http://www.w3.org/2000/svg">
<path fill-rule="evenodd" clip-rule="evenodd" d="M952.487 133.985C1199.56 292.196 1148.44 640.265 1037.97 887.674C966.522 1047.69 747.164 1015.75 562.171 1008.12C402.708 1001.54 216.592 996.111 149.373 851.012C73.2168 686.622 154.271 517.879 282.164 403.696C476.971 229.77 714.78 -18.2297 952.487 133.985Z" fill="#FF8957"/>
<g clip-path="url(#clip0_796_325)">
<path d="M205.948 814.551L222.146 814.55L229.853 752.045L205.944 752.046L205.948 814.551Z" fill="#FFB6B6"/>
<path d="M205.377 831.456L255.192 831.454V830.823C255.192 825.679 253.149 820.746 249.513 817.109C245.877 813.472 240.945 811.428 235.803 811.428H235.802L226.702 804.522L209.725 811.429L205.376 811.429L205.377 831.456Z" fill="#2F2E41"/>
<path d="M232.107 738.927L244.86 748.92L289.459 704.468L270.637 689.72L232.107 738.927Z" fill="#FFB6B6"/>
<path d="M221.236 751.883L260.453 782.612L260.842 782.116C264.013 778.066 265.446 772.922 264.825 767.816C264.205 762.709 261.583 758.058 257.535 754.886L257.534 754.885L254.628 743.836L237.005 738.8L233.581 736.117L221.236 751.883Z" fill="#2F2E41"/>
<path d="M308.375 454.132C308.375 454.132 329.875 476.436 320.319 528.212L328.341 616.865L330.412 620.969C331.645 623.414 332.076 626.187 331.642 628.892C331.209 631.597 329.933 634.096 327.997 636.033V636.033L326.291 641.323L324.699 651.678L265.374 740.893L242.68 716.996L279.31 633.358L269.356 611.85L246.263 536.974L230.337 673.982L233.523 791.872H203.041L184.152 660.44L164.245 475.639L174.6 454.132H308.375Z" fill="#2F2E41"/>
<path d="M169.209 492.456L168.992 492.151C157.39 475.902 174.84 436.856 177.471 431.196C174.346 430.182 171.669 428.115 169.896 425.347C168.123 422.58 167.364 419.284 167.748 416.019L168.882 406.372L170.065 396.909L161.593 388.434L161.569 388.223L156.693 345.547L149.604 317.202C146.933 306.486 147.161 295.253 150.264 284.654C153.367 274.056 159.233 264.474 167.261 256.893L183.648 254.291L203.562 235.096H235.677L246.688 245.62C267.244 249.227 270.775 248.049 288.432 269.244L280.409 335.141L278.408 344.207L278.414 356.502L283.502 362.159C285.335 364.197 286.667 366.635 287.392 369.278C288.116 371.922 288.214 374.698 287.677 377.386L287.007 380.733C292.255 382.983 297.263 422.966 298.46 428.55L300.247 436.893C301.776 438.911 311.868 452.372 311.868 456.052C311.868 456.605 311.461 457.139 310.586 457.731C303.708 462.39 276.287 495.438 259.462 488.704C241.54 481.535 170.297 492.289 169.579 492.398L169.209 492.456Z" fill="#3F3D56"/>
<path d="M164.895 415.828C164.895 415.828 173.142 369.205 164.833 351.671L131.873 354.026L136.889 420.54L165.702 494.391C165.263 496.666 165.433 499.017 166.195 501.206C166.957 503.394 168.285 505.342 170.043 506.851C171.801 508.36 173.927 509.377 176.205 509.799C178.483 510.221 180.832 510.032 183.014 509.252C185.195 508.471 187.131 507.128 188.626 505.357C190.12 503.586 191.12 501.452 191.523 499.169C191.926 496.887 191.719 494.539 190.921 492.363C190.124 490.187 188.765 488.261 186.983 486.781L164.895 415.828Z" fill="#FFB6B6"/>
<path d="M131.873 326.943L133.913 304.722C134.681 296.358 137.094 288.23 141.014 280.803C144.933 273.376 150.282 266.797 156.753 261.446V261.446C160.773 258.145 165.636 256.035 170.792 255.354C175.949 254.674 181.192 255.449 185.931 257.593V257.593C192.335 260.542 197.381 265.814 200.048 272.343C202.715 278.871 202.804 286.169 200.298 292.761C192.68 312.746 195.431 333.881 180.577 336.458L182.19 344.138L167.585 391.817L125.988 386.996L131.873 326.943Z" fill="#3F3D56"/>
<path d="M351.264 393.73C351.264 393.73 327.122 353.005 309.392 345.132L285.941 368.418L333.105 415.571L403.093 452.762C404.243 454.774 405.904 456.446 407.909 457.608C409.914 458.769 412.19 459.38 414.506 459.377C416.823 459.375 419.098 458.759 421.1 457.592C423.102 456.426 424.759 454.75 425.905 452.736C427.05 450.721 427.642 448.439 427.62 446.122C427.599 443.805 426.965 441.534 425.783 439.541C424.601 437.548 422.913 435.903 420.89 434.774C418.867 433.645 416.581 433.071 414.265 433.111L351.264 393.73Z" fill="#FFB6B6"/>
<path d="M268.285 347.887L255.345 329.71C250.475 322.869 247.005 315.132 245.135 306.945C243.265 298.757 243.031 290.281 244.448 282.003V282.003C245.344 276.878 247.655 272.106 251.12 268.226C254.585 264.347 259.066 261.514 264.056 260.048V260.048C270.834 258.106 278.096 258.811 284.374 262.021C290.652 265.23 295.477 270.705 297.874 277.337C305.128 297.458 331.586 330.526 322.004 342.169L328.235 346.939L337.65 373.772L302.973 397.253L268.285 347.887Z" fill="#3F3D56"/>
<path d="M217.453 225.824C237.15 225.824 253.118 209.851 253.118 190.147C253.118 170.443 237.15 154.469 217.453 154.469C197.755 154.469 181.787 170.443 181.787 190.147C181.787 209.851 197.755 225.824 217.453 225.824Z" fill="#FFB6B6"/>
<path d="M191.569 215.294C191.258 215.021 190.964 214.729 190.66 214.448C190.649 214.477 190.647 214.507 190.636 214.535L191.569 215.294Z" fill="#2F2E41"/>
<path d="M246.681 152.471C244.908 149.618 242.454 147.251 239.539 145.583C237.546 144.616 235.452 143.874 233.295 143.37L227.651 141.83C224.759 140.935 221.784 140.335 218.771 140.041C214.587 139.835 210.426 140.782 206.744 142.781C203.062 144.779 200 147.751 197.892 151.372C196.186 154.398 194.818 158.168 191.527 159.275C188.873 160.168 185.978 158.909 183.189 159.153C181.554 159.39 180.004 160.026 178.674 161.006C177.344 161.986 176.277 163.279 175.566 164.77C174.176 167.77 173.492 171.05 173.566 174.356C173.456 181.863 174.921 189.309 177.865 196.215C180.81 203.12 185.168 209.332 190.66 214.448C191.58 212.021 190.064 209.401 188.866 207.079C187.653 204.729 186.904 201.454 188.935 199.762C191.195 197.879 194.816 199.705 197.489 198.477C198.344 197.986 199.064 197.29 199.585 196.452C200.106 195.615 200.411 194.661 200.474 193.677C200.733 191.726 200.463 189.743 200.585 187.779C200.706 185.832 201.212 183.928 202.073 182.178C202.934 180.428 204.133 178.865 205.601 177.581C207.069 176.297 208.776 175.316 210.625 174.696C212.474 174.075 214.427 173.827 216.372 173.966C222.456 174.401 228.361 178.56 234.216 176.849C236.964 176.046 239.308 174.001 242.15 173.657C245.298 173.276 248.259 175.053 250.932 176.76C251.904 172.634 252.027 168.354 251.297 164.179C250.566 160.004 248.995 156.021 246.681 152.471Z" fill="#2F2E41"/>
<path d="M370.326 811.411L361.25 796.822L359.437 805.159C359.119 806.619 358.801 808.102 358.507 809.574C355.929 807.372 353.186 805.335 350.503 803.38C342.263 797.399 334.027 791.409 325.794 785.412L328.372 800.366C329.962 809.574 331.621 818.971 335.553 827.39C335.989 828.344 336.459 829.286 336.966 830.204H375.27C375.578 829.351 375.791 828.467 375.905 827.567C375.915 827.508 375.919 827.449 375.917 827.39C376.518 821.679 373.363 816.298 370.326 811.411Z" fill="#F0F0F0"/>
<path d="M1034.33 795.655L1017.87 769.191L1014.58 784.313C1014 786.962 1013.42 789.653 1012.89 792.323C1008.21 788.329 1003.24 784.633 998.371 781.088C983.425 770.238 968.486 759.373 953.553 748.495L958.229 775.62C961.112 792.323 964.123 809.367 971.254 824.638C972.044 826.369 972.898 828.077 973.817 829.743H1043.3C1043.85 828.196 1044.24 826.591 1044.45 824.959C1044.47 824.853 1044.47 824.746 1044.47 824.638C1045.56 814.28 1039.84 804.519 1034.33 795.655Z" fill="#F0F0F0"/>
<path d="M1079.6 831.638L106.402 832C106.031 831.999 105.675 831.851 105.413 831.588C105.151 831.325 105.004 830.969 105.004 830.598C105.004 830.227 105.151 829.871 105.413 829.608C105.675 829.345 106.031 829.197 106.402 829.196L1079.6 828.834C1079.97 828.835 1080.32 828.983 1080.59 829.246C1080.85 829.509 1081 829.865 1081 830.236C1081 830.607 1080.85 830.963 1080.59 831.226C1080.32 831.489 1079.97 831.637 1079.6 831.638V831.638Z" fill="#CACACA"/>
<path d="M410.346 420.6V758.576C410.35 762.883 412.062 767.013 415.106 770.058C418.151 773.104 422.279 774.816 426.585 774.82H927.268C931.573 774.816 935.701 773.104 938.746 770.058C941.791 767.013 943.502 762.883 943.506 758.576V420.6C943.496 416.296 941.781 412.173 938.737 409.131C935.694 406.09 931.569 404.379 927.268 404.374H426.585C422.283 404.38 418.158 406.09 415.115 409.131C412.071 412.173 410.357 416.296 410.346 420.6V420.6Z" fill="#3F3D56"/>
<path d="M399.875 824.49C400.793 825.641 401.958 826.568 403.285 827.203C404.612 827.838 406.066 828.164 407.537 828.157H943.65C945.117 828.155 946.564 827.826 947.887 827.195C949.21 826.563 950.376 825.644 951.3 824.505C952.223 823.366 952.881 822.035 953.226 820.61C953.571 819.184 953.594 817.7 953.293 816.265L944.971 776.722C944.626 775.109 943.884 773.609 942.811 772.357C941.738 771.105 940.369 770.141 938.829 769.553C937.714 769.116 936.526 768.891 935.328 768.893H415.826C414.628 768.891 413.441 769.116 412.325 769.553C410.785 770.141 409.416 771.104 408.343 772.357C407.271 773.609 406.528 775.109 406.183 776.722L397.861 816.265C397.565 817.699 397.592 819.182 397.94 820.605C398.289 822.028 398.95 823.355 399.875 824.49V824.49Z" fill="#2F2E41"/>
<path d="M915.583 785.925H930.946C931.263 785.925 931.521 785.667 931.521 785.35V776.589C931.521 776.271 931.263 776.014 930.946 776.014H915.583C915.266 776.014 915.008 776.271 915.008 776.589V785.35C915.008 785.667 915.266 785.925 915.583 785.925Z" fill="#3F3D56"/>
<path d="M882.559 785.925H897.922C898.239 785.925 898.497 785.667 898.497 785.35V776.589C898.497 776.271 898.239 776.014 897.922 776.014H882.559C882.242 776.014 881.984 776.271 881.984 776.589V785.35C881.984 785.667 882.242 785.925 882.559 785.925Z" fill="#3F3D56"/>
<path d="M849.535 785.925H864.898C865.215 785.925 865.472 785.667 865.472 785.35V776.589C865.472 776.271 865.215 776.014 864.898 776.014H849.535C849.218 776.014 848.96 776.271 848.96 776.589V785.35C848.96 785.667 849.218 785.925 849.535 785.925Z" fill="#3F3D56"/>
<path d="M816.511 785.925H831.874C832.191 785.925 832.448 785.667 832.448 785.35V776.589C832.448 776.271 832.191 776.014 831.874 776.014H816.511C816.193 776.014 815.936 776.271 815.936 776.589V785.35C815.936 785.667 816.193 785.925 816.511 785.925Z" fill="#3F3D56"/>
<path d="M783.487 785.925H798.849C799.167 785.925 799.424 785.667 799.424 785.35V776.589C799.424 776.271 799.167 776.014 798.849 776.014H783.487C783.169 776.014 782.912 776.271 782.912 776.589V785.35C782.912 785.667 783.169 785.925 783.487 785.925Z" fill="#3F3D56"/>
<path d="M750.463 785.925H765.825C766.143 785.925 766.4 785.667 766.4 785.35V776.589C766.4 776.271 766.143 776.014 765.825 776.014H750.463C750.145 776.014 749.888 776.271 749.888 776.589V785.35C749.888 785.667 750.145 785.925 750.463 785.925Z" fill="#3F3D56"/>
<path d="M717.439 785.925H732.801C733.119 785.925 733.376 785.667 733.376 785.35V776.589C733.376 776.271 733.119 776.014 732.801 776.014H717.439C717.121 776.014 716.864 776.271 716.864 776.589V785.35C716.864 785.667 717.121 785.925 717.439 785.925Z" fill="#3F3D56"/>
<path d="M684.414 785.925H699.777C700.094 785.925 700.352 785.667 700.352 785.35V776.589C700.352 776.271 700.094 776.014 699.777 776.014H684.414C684.097 776.014 683.84 776.271 683.84 776.589V785.35C683.84 785.667 684.097 785.925 684.414 785.925Z" fill="#3F3D56"/>
<path d="M651.39 785.925H666.753C667.07 785.925 667.328 785.667 667.328 785.35V776.589C667.328 776.271 667.07 776.014 666.753 776.014H651.39C651.073 776.014 650.816 776.271 650.816 776.589V785.35C650.816 785.667 651.073 785.925 651.39 785.925Z" fill="#3F3D56"/>
<path d="M618.366 785.925H633.729C634.046 785.925 634.303 785.667 634.303 785.35V776.589C634.303 776.271 634.046 776.014 633.729 776.014H618.366C618.049 776.014 617.792 776.271 617.792 776.589V785.35C617.792 785.667 618.049 785.925 618.366 785.925Z" fill="#3F3D56"/>
<path d="M585.342 785.925H600.705C601.022 785.925 601.279 785.667 601.279 785.35V776.589C601.279 776.271 601.022 776.014 600.705 776.014H585.342C585.024 776.014 584.767 776.271 584.767 776.589V785.35C584.767 785.667 585.024 785.925 585.342 785.925Z" fill="#3F3D56"/>
<path d="M552.318 785.925H567.681C567.998 785.925 568.255 785.667 568.255 785.35V776.589C568.255 776.271 567.998 776.014 567.681 776.014H552.318C552.001 776.014 551.743 776.271 551.743 776.589V785.35C551.743 785.667 552.001 785.925 552.318 785.925Z" fill="#3F3D56"/>
<path d="M519.294 785.925H534.657C534.974 785.925 535.231 785.667 535.231 785.35V776.589C535.231 776.271 534.974 776.014 534.657 776.014H519.294C518.976 776.014 518.719 776.271 518.719 776.589V785.35C518.719 785.667 518.976 785.925 519.294 785.925Z" fill="#3F3D56"/>
<path d="M486.27 785.925H501.632C501.95 785.925 502.207 785.667 502.207 785.35V776.589C502.207 776.271 501.95 776.014 501.632 776.014H486.27C485.952 776.014 485.695 776.271 485.695 776.589V785.35C485.695 785.667 485.952 785.925 486.27 785.925Z" fill="#3F3D56"/>
<path d="M453.245 785.925H468.608C468.926 785.925 469.183 785.667 469.183 785.35V776.589C469.183 776.271 468.926 776.014 468.608 776.014H453.245C452.928 776.014 452.671 776.271 452.671 776.589V785.35C452.671 785.667 452.928 785.925 453.245 785.925Z" fill="#3F3D56"/>
<path d="M420.221 785.925H435.584C435.901 785.925 436.159 785.667 436.159 785.35V776.589C436.159 776.271 435.901 776.014 435.584 776.014H420.221C419.904 776.014 419.647 776.271 419.647 776.589V785.35C419.647 785.667 419.904 785.925 420.221 785.925Z" fill="#3F3D56"/>
<path d="M915.974 802.442H931.336C931.654 802.442 931.911 802.185 931.911 801.867V793.106C931.911 792.789 931.654 792.532 931.336 792.532H915.974C915.656 792.532 915.399 792.789 915.399 793.106V801.867C915.399 802.185 915.656 802.442 915.974 802.442Z" fill="#3F3D56"/>
<path d="M882.949 802.442H898.312C898.629 802.442 898.887 802.185 898.887 801.867V793.106C898.887 792.789 898.629 792.532 898.312 792.532H882.949C882.632 792.532 882.375 792.789 882.375 793.106V801.867C882.375 802.185 882.632 802.442 882.949 802.442Z" fill="#3F3D56"/>
<path d="M849.925 802.442H865.288C865.605 802.442 865.863 802.185 865.863 801.867V793.106C865.863 792.789 865.605 792.532 865.288 792.532H849.925C849.608 792.532 849.351 792.789 849.351 793.106V801.867C849.351 802.185 849.608 802.442 849.925 802.442Z" fill="#3F3D56"/>
<path d="M816.901 802.442H832.264C832.581 802.442 832.838 802.185 832.838 801.867V793.106C832.838 792.789 832.581 792.532 832.264 792.532H816.901C816.584 792.532 816.326 792.789 816.326 793.106V801.867C816.326 802.185 816.584 802.442 816.901 802.442Z" fill="#3F3D56"/>
<path d="M783.877 802.442H799.24C799.557 802.442 799.814 802.185 799.814 801.867V793.106C799.814 792.789 799.557 792.532 799.24 792.532H783.877C783.56 792.532 783.302 792.789 783.302 793.106V801.867C783.302 802.185 783.56 802.442 783.877 802.442Z" fill="#3F3D56"/>
<path d="M750.853 802.442H766.216C766.533 802.442 766.79 802.185 766.79 801.867V793.106C766.79 792.789 766.533 792.532 766.216 792.532H750.853C750.536 792.532 750.278 792.789 750.278 793.106V801.867C750.278 802.185 750.536 802.442 750.853 802.442Z" fill="#3F3D56"/>
<path d="M717.829 802.442H733.191C733.509 802.442 733.766 802.185 733.766 801.867V793.106C733.766 792.789 733.509 792.532 733.191 792.532H717.829C717.511 792.532 717.254 792.789 717.254 793.106V801.867C717.254 802.185 717.511 802.442 717.829 802.442Z" fill="#3F3D56"/>
<path d="M684.805 802.442H700.167C700.485 802.442 700.742 802.185 700.742 801.867V793.106C700.742 792.789 700.485 792.532 700.167 792.532H684.805C684.487 792.532 684.23 792.789 684.23 793.106V801.867C684.23 802.185 684.487 802.442 684.805 802.442Z" fill="#3F3D56"/>
<path d="M651.78 802.442H667.143C667.46 802.442 667.718 802.185 667.718 801.867V793.106C667.718 792.789 667.46 792.532 667.143 792.532H651.78C651.463 792.532 651.206 792.789 651.206 793.106V801.867C651.206 802.185 651.463 802.442 651.78 802.442Z" fill="#3F3D56"/>
<path d="M618.756 802.442H634.119C634.437 802.442 634.694 802.185 634.694 801.867V793.106C634.694 792.789 634.437 792.532 634.119 792.532H618.756C618.439 792.532 618.182 792.789 618.182 793.106V801.867C618.182 802.185 618.439 802.442 618.756 802.442Z" fill="#3F3D56"/>
<path d="M585.732 802.442H601.095C601.412 802.442 601.67 802.185 601.67 801.867V793.106C601.67 792.789 601.412 792.532 601.095 792.532H585.732C585.415 792.532 585.158 792.789 585.158 793.106V801.867C585.158 802.185 585.415 802.442 585.732 802.442Z" fill="#3F3D56"/>
<path d="M552.708 802.442H568.071C568.388 802.442 568.646 802.185 568.646 801.867V793.106C568.646 792.789 568.388 792.532 568.071 792.532H552.708C552.391 792.532 552.134 792.789 552.134 793.106V801.867C552.134 802.185 552.391 802.442 552.708 802.442Z" fill="#3F3D56"/>
<path d="M519.684 802.442H535.047C535.364 802.442 535.621 802.185 535.621 801.867V793.106C535.621 792.789 535.364 792.532 535.047 792.532H519.684C519.367 792.532 519.109 792.789 519.109 793.106V801.867C519.109 802.185 519.367 802.442 519.684 802.442Z" fill="#3F3D56"/>
<path d="M486.66 802.442H502.023C502.34 802.442 502.597 802.185 502.597 801.867V793.106C502.597 792.789 502.34 792.532 502.023 792.532H486.66C486.343 792.532 486.085 792.789 486.085 793.106V801.867C486.085 802.185 486.343 802.442 486.66 802.442Z" fill="#3F3D56"/>
<path d="M453.636 802.442H468.999C469.316 802.442 469.573 802.185 469.573 801.867V793.106C469.573 792.789 469.316 792.532 468.999 792.532H453.636C453.318 792.532 453.061 792.789 453.061 793.106V801.867C453.061 802.185 453.318 802.442 453.636 802.442Z" fill="#3F3D56"/>
<path d="M420.612 802.442H435.974C436.292 802.442 436.549 802.185 436.549 801.867V793.106C436.549 792.789 436.292 792.532 435.974 792.532H420.612C420.294 792.532 420.037 792.789 420.037 793.106V801.867C420.037 802.185 420.294 802.442 420.612 802.442Z" fill="#3F3D56"/>
<path d="M605.382 822.263H736.329C736.646 822.263 736.904 822.006 736.904 821.688V812.927C736.904 812.61 736.646 812.353 736.329 812.353H605.382C605.065 812.353 604.807 812.61 604.807 812.927V821.688C604.807 822.006 605.065 822.263 605.382 822.263Z" fill="#3F3D56"/>
<path d="M660.974 568.605L660.992 568.602C661.114 568.491 661.227 568.37 661.33 568.241L660.974 568.605Z" fill="#FA4B00"/>
<path d="M708.025 658.744L708.03 658.756L708.133 658.557L708.025 658.744Z" fill="#FA4B00"/>
<path d="M905.101 475.775H449.169C448.857 475.768 448.559 475.639 448.341 475.415C448.122 475.192 448 474.892 448 474.579C448 474.266 448.122 473.966 448.341 473.743C448.559 473.519 448.857 473.39 449.169 473.383H905.101C905.414 473.39 905.711 473.519 905.93 473.743C906.148 473.966 906.271 474.266 906.271 474.579C906.271 474.892 906.148 475.192 905.93 475.415C905.711 475.639 905.414 475.768 905.101 475.775Z" fill="#CACACA"/>
<path d="M475.284 459.036C482.387 459.036 488.145 453.148 488.145 445.885C488.145 438.622 482.387 432.733 475.284 432.733C468.181 432.733 462.424 438.622 462.424 445.885C462.424 453.148 468.181 459.036 475.284 459.036Z" fill="#3F3D56"/>
<path d="M519.712 459.036C526.814 459.036 532.572 453.148 532.572 445.885C532.572 438.622 526.814 432.733 519.712 432.733C512.609 432.733 506.851 438.622 506.851 445.885C506.851 453.148 512.609 459.036 519.712 459.036Z" fill="#3F3D56"/>
<path d="M564.139 459.036C571.242 459.036 577 453.148 577 445.885C577 438.622 571.242 432.733 564.139 432.733C557.037 432.733 551.279 438.622 551.279 445.885C551.279 453.148 557.037 459.036 564.139 459.036Z" fill="#3F3D56"/>
<path d="M878.278 435.993H846.719C846.094 436.006 845.498 436.263 845.06 436.71C844.622 437.157 844.376 437.758 844.376 438.383C844.376 439.009 844.622 439.61 845.06 440.057C845.498 440.504 846.094 440.761 846.719 440.774H878.278C878.904 440.761 879.499 440.504 879.937 440.057C880.375 439.61 880.621 439.009 880.621 438.383C880.621 437.758 880.375 437.157 879.937 436.71C879.499 436.263 878.904 436.006 878.278 435.993V435.993Z" fill="#3F3D56"/>
<path d="M878.278 444.966H846.719C846.094 444.978 845.498 445.236 845.06 445.682C844.622 446.129 844.376 446.73 844.376 447.356C844.376 447.982 844.622 448.583 845.06 449.03C845.498 449.477 846.094 449.734 846.719 449.747H878.278C878.904 449.734 879.499 449.477 879.937 449.03C880.375 448.583 880.621 447.982 880.621 447.356C880.621 446.73 880.375 446.129 879.937 445.682C879.499 445.236 878.904 444.978 878.278 444.966V444.966Z" fill="#3F3D56"/>
<path d="M878.278 453.927H846.719C846.094 453.939 845.498 454.196 845.06 454.643C844.622 455.09 844.376 455.691 844.376 456.317C844.376 456.943 844.622 457.544 845.06 457.991C845.498 458.438 846.094 458.695 846.719 458.707H878.278C878.904 458.695 879.499 458.438 879.937 457.991C880.375 457.544 880.621 456.943 880.621 456.317C880.621 455.691 880.375 455.09 879.937 454.643C879.499 454.196 878.904 453.939 878.278 453.927V453.927Z" fill="#3F3D56"/>
<path d="M422 424.7V754.318C422.004 756.62 422.92 758.826 424.548 760.453C426.176 762.08 428.382 762.996 430.684 763H923.316C925.618 762.996 927.825 762.08 929.452 760.453C931.08 758.825 931.996 756.62 932 754.318V424.7C932 422.396 931.085 420.186 929.457 418.555C927.829 416.924 925.621 416.005 923.316 416H430.684C428.379 416.005 426.171 416.924 424.543 418.555C422.915 420.186 422 422.396 422 424.7Z" fill="#FDFDFD"/>
<path d="M442.818 457H910.182C910.668 456.988 911.13 456.773 911.47 456.399C911.81 456.025 912 455.523 912 455C912 454.477 911.81 453.975 911.47 453.601C911.13 453.227 910.668 453.012 910.182 453H442.818C442.332 453.012 441.87 453.227 441.53 453.601C441.19 453.975 441 454.477 441 455C441 455.523 441.19 456.025 441.53 456.399C441.87 456.773 442.332 456.988 442.818 457Z" fill="#3F3D56"/>
<path d="M878 444C884.075 444 889 439.075 889 433C889 426.925 884.075 422 878 422C871.925 422 867 426.925 867 433C867 439.075 871.925 444 878 444Z" fill="#3F3D56"/>
<path d="M840 444C846.075 444 851 439.075 851 433C851 426.925 846.075 422 840 422C833.925 422 829 426.925 829 433C829 439.075 833.925 444 840 444Z" fill="#3F3D56"/>
<path d="M802.5 444C808.299 444 813 439.075 813 433C813 426.925 808.299 422 802.5 422C796.701 422 792 426.925 792 433C792 439.075 796.701 444 802.5 444Z" fill="#3F3D56"/>
<path d="M459 428.507C458.999 428.702 459.04 428.895 459.121 429.076C459.202 429.257 459.322 429.421 459.473 429.56C459.624 429.699 459.803 429.809 460.001 429.884C460.199 429.96 460.411 429.999 460.625 430H482.391C482.821 429.991 483.23 429.829 483.531 429.548C483.832 429.268 484 428.892 484 428.5C484 428.108 483.832 427.732 483.531 427.452C483.23 427.171 482.821 427.009 482.391 427H460.625C460.19 427.005 459.776 427.166 459.471 427.448C459.167 427.731 458.997 428.111 459 428.507V428.507Z" fill="#3F3D56"/>
<path d="M459 434.507C458.999 434.702 459.04 434.895 459.121 435.076C459.202 435.257 459.322 435.421 459.473 435.56C459.624 435.699 459.803 435.809 460.001 435.884C460.198 435.96 460.41 435.999 460.625 436H482.389C482.819 435.991 483.229 435.829 483.53 435.549C483.831 435.269 484 434.892 484 434.5C484 434.108 483.831 433.731 483.53 433.451C483.229 433.171 482.819 433.009 482.389 433H460.625C460.19 433.005 459.776 433.166 459.471 433.448C459.167 433.731 458.997 434.111 459 434.507V434.507Z" fill="#3F3D56"/>
<path d="M459 440.991C458.997 441.519 459.167 442.026 459.471 442.402C459.776 442.779 460.19 442.994 460.625 443H482.391C482.821 442.988 483.23 442.772 483.531 442.398C483.832 442.024 484 441.523 484 441C484 440.478 483.832 439.976 483.531 439.602C483.23 439.228 482.821 439.012 482.391 439H460.625C460.411 439.001 460.198 439.054 460.001 439.154C459.803 439.255 459.624 439.402 459.473 439.587C459.322 439.772 459.202 439.991 459.121 440.232C459.04 440.473 458.999 440.731 459 440.991Z" fill="#3F3D56"/>
<path d="M811.61 500H541.39C537.84 500.004 534.436 501.422 531.926 503.944C529.416 506.465 528.004 509.883 528 513.449V645.55C528.004 649.116 529.416 652.535 531.926 655.056C534.436 657.577 537.84 658.996 541.39 659H811.61C815.16 658.996 818.564 657.577 821.074 655.056C823.584 652.535 824.996 649.116 825 645.55V513.449C824.996 509.883 823.584 506.465 821.074 503.944C818.564 501.422 815.16 500.004 811.61 500ZM821.985 513.449V551.99H727.005V503.029H811.61C814.361 503.032 816.998 504.131 818.943 506.084C820.888 508.038 821.982 510.686 821.985 513.449H821.985ZM629.01 603.981V555.019H723.99V603.981H629.01ZM723.99 607.01V655.971H629.01V607.01H723.99ZM625.995 603.981H531.015V555.019H625.995V603.981ZM629.01 551.99V503.029H723.99V551.99H629.01ZM727.005 555.019H821.985V603.981H727.005V555.019ZM541.39 503.029H625.995V551.99H531.015V513.449C531.018 510.686 532.112 508.038 534.057 506.084C536.002 504.131 538.639 503.032 541.39 503.029V503.029ZM531.015 645.55V607.01H625.995V655.971H541.39C538.639 655.968 536.002 654.869 534.057 652.916C532.112 650.962 531.018 648.313 531.015 645.55V645.55ZM811.61 655.971H727.005V607.01H821.985V645.55C821.982 648.313 820.888 650.962 818.943 652.916C816.998 654.869 814.361 655.968 811.61 655.971H811.61Z" fill="#3F3D56"/>
<path d="M620.353 533.889C617.955 529.926 615.114 525.695 610.665 524.401C605.513 522.902 600.22 525.879 595.73 528.817C582.304 537.602 569.374 547.123 557 557.336L557.014 557.49L585.915 555.498C592.875 555.018 600.075 554.472 606.226 551.182C608.56 549.933 610.835 548.265 613.48 548.149C616.766 548.004 619.631 550.298 621.883 552.694C635.202 566.869 639.057 588.546 654 601C644.577 577.776 633.326 555.335 620.353 533.889V533.889Z" fill="#FA4B00"/>
<path d="M702.293 653.851C700.819 651.999 700.217 651.566 698.763 649.697C686.928 634.462 675.803 618.713 665.39 602.449C658.316 591.403 651.594 580.145 645.222 568.675C642.189 563.222 639.238 557.726 636.371 552.188C634.146 547.893 631.971 543.573 629.846 539.227C629.238 537.986 628.647 536.739 628.059 535.489C626.675 532.55 625.316 529.597 623.856 526.698C622.348 523.217 620.039 520.138 617.115 517.709C615.726 516.657 614.064 516.021 612.324 515.874C609.874 515.888 607.475 516.572 605.389 517.852C589.598 526.113 574.859 536.229 561.487 547.982C548.095 559.687 536.125 572.912 525.82 587.385C525.505 587.833 524.759 587.405 525.077 586.954C526.33 585.191 527.608 583.447 528.911 581.721C545.108 560.282 564.968 541.845 587.584 527.254C591.389 524.8 595.265 522.461 599.213 520.237C601.203 519.116 603.201 518.009 605.234 516.97C607.182 515.834 609.367 515.16 611.619 515.001C619.366 514.881 623.377 523.613 626.133 529.488C626.999 531.337 627.875 533.181 628.762 535.018C632.114 541.995 635.594 548.908 639.204 555.757C641.432 559.986 643.708 564.19 646.034 568.37C653.27 581.384 660.962 594.136 669.108 606.623C679.9 623.165 690.606 637.778 702.9 653.246C703.239 653.674 702.634 654.285 702.293 653.851Z" fill="#FA4B00"/>
<path d="M561.271 543.257C560.816 542.753 560.365 542.249 559.907 541.745C556.299 537.779 552.428 533.858 547.473 531.584C545.111 530.466 542.532 529.871 539.916 529.843C537.216 529.916 534.554 530.493 532.069 531.544C530.887 532.013 529.732 532.546 528.594 533.113C527.294 533.763 526.017 534.457 524.746 535.156C522.36 536.469 520.004 537.839 517.68 539.267C513.056 542.108 508.576 545.166 504.242 548.441C501.995 550.139 499.794 551.893 497.64 553.703C495.636 555.384 493.673 557.11 491.75 558.881C491.339 559.259 490.725 558.648 491.136 558.271C491.643 557.802 492.155 557.336 492.668 556.875C494.116 555.574 495.587 554.298 497.081 553.047C499.805 550.761 502.601 548.564 505.467 546.455C509.923 543.173 514.533 540.114 519.296 537.278C521.676 535.862 524.089 534.505 526.535 533.208C527.274 532.816 528.021 532.433 528.776 532.071C530.491 531.211 532.273 530.49 534.104 529.915C536.699 529.08 539.443 528.812 542.151 529.129C544.766 529.507 547.285 530.373 549.576 531.682C554.44 534.385 558.213 538.565 561.885 542.644C562.256 543.058 561.645 543.671 561.271 543.257Z" fill="#FA4B00"/>
<path d="M659.52 584.46L671.039 580.249L676.757 578.158C678.605 577.415 680.49 576.766 682.404 576.215C684.077 575.737 685.853 575.76 687.514 576.28C688.995 576.828 690.35 577.668 691.5 578.75C692.674 579.831 693.767 580.997 694.769 582.239C696.014 583.735 697.241 585.246 698.473 586.752C703.559 592.969 708.611 599.212 713.63 605.482C718.649 611.752 723.635 618.049 728.587 624.373C733.551 630.712 738.481 637.077 743.376 643.469C743.976 644.252 744.575 645.036 745.174 645.82C745.505 646.253 746.251 645.826 745.915 645.386C740.983 638.93 736.017 632.5 731.017 626.097C726.004 619.678 720.956 613.287 715.874 606.923C710.792 600.559 705.676 594.222 700.525 587.913C699.242 586.341 697.956 584.771 696.669 583.203C695.583 581.88 694.509 580.543 693.318 579.312C692.304 578.09 691.058 577.081 689.653 576.341C688.248 575.601 686.711 575.145 685.13 575C683.215 575.067 681.327 575.482 679.561 576.224C677.635 576.92 675.714 577.629 673.791 578.332L662.192 582.573L659.292 583.633C658.777 583.821 659 584.65 659.52 584.46V584.46Z" fill="#FA4B00"/>
<path d="M545.488 536.851C542.566 535.441 539.314 534.818 536.065 535.046C532.816 535.273 529.687 536.343 527 538.145C537.128 539.856 547.145 542.145 557 545C552.908 542.652 549.706 538.973 545.488 536.851Z" fill="#FA4B00"/>
<path d="M526.951 538L526 539C526.322 538.65 526.656 538.322 527 538.011L526.951 538Z" fill="#FA4B00"/>
<path d="M690.658 584.401C689.647 582.908 688.237 581.73 686.589 581L685 581.063C697.094 602.458 713.428 621.153 733 636L690.658 584.401Z" fill="#FA4B00"/>
<path d="M684 561C688.971 561 693 556.971 693 552C693 547.029 688.971 543 684 543C679.029 543 675 547.029 675 552C675 556.971 679.029 561 684 561Z" fill="#FA4B00"/>
<path d="M816 653C817.856 652.997 819.635 652.285 820.947 651.02C822.259 649.755 822.997 648.039 823 646.25V506.75C823 504.96 822.263 503.243 820.95 501.977C819.637 500.711 817.857 500 816 500C814.143 500 812.363 500.711 811.05 501.977C809.738 503.243 809 504.96 809 506.75V646.25C809.003 648.039 809.741 649.755 811.053 651.02C812.365 652.285 814.144 652.997 816 653V653Z" fill="#3F3D56"/>
<path d="M908 514C909.856 513.997 911.635 513.281 912.947 512.008C914.259 510.734 914.997 509.008 915 507.208V477.442C914.194 476.375 913.14 475.507 911.924 474.909C910.708 474.312 909.363 474 908 474C906.637 474 905.293 474.312 904.076 474.909C902.86 475.507 901.806 476.375 901 477.442V507.208C901.003 509.008 901.741 510.734 903.053 512.008C904.365 513.281 906.144 513.997 908 514V514Z" fill="#2F2E41"/>
<path d="M816 625C817.856 624.997 819.635 624.227 820.947 622.858C822.259 621.489 822.997 619.634 823 617.698V585.7C822.194 584.553 821.14 583.62 819.924 582.978C818.707 582.335 817.363 582 816 582C814.637 582 813.293 582.335 812.076 582.978C810.86 583.62 809.806 584.553 809 585.7V617.698C809.003 619.634 809.741 621.489 811.053 622.858C812.365 624.227 814.144 624.997 816 625V625Z" fill="#FA4B00"/>
<path d="M816 619C817.325 618.998 818.596 618.443 819.533 617.456C820.471 616.469 820.998 615.131 821 613.736V590.667C820.424 589.84 819.671 589.168 818.803 588.705C817.934 588.241 816.974 588 816 588C815.026 588 814.066 588.241 813.197 588.705C812.329 589.168 811.576 589.84 811 590.667V613.736C811.002 615.131 811.529 616.469 812.467 617.456C813.404 618.443 814.674 618.998 816 619V619Z" fill="#3F3D56"/>
</g>
<defs>
<clipPath id="clip0_796_325">
<rect width="976" height="692" fill="white" transform="translate(105 140)"/>
</clipPath>
</defs>
</svg>
