<svg width="951" height="934" viewBox="0 0 951 934" fill="none" xmlns="http://www.w3.org/2000/svg">
<path fill-rule="evenodd" clip-rule="evenodd" d="M952.487 235.985C1199.56 394.196 1148.44 742.265 1037.97 989.674C966.522 1149.69 747.164 1117.75 562.171 1110.12C402.708 1103.54 216.592 1098.11 149.373 953.012C73.2168 788.622 154.271 619.879 282.164 505.696C476.971 331.77 714.78 83.7703 952.487 235.985Z" fill="#FF8957"/>
<g clip-path="url(#clip0_796_325)">
<path d="M205.948 916.551L222.146 916.55L229.853 854.045L205.944 854.046L205.948 916.551Z" fill="#FFB6B6"/>
<path d="M205.377 933.456L255.192 933.454V932.823C255.192 927.679 253.149 922.746 249.513 919.109C245.877 915.472 240.945 913.428 235.803 913.428H235.802L226.702 906.522L209.725 913.429L205.376 913.429L205.377 933.456Z" fill="#2F2E41"/>
<path d="M232.107 840.927L244.86 850.92L289.46 806.468L270.637 791.72L232.107 840.927Z" fill="#FFB6B6"/>
<path d="M221.236 853.883L260.453 884.612L260.842 884.116C264.013 880.066 265.446 874.922 264.825 869.816C264.205 864.709 261.583 860.058 257.535 856.886L257.534 856.885L254.628 845.836L237.005 840.8L233.581 838.117L221.236 853.883Z" fill="#2F2E41"/>
<path d="M308.375 556.132C308.375 556.132 329.875 578.436 320.319 630.212L328.341 718.865L330.412 722.969C331.645 725.414 332.076 728.187 331.642 730.892C331.209 733.597 329.933 736.096 327.997 738.033V738.033L326.291 743.323L324.699 753.678L265.374 842.893L242.68 818.996L279.31 735.357L269.356 713.85L246.263 638.974L230.337 775.982L233.523 893.872H203.041L184.152 762.44L164.245 577.639L174.6 556.132H308.375Z" fill="#2F2E41"/>
<path d="M169.209 594.456L168.992 594.151C157.39 577.902 174.84 538.856 177.471 533.196C174.346 532.182 171.669 530.115 169.896 527.347C168.123 524.58 167.364 521.284 167.748 518.019L168.882 508.372L170.065 498.909L161.593 490.434L161.569 490.223L156.693 447.547L149.604 419.202C146.933 408.486 147.161 397.253 150.264 386.654C153.367 376.056 159.233 366.474 167.261 358.893L183.648 356.291L203.562 337.096H235.677L246.688 347.62C267.244 351.227 270.775 350.049 288.432 371.244L280.409 437.141L278.408 446.207L278.414 458.502L283.502 464.159C285.335 466.197 286.667 468.635 287.392 471.278C288.116 473.922 288.214 476.698 287.677 479.386L287.007 482.733C292.255 484.983 297.263 524.966 298.46 530.55L300.247 538.893C301.776 540.911 311.868 554.372 311.868 558.052C311.868 558.605 311.461 559.139 310.586 559.731C303.708 564.39 276.287 597.438 259.462 590.704C241.54 583.535 170.297 594.289 169.579 594.398L169.209 594.456Z" fill="#3F3D56"/>
<path d="M164.894 517.828C164.894 517.828 173.141 471.205 164.833 453.671L131.873 456.026L136.889 522.54L165.702 596.391C165.262 598.666 165.432 601.017 166.195 603.206C166.957 605.394 168.285 607.342 170.043 608.851C171.801 610.36 173.927 611.377 176.205 611.799C178.483 612.221 180.832 612.032 183.013 611.252C185.195 610.471 187.131 609.128 188.626 607.357C190.12 605.586 191.12 603.452 191.523 601.169C191.926 598.887 191.718 596.539 190.921 594.363C190.124 592.187 188.765 590.261 186.983 588.781L164.894 517.828Z" fill="#FFB6B6"/>
<path d="M131.873 428.943L133.913 406.722C134.681 398.358 137.094 390.23 141.014 382.803C144.933 375.376 150.282 368.797 156.753 363.446V363.446C160.773 360.145 165.636 358.035 170.792 357.354C175.949 356.674 181.192 357.449 185.931 359.593V359.593C192.335 362.542 197.381 367.814 200.048 374.343C202.715 380.871 202.804 388.169 200.298 394.761C192.68 414.746 195.431 435.881 180.577 438.458L182.19 446.138L167.585 493.817L125.988 488.996L131.873 428.943Z" fill="#3F3D56"/>
<path d="M351.264 495.73C351.264 495.73 327.122 455.005 309.392 447.132L285.941 470.418L333.105 517.571L403.093 554.762C404.243 556.774 405.904 558.446 407.909 559.608C409.914 560.769 412.19 561.38 414.506 561.377C416.823 561.375 419.098 560.759 421.1 559.592C423.102 558.426 424.759 556.75 425.905 554.736C427.05 552.721 427.642 550.439 427.62 548.122C427.599 545.805 426.965 543.534 425.783 541.541C424.601 539.548 422.913 537.903 420.89 536.774C418.867 535.645 416.581 535.071 414.265 535.111L351.264 495.73Z" fill="#FFB6B6"/>
<path d="M268.285 449.887L255.345 431.71C250.475 424.869 247.005 417.132 245.135 408.945C243.265 400.757 243.031 392.281 244.448 384.003V384.003C245.344 378.878 247.655 374.106 251.12 370.226C254.585 366.347 259.066 363.514 264.056 362.048V362.048C270.834 360.106 278.096 360.811 284.374 364.021C290.652 367.23 295.477 372.705 297.874 379.337C305.128 399.458 331.586 432.526 322.004 444.169L328.235 448.939L337.65 475.772L302.973 499.253L268.285 449.887Z" fill="#3F3D56"/>
<path d="M217.453 327.824C237.15 327.824 253.118 311.851 253.118 292.147C253.118 272.443 237.15 256.469 217.453 256.469C197.755 256.469 181.787 272.443 181.787 292.147C181.787 311.851 197.755 327.824 217.453 327.824Z" fill="#FFB6B6"/>
<path d="M191.569 317.294C191.258 317.021 190.964 316.729 190.66 316.448C190.649 316.477 190.647 316.507 190.636 316.535L191.569 317.294Z" fill="#2F2E41"/>
<path d="M246.681 254.471C244.908 251.618 242.454 249.251 239.539 247.583C237.546 246.616 235.452 245.874 233.295 245.37L227.651 243.83C224.759 242.935 221.784 242.335 218.771 242.041C214.587 241.835 210.426 242.782 206.744 244.781C203.062 246.779 200 249.751 197.892 253.372C196.186 256.398 194.818 260.168 191.527 261.275C188.873 262.168 185.978 260.909 183.189 261.153C181.554 261.39 180.004 262.026 178.674 263.006C177.344 263.986 176.277 265.279 175.566 266.77C174.176 269.77 173.492 273.05 173.566 276.356C173.456 283.863 174.921 291.309 177.865 298.215C180.81 305.12 185.168 311.332 190.66 316.448C191.58 314.021 190.064 311.401 188.866 309.079C187.653 306.729 186.904 303.454 188.935 301.762C191.195 299.879 194.816 301.705 197.489 300.477C198.344 299.986 199.064 299.29 199.585 298.452C200.106 297.615 200.411 296.661 200.474 295.677C200.733 293.726 200.463 291.743 200.585 289.779C200.706 287.832 201.212 285.928 202.073 284.178C202.934 282.428 204.133 280.865 205.601 279.581C207.069 278.297 208.776 277.316 210.625 276.696C212.474 276.075 214.427 275.827 216.372 275.966C222.456 276.401 228.361 280.56 234.216 278.849C236.964 278.046 239.308 276.001 242.15 275.657C245.298 275.276 248.259 277.053 250.932 278.76C251.904 274.634 252.027 270.354 251.297 266.179C250.566 262.004 248.995 258.021 246.681 254.471Z" fill="#2F2E41"/>
<path d="M370.326 913.411L361.25 898.822L359.437 907.159C359.119 908.619 358.801 910.102 358.507 911.574C355.929 909.372 353.186 907.335 350.503 905.38C342.263 899.399 334.027 893.409 325.794 887.412L328.372 902.366C329.962 911.574 331.621 920.971 335.553 929.39C335.989 930.344 336.459 931.286 336.966 932.204H375.27C375.578 931.351 375.791 930.467 375.905 929.567C375.915 929.508 375.919 929.449 375.917 929.39C376.518 923.679 373.363 918.298 370.326 913.411Z" fill="#F0F0F0"/>
<path d="M1079.6 933.638L106.402 934C106.031 933.999 105.675 933.851 105.413 933.588C105.151 933.325 105.004 932.969 105.004 932.598C105.004 932.227 105.151 931.871 105.413 931.608C105.675 931.345 106.031 931.197 106.402 931.196L1079.6 930.834C1079.97 930.835 1080.33 930.983 1080.59 931.246C1080.85 931.509 1081 931.865 1081 932.236C1081 932.607 1080.85 932.963 1080.59 933.226C1080.33 933.489 1079.97 933.637 1079.6 933.638V933.638Z" fill="#CACACA"/>
<path d="M410.346 522.6V860.576C410.35 864.883 412.062 869.013 415.106 872.058C418.151 875.104 422.279 876.816 426.585 876.82H927.268C931.573 876.816 935.701 875.104 938.746 872.058C941.791 869.013 943.502 864.883 943.506 860.576V522.6C943.496 518.296 941.781 514.173 938.737 511.131C935.694 508.09 931.569 506.379 927.268 506.374H426.585C422.283 506.38 418.158 508.09 415.115 511.131C412.071 514.173 410.357 518.296 410.346 522.6V522.6Z" fill="#3F3D56"/>
<path d="M399.875 926.49C400.793 927.641 401.958 928.568 403.285 929.203C404.612 929.838 406.066 930.164 407.537 930.157H943.65C945.117 930.155 946.564 929.826 947.887 929.195C949.21 928.563 950.376 927.644 951.3 926.505C952.223 925.366 952.881 924.035 953.226 922.61C953.571 921.184 953.594 919.7 953.293 918.265L944.971 878.722C944.626 877.109 943.884 875.609 942.811 874.357C941.738 873.105 940.369 872.141 938.829 871.553C937.714 871.116 936.526 870.891 935.328 870.893H415.826C414.628 870.891 413.441 871.116 412.325 871.553C410.785 872.141 409.416 873.104 408.343 874.357C407.271 875.609 406.528 877.109 406.183 878.722L397.861 918.265C397.565 919.699 397.592 921.182 397.94 922.605C398.289 924.028 398.95 925.355 399.875 926.49V926.49Z" fill="#2F2E41"/>
<path d="M915.583 887.925H930.946C931.263 887.925 931.521 887.667 931.521 887.35V878.589C931.521 878.271 931.263 878.014 930.946 878.014H915.583C915.266 878.014 915.008 878.271 915.008 878.589V887.35C915.008 887.667 915.266 887.925 915.583 887.925Z" fill="#3F3D56"/>
<path d="M882.559 887.925H897.922C898.239 887.925 898.497 887.667 898.497 887.35V878.589C898.497 878.271 898.239 878.014 897.922 878.014H882.559C882.242 878.014 881.984 878.271 881.984 878.589V887.35C881.984 887.667 882.242 887.925 882.559 887.925Z" fill="#3F3D56"/>
<path d="M849.535 887.925H864.898C865.215 887.925 865.472 887.667 865.472 887.35V878.589C865.472 878.271 865.215 878.014 864.898 878.014H849.535C849.218 878.014 848.96 878.271 848.96 878.589V887.35C848.96 887.667 849.218 887.925 849.535 887.925Z" fill="#3F3D56"/>
<path d="M816.511 887.925H831.874C832.191 887.925 832.448 887.667 832.448 887.35V878.589C832.448 878.271 832.191 878.014 831.874 878.014H816.511C816.193 878.014 815.936 878.271 815.936 878.589V887.35C815.936 887.667 816.193 887.925 816.511 887.925Z" fill="#3F3D56"/>
<path d="M783.487 887.925H798.849C799.167 887.925 799.424 887.667 799.424 887.35V878.589C799.424 878.271 799.167 878.014 798.849 878.014H783.487C783.169 878.014 782.912 878.271 782.912 878.589V887.35C782.912 887.667 783.169 887.925 783.487 887.925Z" fill="#3F3D56"/>
<path d="M750.463 887.925H765.825C766.143 887.925 766.4 887.667 766.4 887.35V878.589C766.4 878.271 766.143 878.014 765.825 878.014H750.463C750.145 878.014 749.888 878.271 749.888 878.589V887.35C749.888 887.667 750.145 887.925 750.463 887.925Z" fill="#3F3D56"/>
<path d="M717.439 887.925H732.801C733.119 887.925 733.376 887.667 733.376 887.35V878.589C733.376 878.271 733.119 878.014 732.801 878.014H717.439C717.121 878.014 716.864 878.271 716.864 878.589V887.35C716.864 887.667 717.121 887.925 717.439 887.925Z" fill="#3F3D56"/>
<path d="M684.414 887.925H699.777C700.094 887.925 700.352 887.667 700.352 887.35V878.589C700.352 878.271 700.094 878.014 699.777 878.014H684.414C684.097 878.014 683.84 878.271 683.84 878.589V887.35C683.84 887.667 684.097 887.925 684.414 887.925Z" fill="#3F3D56"/>
<path d="M651.39 887.925H666.753C667.07 887.925 667.328 887.667 667.328 887.35V878.589C667.328 878.271 667.07 878.014 666.753 878.014H651.39C651.073 878.014 650.816 878.271 650.816 878.589V887.35C650.816 887.667 651.073 887.925 651.39 887.925Z" fill="#3F3D56"/>
<path d="M618.366 887.925H633.729C634.046 887.925 634.303 887.667 634.303 887.35V878.589C634.303 878.271 634.046 878.014 633.729 878.014H618.366C618.049 878.014 617.792 878.271 617.792 878.589V887.35C617.792 887.667 618.049 887.925 618.366 887.925Z" fill="#3F3D56"/>
<path d="M585.342 887.925H600.705C601.022 887.925 601.279 887.667 601.279 887.35V878.589C601.279 878.271 601.022 878.014 600.705 878.014H585.342C585.024 878.014 584.767 878.271 584.767 878.589V887.35C584.767 887.667 585.024 887.925 585.342 887.925Z" fill="#3F3D56"/>
<path d="M552.318 887.925H567.681C567.998 887.925 568.255 887.667 568.255 887.35V878.589C568.255 878.271 567.998 878.014 567.681 878.014H552.318C552.001 878.014 551.743 878.271 551.743 878.589V887.35C551.743 887.667 552.001 887.925 552.318 887.925Z" fill="#3F3D56"/>
<path d="M519.294 887.925H534.657C534.974 887.925 535.231 887.667 535.231 887.35V878.589C535.231 878.271 534.974 878.014 534.657 878.014H519.294C518.976 878.014 518.719 878.271 518.719 878.589V887.35C518.719 887.667 518.976 887.925 519.294 887.925Z" fill="#3F3D56"/>
<path d="M486.27 887.925H501.632C501.95 887.925 502.207 887.667 502.207 887.35V878.589C502.207 878.271 501.95 878.014 501.632 878.014H486.27C485.952 878.014 485.695 878.271 485.695 878.589V887.35C485.695 887.667 485.952 887.925 486.27 887.925Z" fill="#3F3D56"/>
<path d="M453.245 887.925H468.608C468.926 887.925 469.183 887.667 469.183 887.35V878.589C469.183 878.271 468.926 878.014 468.608 878.014H453.245C452.928 878.014 452.671 878.271 452.671 878.589V887.35C452.671 887.667 452.928 887.925 453.245 887.925Z" fill="#3F3D56"/>
<path d="M420.221 887.925H435.584C435.901 887.925 436.159 887.667 436.159 887.35V878.589C436.159 878.271 435.901 878.014 435.584 878.014H420.221C419.904 878.014 419.647 878.271 419.647 878.589V887.35C419.647 887.667 419.904 887.925 420.221 887.925Z" fill="#3F3D56"/>
<path d="M915.974 904.442H931.336C931.654 904.442 931.911 904.185 931.911 903.867V895.106C931.911 894.789 931.654 894.532 931.336 894.532H915.974C915.656 894.532 915.399 894.789 915.399 895.106V903.867C915.399 904.185 915.656 904.442 915.974 904.442Z" fill="#3F3D56"/>
<path d="M882.949 904.442H898.312C898.629 904.442 898.887 904.185 898.887 903.867V895.106C898.887 894.789 898.629 894.532 898.312 894.532H882.949C882.632 894.532 882.375 894.789 882.375 895.106V903.867C882.375 904.185 882.632 904.442 882.949 904.442Z" fill="#3F3D56"/>
<path d="M849.925 904.442H865.288C865.605 904.442 865.863 904.185 865.863 903.867V895.106C865.863 894.789 865.605 894.532 865.288 894.532H849.925C849.608 894.532 849.351 894.789 849.351 895.106V903.867C849.351 904.185 849.608 904.442 849.925 904.442Z" fill="#3F3D56"/>
<path d="M816.901 904.442H832.264C832.581 904.442 832.838 904.185 832.838 903.867V895.106C832.838 894.789 832.581 894.532 832.264 894.532H816.901C816.584 894.532 816.326 894.789 816.326 895.106V903.867C816.326 904.185 816.584 904.442 816.901 904.442Z" fill="#3F3D56"/>
<path d="M783.877 904.442H799.24C799.557 904.442 799.814 904.185 799.814 903.867V895.106C799.814 894.789 799.557 894.532 799.24 894.532H783.877C783.56 894.532 783.302 894.789 783.302 895.106V903.867C783.302 904.185 783.56 904.442 783.877 904.442Z" fill="#3F3D56"/>
<path d="M750.853 904.442H766.216C766.533 904.442 766.79 904.185 766.79 903.867V895.106C766.79 894.789 766.533 894.532 766.216 894.532H750.853C750.536 894.532 750.278 894.789 750.278 895.106V903.867C750.278 904.185 750.536 904.442 750.853 904.442Z" fill="#3F3D56"/>
<path d="M717.829 904.442H733.191C733.509 904.442 733.766 904.185 733.766 903.867V895.106C733.766 894.789 733.509 894.532 733.191 894.532H717.829C717.511 894.532 717.254 894.789 717.254 895.106V903.867C717.254 904.185 717.511 904.442 717.829 904.442Z" fill="#3F3D56"/>
<path d="M684.805 904.442H700.167C700.485 904.442 700.742 904.185 700.742 903.867V895.106C700.742 894.789 700.485 894.532 700.167 894.532H684.805C684.487 894.532 684.23 894.789 684.23 895.106V903.867C684.23 904.185 684.487 904.442 684.805 904.442Z" fill="#3F3D56"/>
<path d="M651.78 904.442H667.143C667.46 904.442 667.718 904.185 667.718 903.867V895.106C667.718 894.789 667.46 894.532 667.143 894.532H651.78C651.463 894.532 651.206 894.789 651.206 895.106V903.867C651.206 904.185 651.463 904.442 651.78 904.442Z" fill="#3F3D56"/>
<path d="M618.756 904.442H634.119C634.437 904.442 634.694 904.185 634.694 903.867V895.106C634.694 894.789 634.437 894.532 634.119 894.532H618.756C618.439 894.532 618.182 894.789 618.182 895.106V903.867C618.182 904.185 618.439 904.442 618.756 904.442Z" fill="#3F3D56"/>
<path d="M585.732 904.442H601.095C601.412 904.442 601.67 904.185 601.67 903.867V895.106C601.67 894.789 601.412 894.532 601.095 894.532H585.732C585.415 894.532 585.158 894.789 585.158 895.106V903.867C585.158 904.185 585.415 904.442 585.732 904.442Z" fill="#3F3D56"/>
<path d="M552.708 904.442H568.071C568.388 904.442 568.646 904.185 568.646 903.867V895.106C568.646 894.789 568.388 894.532 568.071 894.532H552.708C552.391 894.532 552.134 894.789 552.134 895.106V903.867C552.134 904.185 552.391 904.442 552.708 904.442Z" fill="#3F3D56"/>
<path d="M519.684 904.442H535.047C535.364 904.442 535.621 904.185 535.621 903.867V895.106C535.621 894.789 535.364 894.532 535.047 894.532H519.684C519.367 894.532 519.109 894.789 519.109 895.106V903.867C519.109 904.185 519.367 904.442 519.684 904.442Z" fill="#3F3D56"/>
<path d="M486.66 904.442H502.023C502.34 904.442 502.597 904.185 502.597 903.867V895.106C502.597 894.789 502.34 894.532 502.023 894.532H486.66C486.343 894.532 486.085 894.789 486.085 895.106V903.867C486.085 904.185 486.343 904.442 486.66 904.442Z" fill="#3F3D56"/>
<path d="M453.636 904.442H468.999C469.316 904.442 469.573 904.185 469.573 903.867V895.106C469.573 894.789 469.316 894.532 468.999 894.532H453.636C453.318 894.532 453.061 894.789 453.061 895.106V903.867C453.061 904.185 453.318 904.442 453.636 904.442Z" fill="#3F3D56"/>
<path d="M420.612 904.442H435.974C436.292 904.442 436.549 904.185 436.549 903.867V895.106C436.549 894.789 436.292 894.532 435.974 894.532H420.612C420.294 894.532 420.037 894.789 420.037 895.106V903.867C420.037 904.185 420.294 904.442 420.612 904.442Z" fill="#3F3D56"/>
<path d="M605.382 924.263H736.329C736.646 924.263 736.904 924.006 736.904 923.688V914.927C736.904 914.61 736.646 914.353 736.329 914.353H605.382C605.065 914.353 604.807 914.61 604.807 914.927V923.688C604.807 924.006 605.065 924.263 605.382 924.263Z" fill="#3F3D56"/>
<path d="M660.974 670.605L660.992 670.602C661.114 670.491 661.227 670.37 661.33 670.241L660.974 670.605Z" fill="#FA4B00"/>
<path d="M708.025 760.744L708.03 760.756L708.133 760.557L708.025 760.744Z" fill="#FA4B00"/>
<path d="M905.101 577.775H449.169C448.857 577.768 448.559 577.639 448.341 577.415C448.122 577.192 448 576.892 448 576.579C448 576.266 448.122 575.966 448.341 575.743C448.559 575.519 448.857 575.39 449.169 575.383H905.101C905.414 575.39 905.711 575.519 905.93 575.743C906.148 575.966 906.271 576.266 906.271 576.579C906.271 576.892 906.148 577.192 905.93 577.415C905.711 577.639 905.414 577.768 905.101 577.775Z" fill="#CACACA"/>
<path d="M475.284 561.036C482.387 561.036 488.145 555.148 488.145 547.885C488.145 540.622 482.387 534.733 475.284 534.733C468.181 534.733 462.424 540.622 462.424 547.885C462.424 555.148 468.181 561.036 475.284 561.036Z" fill="#3F3D56"/>
<path d="M519.712 561.036C526.814 561.036 532.572 555.148 532.572 547.885C532.572 540.622 526.814 534.733 519.712 534.733C512.609 534.733 506.851 540.622 506.851 547.885C506.851 555.148 512.609 561.036 519.712 561.036Z" fill="#3F3D56"/>
<path d="M564.139 561.036C571.242 561.036 577 555.148 577 547.885C577 540.622 571.242 534.733 564.139 534.733C557.037 534.733 551.279 540.622 551.279 547.885C551.279 555.148 557.037 561.036 564.139 561.036Z" fill="#3F3D56"/>
<path d="M878.278 537.993H846.719C846.094 538.006 845.498 538.263 845.06 538.71C844.622 539.157 844.376 539.758 844.376 540.384C844.376 541.009 844.622 541.61 845.06 542.057C845.498 542.504 846.094 542.761 846.719 542.774H878.278C878.904 542.761 879.499 542.504 879.937 542.057C880.375 541.61 880.621 541.009 880.621 540.384C880.621 539.758 880.375 539.157 879.937 538.71C879.499 538.263 878.904 538.006 878.278 537.993V537.993Z" fill="#3F3D56"/>
<path d="M878.278 546.966H846.719C846.094 546.978 845.498 547.236 845.06 547.682C844.622 548.129 844.376 548.73 844.376 549.356C844.376 549.982 844.622 550.583 845.06 551.03C845.498 551.477 846.094 551.734 846.719 551.746H878.278C878.904 551.734 879.499 551.477 879.937 551.03C880.375 550.583 880.621 549.982 880.621 549.356C880.621 548.73 880.375 548.129 879.937 547.682C879.499 547.236 878.904 546.978 878.278 546.966V546.966Z" fill="#3F3D56"/>
<path d="M878.278 555.927H846.719C846.094 555.939 845.498 556.196 845.06 556.643C844.622 557.09 844.376 557.691 844.376 558.317C844.376 558.943 844.622 559.544 845.06 559.991C845.498 560.438 846.094 560.695 846.719 560.707H878.278C878.904 560.695 879.499 560.438 879.937 559.991C880.375 559.544 880.621 558.943 880.621 558.317C880.621 557.691 880.375 557.09 879.937 556.643C879.499 556.196 878.904 555.939 878.278 555.927V555.927Z" fill="#3F3D56"/>
<path d="M422 526.7V856.318C422.004 858.62 422.92 860.826 424.548 862.453C426.176 864.08 428.382 864.996 430.684 865H923.316C925.618 864.996 927.825 864.08 929.452 862.453C931.08 860.825 931.996 858.62 932 856.318V526.7C932 524.396 931.085 522.186 929.457 520.555C927.829 518.924 925.621 518.005 923.316 518H430.684C428.379 518.005 426.171 518.924 424.543 520.555C422.915 522.186 422 524.396 422 526.7Z" fill="#FDFDFD"/>
<path d="M442.818 559H910.182C910.668 558.988 911.13 558.773 911.47 558.399C911.81 558.025 912 557.523 912 557C912 556.477 911.81 555.975 911.47 555.601C911.13 555.227 910.668 555.012 910.182 555H442.818C442.332 555.012 441.87 555.227 441.53 555.601C441.19 555.975 441 556.477 441 557C441 557.523 441.19 558.025 441.53 558.399C441.87 558.773 442.332 558.988 442.818 559Z" fill="#3F3D56"/>
<path d="M878 546C884.075 546 889 541.075 889 535C889 528.925 884.075 524 878 524C871.925 524 867 528.925 867 535C867 541.075 871.925 546 878 546Z" fill="#3F3D56"/>
<path d="M840 546C846.075 546 851 541.075 851 535C851 528.925 846.075 524 840 524C833.925 524 829 528.925 829 535C829 541.075 833.925 546 840 546Z" fill="#3F3D56"/>
<path d="M802.5 546C808.299 546 813 541.075 813 535C813 528.925 808.299 524 802.5 524C796.701 524 792 528.925 792 535C792 541.075 796.701 546 802.5 546Z" fill="#3F3D56"/>
<path d="M459 530.507C458.999 530.702 459.04 530.895 459.121 531.076C459.202 531.257 459.322 531.421 459.473 531.56C459.624 531.699 459.803 531.809 460.001 531.884C460.199 531.96 460.411 531.999 460.625 532H482.391C482.821 531.991 483.23 531.829 483.531 531.548C483.832 531.268 484 530.892 484 530.5C484 530.108 483.832 529.732 483.531 529.452C483.23 529.171 482.821 529.009 482.391 529H460.625C460.19 529.005 459.776 529.166 459.471 529.448C459.167 529.731 458.997 530.111 459 530.507V530.507Z" fill="#3F3D56"/>
<path d="M459 536.507C458.999 536.702 459.04 536.895 459.121 537.076C459.202 537.257 459.322 537.421 459.473 537.56C459.624 537.699 459.803 537.809 460.001 537.884C460.198 537.96 460.41 537.999 460.625 538H482.389C482.819 537.991 483.229 537.829 483.53 537.549C483.831 537.269 484 536.892 484 536.5C484 536.108 483.831 535.731 483.53 535.451C483.229 535.171 482.819 535.009 482.389 535H460.625C460.19 535.005 459.776 535.166 459.471 535.448C459.167 535.731 458.997 536.111 459 536.507V536.507Z" fill="#3F3D56"/>
<path d="M459 542.991C458.997 543.519 459.167 544.026 459.471 544.402C459.776 544.779 460.19 544.994 460.625 545H482.391C482.821 544.988 483.23 544.772 483.531 544.398C483.832 544.024 484 543.523 484 543C484 542.478 483.832 541.976 483.531 541.602C483.23 541.228 482.821 541.012 482.391 541H460.625C460.411 541.001 460.198 541.054 460.001 541.154C459.803 541.255 459.624 541.402 459.473 541.587C459.322 541.772 459.202 541.991 459.121 542.232C459.04 542.473 458.999 542.731 459 542.991Z" fill="#3F3D56"/>
<path d="M811.61 602H541.39C537.84 602.004 534.436 603.422 531.926 605.944C529.416 608.465 528.004 611.883 528 615.449V747.55C528.004 751.116 529.416 754.535 531.926 757.056C534.436 759.577 537.84 760.996 541.39 761H811.61C815.16 760.996 818.564 759.577 821.074 757.056C823.584 754.535 824.996 751.116 825 747.55V615.449C824.996 611.883 823.584 608.465 821.074 605.944C818.564 603.422 815.16 602.004 811.61 602ZM821.985 615.449V653.99H727.005V605.029H811.61C814.361 605.032 816.998 606.131 818.943 608.084C820.888 610.038 821.982 612.686 821.985 615.449H821.985ZM629.01 705.981V657.019H723.99V705.981H629.01ZM723.99 709.01V757.971H629.01V709.01H723.99ZM625.995 705.981H531.015V657.019H625.995V705.981ZM629.01 653.99V605.029H723.99V653.99H629.01ZM727.005 657.019H821.985V705.981H727.005V657.019ZM541.39 605.029H625.995V653.99H531.015V615.449C531.018 612.686 532.112 610.038 534.057 608.084C536.002 606.131 538.639 605.032 541.39 605.029V605.029ZM531.015 747.55V709.01H625.995V757.971H541.39C538.639 757.968 536.002 756.869 534.057 754.916C532.112 752.962 531.018 750.313 531.015 747.55V747.55ZM811.61 757.971H727.005V709.01H821.985V747.55C821.982 750.313 820.888 752.962 818.943 754.916C816.998 756.869 814.361 757.968 811.61 757.971H811.61Z" fill="#3F3D56"/>
<path d="M620.353 635.889C617.955 631.926 615.114 627.695 610.665 626.401C605.513 624.902 600.22 627.879 595.73 630.817C582.304 639.602 569.374 649.123 557 659.336L557.014 659.49L585.915 657.498C592.875 657.018 600.075 656.472 606.226 653.182C608.56 651.933 610.835 650.265 613.48 650.149C616.766 650.004 619.631 652.298 621.883 654.694C635.202 668.869 639.057 690.546 654 703C644.577 679.776 633.326 657.335 620.353 635.889V635.889Z" fill="#FA4B00"/>
<path d="M702.293 755.851C700.819 753.999 700.217 753.566 698.763 751.697C686.928 736.462 675.803 720.713 665.39 704.449C658.316 693.403 651.594 682.145 645.222 670.675C642.189 665.222 639.238 659.726 636.371 654.188C634.146 649.893 631.971 645.573 629.846 641.227C629.238 639.986 628.647 638.739 628.059 637.489C626.675 634.55 625.316 631.597 623.856 628.698C622.348 625.217 620.039 622.138 617.115 619.709C615.726 618.657 614.064 618.021 612.324 617.874C609.874 617.888 607.475 618.572 605.389 619.852C589.598 628.113 574.859 638.229 561.487 649.982C548.095 661.687 536.125 674.912 525.82 689.385C525.505 689.833 524.759 689.405 525.077 688.954C526.33 687.191 527.608 685.447 528.911 683.721C545.108 662.282 564.968 643.845 587.584 629.254C591.389 626.8 595.265 624.461 599.213 622.237C601.203 621.116 603.201 620.009 605.234 618.97C607.182 617.834 609.367 617.16 611.619 617.001C619.366 616.881 623.377 625.613 626.133 631.488C626.999 633.337 627.875 635.181 628.762 637.018C632.114 643.995 635.594 650.908 639.204 657.757C641.432 661.986 643.708 666.19 646.034 670.37C653.27 683.384 660.962 696.136 669.108 708.623C679.9 725.165 690.606 739.778 702.9 755.246C703.239 755.674 702.634 756.285 702.293 755.851Z" fill="#FA4B00"/>
<path d="M561.271 645.257C560.816 644.753 560.365 644.249 559.907 643.745C556.299 639.779 552.428 635.858 547.473 633.584C545.111 632.466 542.532 631.871 539.916 631.843C537.216 631.916 534.554 632.493 532.069 633.544C530.887 634.013 529.732 634.546 528.594 635.113C527.294 635.763 526.017 636.457 524.746 637.156C522.36 638.469 520.004 639.839 517.68 641.267C513.056 644.108 508.576 647.166 504.242 650.441C501.995 652.139 499.794 653.893 497.64 655.703C495.636 657.384 493.673 659.11 491.75 660.881C491.339 661.259 490.725 660.648 491.136 660.271C491.643 659.802 492.155 659.336 492.668 658.875C494.116 657.574 495.587 656.298 497.081 655.047C499.805 652.761 502.601 650.564 505.467 648.455C509.923 645.173 514.533 642.114 519.296 639.278C521.676 637.862 524.089 636.505 526.535 635.208C527.274 634.816 528.021 634.433 528.776 634.071C530.491 633.211 532.273 632.49 534.104 631.915C536.699 631.08 539.443 630.812 542.151 631.129C544.766 631.507 547.285 632.373 549.576 633.682C554.44 636.385 558.213 640.565 561.885 644.644C562.256 645.058 561.645 645.671 561.271 645.257Z" fill="#FA4B00"/>
<path d="M659.52 686.46L671.039 682.249L676.757 680.158C678.605 679.415 680.49 678.766 682.404 678.215C684.077 677.737 685.853 677.76 687.514 678.28C688.995 678.828 690.35 679.668 691.5 680.75C692.674 681.831 693.767 682.997 694.769 684.239C696.014 685.735 697.241 687.246 698.473 688.752C703.559 694.969 708.611 701.212 713.63 707.482C718.649 713.752 723.635 720.049 728.587 726.373C733.551 732.712 738.481 739.077 743.376 745.469C743.976 746.252 744.575 747.036 745.174 747.82C745.505 748.253 746.251 747.826 745.915 747.386C740.983 740.93 736.017 734.5 731.017 728.097C726.004 721.678 720.956 715.287 715.874 708.923C710.792 702.559 705.676 696.222 700.525 689.913C699.242 688.341 697.956 686.771 696.669 685.203C695.583 683.88 694.509 682.543 693.318 681.312C692.304 680.09 691.058 679.081 689.653 678.341C688.248 677.601 686.711 677.145 685.13 677C683.215 677.067 681.327 677.482 679.561 678.224C677.635 678.92 675.714 679.629 673.791 680.332L662.192 684.573L659.292 685.633C658.777 685.821 659 686.65 659.52 686.46V686.46Z" fill="#FA4B00"/>
<path d="M545.488 638.851C542.566 637.441 539.314 636.818 536.065 637.046C532.816 637.273 529.687 638.343 527 640.145C537.128 641.856 547.145 644.145 557 647C552.908 644.652 549.706 640.973 545.488 638.851Z" fill="#FA4B00"/>
<path d="M526.951 640L526 641C526.322 640.65 526.656 640.322 527 640.011L526.951 640Z" fill="#FA4B00"/>
<path d="M690.658 686.401C689.647 684.908 688.237 683.73 686.589 683L685 683.063C697.094 704.458 713.428 723.153 733 738L690.658 686.401Z" fill="#FA4B00"/>
<path d="M684 663C688.971 663 693 658.971 693 654C693 649.029 688.971 645 684 645C679.029 645 675 649.029 675 654C675 658.971 679.029 663 684 663Z" fill="#FA4B00"/>
<path d="M816 755C817.856 754.997 819.635 754.285 820.947 753.02C822.259 751.755 822.997 750.039 823 748.25V608.75C823 606.96 822.263 605.243 820.95 603.977C819.637 602.711 817.857 602 816 602C814.143 602 812.363 602.711 811.05 603.977C809.738 605.243 809 606.96 809 608.75V748.25C809.003 750.039 809.741 751.755 811.053 753.02C812.365 754.285 814.144 754.997 816 755V755Z" fill="#3F3D56"/>
<path d="M908 616C909.856 615.997 911.635 615.281 912.947 614.008C914.259 612.734 914.997 611.008 915 609.208V579.442C914.194 578.375 913.14 577.507 911.924 576.909C910.708 576.312 909.363 576 908 576C906.637 576 905.293 576.312 904.076 576.909C902.86 577.507 901.806 578.375 901 579.442V609.208C901.003 611.008 901.741 612.734 903.053 614.008C904.365 615.281 906.144 615.997 908 616V616Z" fill="#2F2E41"/>
<path d="M816 727C817.856 726.997 819.635 726.227 820.947 724.858C822.259 723.489 822.997 721.634 823 719.698V687.7C822.194 686.553 821.14 685.62 819.924 684.978C818.707 684.335 817.363 684 816 684C814.637 684 813.293 684.335 812.076 684.978C810.86 685.62 809.806 686.553 809 687.7V719.698C809.003 721.634 809.741 723.489 811.053 724.858C812.365 726.227 814.144 726.997 816 727V727Z" fill="#FA4B00"/>
<path d="M816 721C817.325 720.998 818.596 720.443 819.533 719.456C820.471 718.469 820.998 717.131 821 715.736V692.667C820.424 691.84 819.671 691.168 818.803 690.705C817.934 690.241 816.974 690 816 690C815.026 690 814.066 690.241 813.197 690.705C812.329 691.168 811.576 691.84 811 692.667V715.736C811.002 717.131 811.529 718.469 812.467 719.456C813.404 720.443 814.674 720.998 816 721V721Z" fill="#3F3D56"/>
</g>
<defs>
<clipPath id="clip0_796_325">
<rect width="976" height="692" fill="white" transform="translate(105 242)"/>
</clipPath>
</defs>
</svg>
