<svg width="1600" height="1200" viewBox="0 0 1600 1200" fill="none" xmlns="http://www.w3.org/2000/svg">
<path d="M857.7 827.5C851.1 821.5 845.5 814.6 841.1 806.8C838.8 802.7 836.9 798.5 835.4 794.1C834.7 792.1 834 790 833.5 787.9C833 786 832.9 784.1 833.3 782.2C834.7 779 836.7 778.3 839.4 780.1C840.5 781.3 842.7 779.7 841.8 778.3C834.5 768 829.1 756.6 826 744.3C825.3 741.5 824.7 738.7 824.2 735.8C823.8 733.1 823.9 729.9 823.2 727.2C821.7 721.8 817.7 716.3 815.3 711.2C803.9 687.5 794.3 661.6 798.3 634.9C797.4 635 796.5 635.1 795.6 635.3C815.3 661.1 830.7 689.8 841.2 720.5C841.8 722.3 844.6 721.6 844.1 719.7C843 715.3 842.5 711.1 842.7 706.6C842.1 707.1 841.4 707.6 840.8 708C843.9 708.5 845.7 710.3 846.2 713.4C846.5 715.1 849.1 714.6 849.1 713C849.2 707.7 849.4 702.3 849.5 697C848.6 697.3 847.6 697.5 846.7 697.8C863.1 723 876 750.2 885.1 778.8C885.6 780.3 887.5 780.2 888 778.8C888.8 776.5 889.6 774.1 890.5 771.8C889.8 772.1 889 772.4 888.3 772.7C897.9 779.6 903.1 790.7 902.5 802.4C902.4 804.3 905.4 804.3 905.5 802.4C906.1 789.5 900.2 777.6 889.8 770.1C889 769.5 887.9 770.2 887.6 771C886.8 773.3 886 775.7 885.1 778C886.1 778 887 778 888 778C878.9 749.1 865.9 721.6 849.3 696.3C848.5 695.1 846.5 695.5 846.5 697.1C846.4 702.4 846.2 707.8 846.1 713.1C847.1 713 848.1 712.8 849 712.7C848.3 708.7 845.5 705.8 841.5 705.2C840.5 705 839.6 705.6 839.6 706.6C839.4 711.4 839.9 715.9 841.1 720.5C842.1 720.2 843 720 844 719.7C833.4 688.8 817.9 659.8 798.1 633.8C797.4 632.9 795.6 632.7 795.4 634.2C791.5 660.2 799.9 685.3 810.7 708.6C813.5 714.7 817.2 720.6 819.6 726.7C821.8 732.2 821.6 739.2 823.1 745C826.3 757.5 831.8 769.2 839.2 779.7C840 779.1 840.8 778.5 841.6 777.9C839 775 834.6 775.5 832.1 778.3C828.1 782.7 830.9 790 832.5 794.8C837.2 808.1 845.2 820 855.6 829.5C857 830.9 859.1 828.8 857.7 827.5Z" fill="#161616"/>
<path d="M570.6 789.3C565.7 785.6 561.3 781.3 557.7 776.3C556.3 774.4 555 772.3 553.8 770.3C553.2 769.1 552.5 768 552 766.8C551.5 765.8 547.2 754.2 553.1 756.8C554.4 757.4 555.9 756.2 555.2 754.7C553.9 752.3 542.8 735.1 548.6 733.7C549.6 733.5 549.9 732.3 549.5 731.5C540.3 714.8 533.8 696.9 529.9 678.2C529.6 678.8 529.2 679.4 528.9 680C536.8 678.6 540.7 691 543.3 696.5C546.5 703.3 549.7 710.1 553 716.8C559.6 730.7 566.1 744.5 572.7 758.4C573.5 760 575.8 758.8 575.4 757.2C574.7 754 574.8 751.2 575.7 748C574.9 748.2 574 748.4 573.2 748.7C578.3 752.8 582.4 757.5 585.8 763.2C586.5 764.4 588.1 764 588.5 762.8C591.7 762 593.8 762.7 594.9 765C595.4 765.9 595.9 766.9 596.4 767.8C597.6 770 598.7 772.2 599.9 774.3C602.2 778.7 604.5 783 606.8 787.4C607.7 789.1 610.3 787.6 609.4 785.9C607.1 781.5 604.8 777.2 602.5 772.8C600.5 769 598.7 764.3 595.8 761C592.8 757.6 587.5 757.2 585.6 761.9C586.5 761.8 587.4 761.7 588.3 761.5C584.8 755.7 580.5 750.7 575.2 746.4C574.3 745.7 573 745.9 572.7 747.1C571.7 750.8 571.6 754.2 572.4 757.9C573.3 757.5 574.2 757.1 575.1 756.7C567.2 739.9 559.2 723 551.2 706.2C547.6 698.7 544.6 690.2 539.9 683.3C537 679.1 533.3 675.9 527.9 676.9C527.1 677 526.7 678 526.9 678.7C530.8 697.6 537.5 715.8 546.8 732.7C547.1 732 547.4 731.2 547.7 730.5C537 733.2 550.3 751.8 552.5 755.9C553.2 755.2 553.9 754.5 554.6 753.8C552 752.7 549.3 753.3 547.7 755.8C545.4 759.4 547.5 763.9 549.1 767.2C553.6 776.9 560.6 785.1 569.1 791.6C570.6 793.1 572.1 790.5 570.6 789.3Z" fill="#161616"/>
<path d="M164 362.9C175.9 349.3 194.6 358.2 207.9 364.1C220.1 369.5 234.1 373.8 246.3 366C257.9 358.5 264.4 345.5 278.7 342.3C295.9 338.4 312.3 347.1 326.3 356C327.9 357 329.4 354.4 327.8 353.4C314.2 344.8 298.9 336.8 282.3 338.6C275.5 339.4 269.2 341.8 263.8 346C258.4 350.2 254 355.7 248.8 360.2C233 373.8 215.9 363.9 199.6 357.2C187.4 352.1 171.6 349.6 161.8 360.8C160.6 362.3 162.7 364.4 164 362.9Z" fill="#161616"/>
<path d="M121.9 548.3C128.2 541.6 137.6 549 142.4 553.7C146.6 557.8 151.4 562.7 157.6 563.3C163.1 563.9 167.5 560.9 171.3 557.2C176.7 552 181.6 547.4 189.1 545.3C196.6 543.3 204.9 543.8 212 547.3C217.6 550.1 222.7 555.5 229.4 554.9C235.3 554.4 238.8 549.2 242.5 545.3C248.5 538.9 257.3 535.6 266.1 536.7C280.8 538.5 293.7 551.2 309.1 546.6C310.9 546.1 310.2 543.2 308.3 543.7C293.6 548 280.7 535.4 266.5 533.7C259.9 532.9 253.1 534.3 247.4 537.6C244.6 539.2 242.1 541.3 239.9 543.7C237.3 546.5 234.8 550.3 231.1 551.6C223.8 554.1 215.8 545.2 209.2 543C203.2 541 196.7 540.7 190.5 542C184.5 543.2 179 546 174.4 550C168.1 555.7 162.3 563.9 152.9 558.5C144.2 553.6 131 534.1 119.8 546.2C118.4 547.6 120.5 549.8 121.9 548.3Z" fill="#161616"/>
<path d="M233.9 521.9C239.4 517.5 245.8 512.7 253 512.1C259.6 511.6 264.9 515.2 270 518.9C277 523.9 286.8 530 295.2 524.2C297.8 522.4 299.7 519.2 302.8 518.3C307.2 517 311.5 520.1 314.8 522.5C318.5 525.3 322.1 528.4 326.8 529.2C332.7 530.2 339.1 527.8 344.9 526.5C352 524.9 359.1 523.3 366.2 521.7C368.1 521.3 367.3 518.4 365.4 518.8C358 520.5 350.5 522.2 343.1 523.9C335.4 525.6 328.2 528.2 321.1 523.4C316.3 520.2 312 515.6 305.9 515.1C301.2 514.7 298.6 517.2 295.4 520.1C283.7 530.6 271.9 513.9 261.2 510.2C250.3 506.3 240 513.1 231.8 519.7C230.3 521 232.4 523.1 233.9 521.9Z" fill="#161616"/>
<path d="M1340.2 443.9C1342.9 435.2 1353.5 437.9 1359.3 441.1C1364.8 444.1 1370 448.3 1376.5 449C1381.9 449.6 1386.3 447.2 1390.9 444.6C1398 440.5 1405.9 438.8 1413.9 441.3C1419.1 442.9 1423.5 447.2 1429.1 447.6C1434.5 448.1 1438.5 444.5 1442.8 441.8C1454.1 434.7 1466.3 444.6 1478.4 441.6C1480.3 441.1 1479.5 438.2 1477.6 438.7C1465.1 441.8 1453.4 431.6 1441.3 439.2C1438.6 440.9 1436 443.2 1432.9 444.2C1428.2 445.7 1424.3 442.8 1420.3 440.7C1414.8 437.9 1408.9 436.5 1402.7 437.2C1396.2 437.9 1391.5 441.1 1385.8 444C1376.3 448.8 1369 442.9 1360.9 438.5C1353.2 434.3 1340.7 432.5 1337.4 443.1C1336.8 444.9 1339.7 445.7 1340.2 443.9Z" fill="#161616"/>
<path d="M1390.7 431.4C1395.2 427.2 1400.1 422.7 1406 420.7C1411.5 418.8 1417 419.9 1422.3 421.8C1430.7 424.9 1439 430.3 1448.4 428.9C1457 427.6 1465.8 418.2 1474.7 420.7C1479.3 422 1482.1 425.7 1487.2 426.2C1492.5 426.7 1497.7 425 1502.6 423.3C1504.4 422.7 1503.6 419.8 1501.8 420.4C1495.5 422.6 1488.4 425.1 1482.1 421.5C1478.3 419.3 1475.4 417 1470.7 417.5C1460.4 418.5 1452.9 427.7 1441.9 426C1432.4 424.5 1424.4 417.9 1414.7 416.9C1404.1 415.8 1395.9 422.7 1388.6 429.4C1387.2 430.6 1389.3 432.7 1390.7 431.4Z" fill="#161616"/>
<path d="M419.9 126.2C422.1 118.2 432.5 119.5 438.4 122C444.3 124.6 449.9 128.4 456.6 128.5C469.2 128.8 479 115.7 491.6 117.9C497.5 118.9 502.3 123.3 508.3 124C515 124.8 518.9 119.9 524 116.5C530 112.5 537.5 111 544.7 111.8C548.4 112.2 552 113.3 555.2 115C558.2 116.5 560.7 118.9 563.8 120.3C569.9 123 573.9 119.3 578.8 116.1C588.4 109.9 598.8 117.9 606 124.2C607.4 125.5 609.6 123.4 608.1 122.1C602.7 117.3 596.5 112.4 589.2 111.1C582 109.8 578.2 113.6 572.4 116.9C567.2 119.9 563.5 116.6 559.2 113.9C556.4 112.1 553.4 110.8 550.2 109.9C544.1 108.2 537.5 108.2 531.4 109.9C528.2 110.8 525.2 112.1 522.4 113.9C519 116.1 516 119.8 511.9 120.8C504.6 122.6 497.8 115.4 490.6 114.7C476.1 113.4 465.5 129.4 450.7 124.3C443.4 121.8 437 116.4 428.8 116.9C423.4 117.2 418.4 119.8 417 125.3C416.5 127.3 419.3 128.1 419.9 126.2Z" fill="#161616"/>
<path d="M559.5 97.3001C564.7 92.8001 571.6 91.0001 578.3 92.5001C584.1 93.8001 587.5 98.0001 592.5 100.7C600.4 104.9 607.1 99.7001 613.5 95.3001C618.2 92.1001 622.9 89.7001 628.4 92.3001C632.9 94.4001 636.5 97.1001 641.7 96.9001C653.2 96.5001 665.4 82.2001 676.7 90.1001C678.3 91.2001 679.8 88.6001 678.2 87.5001C667.5 80.0001 656.3 90.2001 646.1 93.1001C641.6 94.4001 638 93.9001 633.8 91.8001C631.3 90.5001 629.1 89.0001 626.3 88.4001C622.3 87.5001 618.5 88.8001 615 90.8001C610.8 93.2001 607.1 96.9001 602.5 98.6001C595.2 101.3 591 95.1001 585.4 92.0001C576.4 86.9001 565.1 88.6001 557.5 95.2001C555.9 96.4001 558 98.5001 559.5 97.3001Z" fill="#161616"/>
<path d="M724.6 444.3C733.271 444.3 740.3 437.271 740.3 428.6C740.3 419.929 733.271 412.9 724.6 412.9C715.929 412.9 708.9 419.929 708.9 428.6C708.9 437.271 715.929 444.3 724.6 444.3Z" stroke="#161616" stroke-miterlimit="10"/>
<path d="M227.5 708.7C234.569 708.7 240.3 702.969 240.3 695.9C240.3 688.831 234.569 683.1 227.5 683.1C220.431 683.1 214.7 688.831 214.7 695.9C214.7 702.969 220.431 708.7 227.5 708.7Z" stroke="#161616" stroke-miterlimit="10"/>
<path d="M970.6 82.5001C976.509 82.5001 981.3 77.7095 981.3 71.8001C981.3 65.8907 976.509 61.1001 970.6 61.1001C964.69 61.1001 959.9 65.8907 959.9 71.8001C959.9 77.7095 964.69 82.5001 970.6 82.5001Z" stroke="#161616" stroke-miterlimit="10"/>
<path d="M457.7 228.8C461.124 228.8 463.9 226.024 463.9 222.6C463.9 219.176 461.124 216.4 457.7 216.4C454.276 216.4 451.5 219.176 451.5 222.6C451.5 226.024 454.276 228.8 457.7 228.8Z" fill="#5222D0"/>
<path d="M725.4 609.6C732.911 609.6 739 603.511 739 596C739 588.489 732.911 582.4 725.4 582.4C717.889 582.4 711.8 588.489 711.8 596C711.8 603.511 717.889 609.6 725.4 609.6Z" fill="#5222D0"/>
<path d="M1320.4 171.4C1326.2 171.4 1330.9 166.699 1330.9 160.9C1330.9 155.101 1326.2 150.4 1320.4 150.4C1314.6 150.4 1309.9 155.101 1309.9 160.9C1309.9 166.699 1314.6 171.4 1320.4 171.4Z" fill="#5222D0"/>
<path d="M253.4 695.1C258.039 695.1 261.8 691.339 261.8 686.7C261.8 682.061 258.039 678.3 253.4 678.3C248.761 678.3 245 682.061 245 686.7C245 691.339 248.761 695.1 253.4 695.1Z" fill="#5222D0"/>
<path d="M957.2 557.4C959.685 557.4 961.7 555.385 961.7 552.9C961.7 550.415 959.685 548.4 957.2 548.4C954.715 548.4 952.7 550.415 952.7 552.9C952.7 555.385 954.715 557.4 957.2 557.4Z" fill="#5222D0"/>
<path d="M806.4 343.4C812.254 343.4 817 338.654 817 332.8C817 326.946 812.254 322.2 806.4 322.2C800.546 322.2 795.8 326.946 795.8 332.8C795.8 338.654 800.546 343.4 806.4 343.4Z" fill="#EC615B"/>
<path d="M869.3 143.5C873.829 143.5 877.5 139.829 877.5 135.3C877.5 130.771 873.829 127.1 869.3 127.1C864.771 127.1 861.1 130.771 861.1 135.3C861.1 139.829 864.771 143.5 869.3 143.5Z" fill="#EC615B"/>
<path d="M849.4 246.7C852.2 243.7 856.2 242.9 859.8 244.9C861.7 245.9 863.2 247.5 865.3 248.2C868.5 249.3 871.6 248.1 874.5 246.6C880.1 243.7 883.8 240.9 890 244.4C893.3 246.3 896.7 248.2 900.6 246.8C905.8 244.9 908.6 240.7 914.6 240.2C918 239.9 921.4 240.6 924.4 242.2C926.3 243.2 928 244.7 930.1 245.3C933.6 246.4 935.9 244.9 938.6 242.8C944.3 238.4 951.2 237.6 957.5 241.3C959.2 242.3 960.7 239.7 959 238.7C954.9 236.3 950.4 235.3 945.7 236.1C943.3 236.5 940.9 237.4 938.8 238.8C935.7 240.8 934 243.8 929.4 241.8C924.7 239.7 921.4 237.2 916 237.2C910.3 237.2 906.5 239.6 901.9 242.6C895.2 246.9 891.6 240.1 885.3 239.5C881.1 239.1 877.6 241.5 874.1 243.5C870.7 245.4 867.8 246.4 864.2 244.4C862.1 243.2 860.4 241.6 858 241.1C854 240.3 850.1 241.8 847.3 244.7C845.9 245.9 848 248.1 849.4 246.7Z" fill="#EC615B"/>
<path d="M903.6 229.4C907.2 226.7 911.6 225.4 916.1 226.5C919.1 227.2 921.2 229.3 924.1 230.4C929.1 232.2 932.7 229.1 936.8 226.6C941.1 224 943.5 224.5 947.8 226.8C950.3 228.2 952.5 228.9 955.5 228.7C961.1 228.3 972 221.2 975.5 229C976.3 230.8 978.9 229.2 978.1 227.5C975.9 222.7 970.2 221.9 965.5 222.9C959.7 224.2 955.3 227.3 949.3 224.2C946.4 222.7 944.1 220.9 940.7 221.6C937.9 222.1 935.6 223.9 933.3 225.4C931.7 226.4 930 227.8 928.1 227.9C925.3 228.1 923.2 226.2 920.8 225C914.8 222 907.6 222.9 902.3 226.8C900.6 228 902.1 230.6 903.6 229.4Z" fill="#EC615B"/>
<path d="M221.4 297.5C227.9 293.4 235.3 295.2 241.8 298.5C246.5 300.9 250.8 305.5 255.9 306.8C266.4 309.5 268 294.3 276.6 291.7C286.6 288.7 293.7 301.8 303.1 294.8C308.4 290.9 312.7 288.5 319.5 288.9C325.8 289.3 331.8 291.4 337.6 293.6C339.4 294.3 340.2 291.4 338.4 290.7C328.9 287.1 317.3 283.3 307.5 288C305 289.2 303.3 291 301.1 292.5C297 295.3 294.2 293.7 290.3 291.5C286.1 289.1 282 287.5 277.1 288.5C272.7 289.4 269.2 292 266.7 295.6C265.2 297.7 264.1 300.4 262.2 302.3C258 306.2 253.8 302.6 250.2 300.1C241.4 294.1 229.8 288.6 219.7 294.9C218.3 296 219.8 298.6 221.4 297.5Z" fill="#EC615B"/>
<path d="M238.3 986.1C245.3 994.9 256.9 1008.5 272.8 1023.2C310.3 1058.1 359.8 1088.2 553 1147.6C570.2 1152.9 593.8 1160 622.1 1168.2C639.9 1155.2 667.8 1135.5 703.3 1113.7C759.6 1079.1 783.7 1070.4 815.3 1049.8C846.4 1029.5 888.7 995 929.4 934.4C862.3 920.1 789.7 900.8 713.2 874.7C676 862 640.6 848.6 607.1 834.9C484.2 885.3 361.3 935.7 238.3 986.1Z" fill="white" stroke="black" stroke-width="3" stroke-miterlimit="10"/>
<path d="M552.4 1025.5C557.9 1015.8 566.1 1008.5 576.3 1003.9C578.1 1003.1 576.5 1000.5 574.8 1001.3C564.2 1006 555.6 1013.8 549.8 1023.9C548.8 1025.7 551.4 1027.2 552.4 1025.5Z" fill="black"/>
<path d="M550.8 1026.4C554.2 1030.3 559.4 1028.9 562.8 1025.8C565.7 1023.2 567.9 1019.8 570.5 1017C573.6 1013.7 577 1010.7 580.6 1007.8C582.1 1006.6 580 1004.5 578.5 1005.7C574.5 1008.9 570.7 1012.3 567.3 1016.1C564.3 1019.4 557.9 1029.7 553 1024.2C551.6 1022.8 549.5 1025 550.8 1026.4Z" fill="black"/>
<path d="M575.9 1003.7C577.1 1004.7 578.4 1005.8 579.6 1006.8C580.2 1007.3 581.1 1007.4 581.7 1006.8C582.2 1006.3 582.3 1005.2 581.7 1004.7C580.5 1003.7 579.2 1002.6 578 1001.6C577.4 1001.1 576.5 1001 575.9 1001.6C575.4 1002.1 575.3 1003.2 575.9 1003.7Z" fill="black"/>
<path d="M554.5 1015.8C552.8 1014.1 552.8 1012.6 554.5 1011.4C555.3 1010.6 556.2 1009.9 557.1 1009.3C558.3 1008.4 559.5 1007.5 560.6 1006.6C562.4 1005.3 568.2 999.9 569.6 1004C570.2 1005.8 573.1 1005 572.5 1003.2C569.6 994.9 560.4 1003.1 556.7 1005.9C554.1 1007.9 550.2 1010.1 549.9 1013.8C549.7 1016.3 551.2 1018.4 553.6 1018.9C555.6 1019 556.4 1016.1 554.5 1015.8Z" fill="black"/>
<path d="M560.8 1027.9C567.4 1034 570.2 1042.6 575.5 1049.6C579.8 1055.3 585.6 1059.8 592.2 1062.6C606.9 1068.9 623.7 1065.6 635.6 1055C637 1053.7 634.9 1051.6 633.5 1052.9C621.3 1063.7 603.6 1066 589.4 1057.8C582.9 1054.1 578.2 1048.7 574.4 1042.2C571 1036.3 568.1 1030.3 563 1025.7C561.5 1024.5 559.4 1026.6 560.8 1027.9Z" fill="black"/>
<path d="M579.3 1010.2C586.6 1010.4 593.9 1010.6 601.2 1010.8C608.9 1011 616.4 1011.7 623 1016.1C634.6 1023.9 643.7 1040.4 633.5 1053C632.3 1054.5 634.4 1056.6 635.6 1055.1C645.3 1043.2 640.2 1027.4 629.9 1017.7C616.2 1005 596.7 1007.6 579.4 1007.2C577.3 1007.2 577.4 1010.2 579.3 1010.2Z" fill="black"/>
<path d="M569.4 1017.6C576.2 1021.2 582.9 1025 589.3 1029.2C596.2 1033.7 598.4 1042 601.6 1049.2C602.4 1051 605 1049.4 604.2 1047.7C601.4 1041.5 599.3 1033 593.7 1028.6C586.9 1023.2 578.6 1019 570.9 1015C569.2 1014.1 567.7 1016.7 569.4 1017.6Z" fill="black"/>
<path d="M594.6 1030.9C601.5 1030.2 608.4 1029.5 615.3 1028.8C617.2 1028.6 617.2 1025.6 615.3 1025.8C608.4 1026.5 601.5 1027.2 594.6 1027.9C592.7 1028.1 592.7 1031.1 594.6 1030.9Z" fill="black"/>
<path d="M594.9 1032.4C600.6 1034.1 606.1 1036.4 611.3 1039.2C613 1040.1 614.5 1037.5 612.8 1036.6C607.4 1033.6 601.7 1031.2 595.7 1029.5C593.9 1029 593.1 1031.9 594.9 1032.4Z" fill="black"/>
<path d="M409.6 997.7C417.2 1002.5 428.7 1008.8 443.7 1012.8C458.6 1016.8 492.2 1025.7 516.8 1006.4C536.1 991.3 540 966.4 539 965.9C538.2 965.5 534.2 981.8 519.9 990.5C506.2 998.9 492.3 994.5 472.3 992.9C457.4 991.7 436.1 991.7 409.6 997.7Z" fill="#EC615B"/>
<path d="M765 981.2C773.6 974.8 782.1 968.4 790.7 961.9C792.2 960.8 790.7 958.1 789.2 959.3C780.6 965.7 772.1 972.1 763.5 978.6C761.9 979.7 763.4 982.3 765 981.2Z" fill="black"/>
<path d="M770.5 1004.1C794.5 984.4 818.6 964.6 842.6 944.9C844.1 943.7 842 941.6 840.5 942.8C816.5 962.5 792.4 982.3 768.4 1002C766.9 1003.2 769.1 1005.3 770.5 1004.1Z" fill="black"/>
<path d="M820.1 987.4C827.3 979.7 835 972.7 843.4 966.3C844.9 965.1 843.4 962.5 841.9 963.7C833.3 970.2 825.4 977.4 818 985.3C816.6 986.7 818.7 988.8 820.1 987.4Z" fill="black"/>
<path d="M624.4 951.8C654 934.4 682.6 915.4 709.9 894.8C711.4 893.7 709.9 891 708.4 892.2C681 912.8 652.4 931.9 622.9 949.2C621.2 950.2 622.7 952.8 624.4 951.8Z" fill="black"/>
<path d="M611 943C623 936.6 634 928.5 643.6 918.8C645 917.4 642.8 915.3 641.5 916.7C632 926.2 621.3 934.1 609.5 940.4C607.8 941.3 609.3 943.9 611 943Z" fill="black"/>
<path d="M577.6 930.2C597.6 914.3 618.1 899 639 884.3C640.6 883.2 639.1 880.6 637.5 881.7C616.4 896.5 595.7 912 575.5 928.1C573.9 929.3 576.1 931.4 577.6 930.2Z" fill="black"/>
<path d="M401.7 691.4C373.2 699.5 348.7 709 328.7 717.9C303.6 729.1 267.1 745.6 227.8 777.6C211.8 790.6 199.9 804.7 176.2 832.8C167.3 843.3 158.2 854.7 157.4 870.8C157.2 875.1 156.6 887.7 164.6 897.1C178 912.8 205.5 907.9 219 905.6C233.3 903.1 243.5 898.4 247.8 896.5C307.9 869.3 297.5 879.1 347.7 854.3C387.1 834.9 406.8 825.1 416.9 815.1C426.3 805.7 464.7 767.5 451.3 730.6C441.2 703.2 408.7 693.4 401.7 691.4Z" fill="white"/>
<path opacity="0.22" d="M427.4 701.1C421.6 707.8 412 718.3 399 730C334.9 787.6 285.2 786 238 830.9C223.1 845 203.4 868.7 188.7 907.9C195.6 908 206.3 907.7 219.1 905.6C245.7 901.2 264.2 891.6 274.3 886.5C344.4 851.3 360.5 857.3 403.4 825.3C423.1 810.6 433.1 803 439.6 788.2C455.4 752.1 433.8 712.2 427.4 701.1Z" fill="#969696"/>
<path d="M401.3 690C361.9 703.3 322.3 716.7 285.6 736.5C252 754.6 221.6 778.2 196 806.5C183.4 820.4 170.4 835.6 162.1 852.6C155.3 866.4 150.5 886.4 163.6 898.1C176.9 910 196.9 911.1 213.7 908.3C234.6 904.7 255 895.8 274.7 888.1C319.2 870.6 362.5 850.1 404.2 826.7C405.9 825.8 404.4 823.2 402.7 824.1C367.8 843.6 331.8 861.2 294.8 876.7C276.3 884.5 257.5 891.8 238.5 898.4C219.8 904.9 199.2 910.3 179.7 903.8C131.8 887.9 176.8 832.6 195.8 811.2C219.9 784.1 248.3 761.1 279.8 743.2C318.3 721.4 360.3 707.1 402.1 693C403.9 692.3 403.1 689.4 401.3 690Z" fill="black"/>
<path d="M454.6 842.7C457.4 840 461.8 836.1 467.9 832.5C476.8 827.2 481.4 827.1 499 821.1C514.1 815.9 520.4 812.6 525.8 809C530.3 806 538.8 800.3 537.7 797.1C536.4 793.3 521.9 795.1 505.9 797.1C492.6 798.7 492.1 799.7 480.6 800.9C463.6 802.6 462.4 800.6 456.2 803.1C445.4 807.4 432.8 819.7 436.2 830.3C439.2 839.7 453.3 842.4 454.6 842.7Z" fill="black"/>
<path d="M416.9 695.6C408.8 699.8 401.9 704.9 401.9 704.9C389.5 714 381.4 723.9 376.6 730.6C377.3 734.7 377.9 738.9 378.6 743C354.6 754.6 335.4 765.2 322.3 772.7C286 793.5 264.9 810.1 222.7 843.3C209 854 194 866.3 188.8 886.6C187.5 891.8 184.5 903.9 190 917C196.3 932.1 209.5 938.6 213.5 940.4C222.2 944.3 230.5 944.6 243.8 943.3C272.9 940.5 295.2 932.9 303.6 930C333.2 919.5 354.7 908.9 359.9 906.3C384.1 894.2 417 876 454.8 849.5C455 848.4 456.2 842.1 452.1 836.5C448.6 831.7 442.5 829.2 436.4 830.1C442.8 826.9 451.7 821.8 460.9 813.8C478.1 798.8 486.3 782.5 491.5 771.9C494.5 765.8 502.9 747.6 506.2 722.1C508.2 706.3 507.6 693 506.5 683.4C502.8 683.3 446.5 680.3 416.9 695.6Z" fill="white"/>
<path opacity="0.21" d="M484.9 702.5C474.1 730 461 748.3 452.6 758.6C401.9 821.1 328.7 833.9 243.6 905.3C233.7 913.6 223.6 922.7 225.7 926.8C230.6 936.5 301.3 910.3 338.8 894.6C388.5 873.8 426.9 851.6 452 835.7C447.7 832.9 443.3 830.1 439 827.4C445.8 824.2 455.5 818.8 465.1 809.9C477.8 798.2 484 786.5 489.8 775.1C496.6 761.8 506 743.2 506.5 717.9C506.7 707.3 505.3 698.6 504.1 692.9C497.8 696 491.4 699.2 484.9 702.5Z" fill="#9E9E9E"/>
<path d="M506.5 695C506.1 740.7 490.8 787.2 454.8 817.2C436.2 832.6 412.8 840.7 390.9 850.1C367.2 860.3 343.5 870.4 319.8 880.6C293.1 892.1 266.3 903.5 239.6 915C237.8 915.8 239.4 918.3 241.1 917.6C290.3 896.5 339.5 875.4 388.7 854.3C411.1 844.7 435.1 836.6 454.4 821.4C470.7 808.5 483.7 791.6 492.7 772.9C504.3 748.7 509.3 721.9 509.5 695.1C509.5 693.1 506.5 693.1 506.5 695Z" fill="black"/>
<path d="M375.1 730.7C375.1 735.2 375.7 739.3 377.1 743.5C377.3 742.9 377.6 742.4 377.8 741.8C342.2 759.3 307.2 778.3 274.4 800.8C258.6 811.6 243.3 823.3 228.8 835.8C215.2 847.6 200.4 860.3 191.6 876.3C184.2 889.7 182.5 905.1 189.1 919.2C195.9 933.8 209.5 943.1 225.3 945C244.1 947.3 264.3 942.5 282.4 937.9C300.9 933.2 318.9 926.7 336.4 919C377.6 901.1 415.7 877 453.5 853.1C455.1 852.1 453.6 849.5 452 850.5C390.2 889.7 325.5 930.5 251.6 941C232.8 943.7 212.5 943.7 198.8 928.6C186.7 915.2 184.8 896.7 192.6 880.6C200.2 865 214.1 852.8 226.9 841.4C241 828.8 256 817.2 271.5 806.4C305.5 782.6 342 762.7 379.2 744.4C379.8 744.1 380.1 743.3 379.9 742.7C378.6 738.7 378 734.8 378 730.7C378.1 728.8 375.1 728.8 375.1 730.7Z" fill="black"/>
<path d="M439.3 831C449 831.2 455.6 839.9 453.2 849.2C452.7 851.1 455.6 851.9 456.1 850C459 838.7 451 828.2 439.3 828C437.4 828 437.4 831 439.3 831Z" fill="black"/>
<path d="M456.6 842.3C462.5 838 467.6 833.9 474.6 831.6C481.6 829.3 488.6 826.8 495.5 824C508.8 818.7 521.9 812.7 534.6 806.1C536.3 805.2 534.8 802.6 533.1 803.5C519.5 810.6 505.6 817 491.3 822.5C484.4 825.1 477.4 827.3 470.5 829.8C464.7 831.9 460 836.1 455.1 839.7C453.6 840.8 455.1 843.4 456.6 842.3Z" fill="black"/>
<path d="M474 801.5C484.8 803.4 495.2 801.1 505.7 798.6C511.7 797.2 517.7 795.7 523.8 795.2C526.6 795 530 794.5 532.7 795.2C540 797.1 534.4 803 530.7 805.5C529.1 806.6 530.6 809.2 532.2 808.1C536.2 805.4 541.4 801 538.7 795.5C536.4 790.9 528.8 791.8 524.6 792.1C507.8 793.3 491.8 801.6 474.8 798.6C472.9 798.3 472.1 801.2 474 801.5Z" fill="black"/>
<path d="M546.8 477.1C544.4 479.5 541 483.3 538 488.6C533.7 496.1 531.1 505.3 532.7 535.9C533.9 558.5 536.6 576.3 538.7 588.5C540.5 598.7 542.3 607 543.6 612.8C555.5 664.8 577.9 726.5 586.2 748.9C592.4 765.7 601 788.4 611.9 815.3C607.1 819.5 600.6 826 595 835.5C592 840.5 587.6 848 589.5 850C591.1 851.6 597.2 849.9 617.6 835.4C629.3 840 638.3 844.7 644.4 848.3C653.2 853.4 660.7 858.7 672.5 860.3C675.8 860.8 678.6 860.8 680.5 860.8C678.7 857.2 675.5 851.7 669.9 846.4C663.2 840.1 655.6 837.7 655.8 837.2C656 836.8 662.2 839.6 670.6 842.2C678 844.5 686.1 845 702.4 846C704.7 846.1 708.1 846.3 709.6 844.3C711.3 841.9 709.4 837.8 708.7 836.1C703.7 825.3 685.5 818.6 678.9 816.3C681.5 817.5 688.1 819.9 696.5 818.6C704.2 817.4 709.5 813.7 711.7 811.8C707.3 810.9 702.7 810 698 809.3C674.6 805.6 653 805.2 633.8 806.6C630.9 799.2 626.8 787.3 623.5 772.2C619.9 756 620.7 751.8 616.7 727.9C613.5 708.7 611.5 697.4 606.6 683.2C602 670.1 596.8 659.9 592.8 653C578.2 588.1 572.5 558.4 570.4 544C568.9 533.6 567 526.3 563.3 511.6C561.7 505.3 560 499.2 556.3 491.8C553.1 485.3 549.5 480.4 546.8 477.1Z" fill="#E8BEAC"/>
<path opacity="0.11" d="M546.8 477.1C550.2 477.3 551 495.4 553.1 518.3C553.1 518.3 556 550 570 626.8C584.7 707.7 616.1 792.6 627.2 821.6C644.1 834.6 661.1 847.7 678 860.7C673.8 860.8 667.1 860.6 659.5 858.1C652.4 855.8 648.6 852.8 637.8 846.5C633.6 844 627.1 840.4 618.9 836.2C601.6 847.8 591.8 852.4 589.5 850C586.9 847.2 594.5 834.9 612.4 813.2C609.4 806.8 605.3 797.7 600.6 786.7C592.4 767.7 572.4 719.3 550.5 638.5C532.5 572.1 532 552.7 532.8 537.5C534.4 508.3 542.2 476.7 546.8 477.1Z" fill="#686868"/>
<path d="M545.7 478.1C551.5 482.8 554.4 489.7 557 496.5C559.6 503.4 561.6 510.5 563.4 517.7C567.1 532.9 569.9 548.3 573.1 563.6C579.5 594.8 585.9 625.9 592.3 657.1C592.7 659 595.6 658.2 595.2 656.3C588.5 623.9 581.8 591.4 575.2 559C572 543.5 569.2 527.8 565.2 512.5C562 500.3 558.3 484.3 547.9 476.1C546.4 474.8 544.2 476.9 545.7 478.1Z" fill="black"/>
<path d="M536.9 591.9C555.2 667.9 579.9 742.2 610.7 814.1C611.5 815.9 614 814.3 613.3 812.6C582.6 741 558 666.9 539.8 591.1C539.3 589.3 536.5 590.1 536.9 591.9Z" fill="black"/>
<path d="M592.9 655.5C619.1 701.4 614.8 756.7 631 805.9C631.6 807.7 634.5 806.9 633.9 805.1C617.6 755.6 621.9 700.2 595.5 654C594.5 652.3 591.9 653.8 592.9 655.5Z" fill="black"/>
<path d="M610.9 814.2C605.2 821 599.2 827.7 593.7 834.8C590.9 838.4 586.5 843.8 587.5 848.8C588.5 853.5 592.2 852.2 595.2 850.4C602.9 845.9 610.6 841.2 618.3 836.6C620 835.6 618.5 833 616.8 834C612.1 836.8 607.4 839.6 602.8 842.4C600.3 843.9 597.8 845.3 595.4 846.8C594.9 847.1 592.6 848.9 592.1 848.8C591.6 847.9 591.1 846.9 590.7 846C591.1 844.9 591.6 843.8 592.1 842.7C594.5 838.1 598.2 834.2 601.5 830.2C605.4 825.6 609.2 821 613.1 816.4C614.3 814.8 612.1 812.7 610.9 814.2Z" fill="black"/>
<path d="M633.3 807.4C646.6 807.8 659.9 808.3 673.1 809C679.6 809.4 686 809.8 692.5 810.2C698.9 810.7 705.3 810.9 711.4 813.2C713.2 813.9 714 811 712.2 810.3C706.8 808.2 701.2 807.8 695.5 807.4C688.7 806.9 681.9 806.5 675.1 806.1C661.2 805.3 647.3 804.7 633.3 804.4C631.4 804.4 631.4 807.4 633.3 807.4Z" fill="black"/>
<path d="M618.5 837.6C640.2 843.6 657 862.9 680.6 862.2C681.6 862.2 682.3 861.3 682 860.3C678.7 847.4 665.1 842.8 656.8 833.8C655.5 832.4 653.4 834.5 654.7 835.9C662.6 844.4 676 848.9 679.1 861.1C679.6 860.5 680.1 859.8 680.5 859.2C657.4 859.9 640.5 840.6 619.2 834.7C617.4 834.2 616.6 837.1 618.5 837.6Z" fill="black"/>
<path d="M655.4 836.6C666 841 677.1 844.3 688.4 846.2C693.3 847 698.4 847.7 703.4 847.3C706.3 847.1 710 846.8 711.7 844C715.5 837.7 706.4 831.6 702.4 828.5C694.1 822.2 684.8 817.5 674.9 814.4C673.1 813.8 672.3 816.7 674.1 817.3C681.6 819.7 688.7 822.9 695.3 827.2C698.5 829.3 701.6 831.6 704.6 834.1C705.9 835.3 707.7 836.6 708.6 838.2C711.1 842.6 707 844.1 703.5 844.3C687.9 845.6 670.5 839.5 656.2 833.6C654.4 833 653.7 835.9 655.4 836.6Z" fill="black"/>
<path d="M674.4 817.7C685.9 819.1 702.4 824.2 711.6 814.6C712.9 813.2 710.8 811.1 709.5 812.5C704.9 817.3 698.6 817.4 692.4 816.8C686.4 816.2 680.4 815.4 674.4 814.7C672.5 814.5 672.5 817.5 674.4 817.7Z" fill="black"/>
<path d="M661.9 826.2C668.8 829.7 676.3 831.4 683.8 833.3C692.6 835.5 700.7 838.5 708.1 843.7C709.7 844.8 711.2 842.2 709.6 841.1C702.9 836.4 695.7 833.3 687.8 831.2C679.5 829 671.1 827.5 663.4 823.6C661.7 822.7 660.2 825.3 661.9 826.2Z" fill="black"/>
<path d="M482.107 461.5L482.113 461.5C494.132 461.35 506.884 461.204 518.386 463.272C529.878 465.338 539.981 469.59 546.819 478.124C549.374 481.343 551.083 485.811 552.535 492.512C553.987 499.212 555.156 508.014 556.709 519.83L556.709 519.832C559.914 543.972 561.377 555.781 558.027 569.869C556.016 578.257 553.735 581.767 550.515 586.418C550.371 586.626 550.226 586.836 550.078 587.049C546.864 591.681 542.77 597.583 537.285 609.996C533.058 619.558 531.193 625.809 529.025 633.491C528.864 634.064 528.7 634.644 528.534 635.235C526.478 642.546 523.989 651.394 518.958 665.565C514.262 678.773 510.047 689.291 507.16 695.992C501.322 697.916 495.008 699.556 488.217 700.817L488.215 700.817C452.191 707.59 420.805 699.816 400.572 692.332C407.926 619.096 415.279 545.858 422.533 472.523C447.344 463.458 468.303 461.599 482.107 461.5Z" fill="#EC615B" stroke="black" stroke-width="2"/>
<path d="M428.3 470.4C424 472.2 417.8 475.4 411.7 481.1C406.6 485.8 402.7 491 399 497.9C390 514.5 387.5 530.6 386.5 536.9C379.7 581.4 377.7 599.5 377.7 599.5C373.5 638.3 372.1 653.5 372.5 673.8C372.7 685.6 373.5 694.5 375.9 704.9C378.8 717.2 383.1 726.7 391.2 741.8C402.8 763.7 412.7 779.1 419.4 789.8C427.4 802.5 438.7 821 451.9 844.1C454.3 850.8 456.9 857.8 459.6 865.2C478.5 916.5 469 885.8 471.5 893.3C472.4 896.1 474.3 902.2 479.9 905.6C481.3 906.5 483.5 907.8 484.8 907.2C487.4 905.9 487 896.2 475.3 861.4C475 860.4 480.2 874.5 492.6 885.6C496.9 889.4 501.1 892 504.3 893.6C506 901.5 507.6 909.7 509.1 918.2C511 929.1 512.6 939.7 513.9 949.9C513.1 952.6 512.1 956.8 512.4 962C512.6 965.1 512.8 969.2 515.3 973.7C516.6 976 519.8 981.8 524.8 982.3C527.5 982.6 529.8 981 534.4 978C540.5 974 541.7 971.5 544.7 971.6C546.3 971.6 548.6 972.4 551.3 976C551.2 969.1 549.3 966.7 547.6 965.6C544.8 963.9 542.3 966.1 535.8 965.2C533.3 964.9 529.2 964.3 526.5 961.6C522.6 957.7 523.5 951.1 523.6 949.4C524.4 941 521.3 919 508.9 868.8C509.9 872.3 513.3 874.5 516.7 874C520.3 873.5 523.1 870.2 522.8 866.4C516.5 860.5 510.2 854.6 503.8 848.7C503 842.7 502.2 836.6 501.3 830.4C498.1 808.9 494.1 788.4 489.7 768.9C487 769.7 484.3 770.5 481.6 771.2C483.4 784.1 485.2 797 487 809.9C480.3 809.1 473.6 808.2 466.9 807.4C464.2 802.8 460.8 796.6 457.2 789.1C454.4 783.3 448.7 771.4 443.6 756.1C437.1 736.4 433.2 724.8 432.9 709.2C432.7 702.3 433.2 692.4 428.2 680.5C426.3 676.1 424.3 672.7 422.8 670.5C425 657.4 426.9 646.2 428.3 637.2C437.8 577.3 432.9 594.3 440.6 537.5C442 526.9 443.4 517.6 441.4 505C439.2 489.9 433 477.9 428.3 470.4Z" fill="#E8BEAC"/>
<path opacity="0.17" d="M421.6 471.8C417.7 479.8 412.5 491.7 408 506.7C399.8 534.2 398.8 556.6 398.4 572.4C396.6 638.7 395.6 671.9 402 701.3C418.5 777.4 459.1 828.6 475.5 848.9C489.3 865.9 502.3 878.9 511.9 887.9C510.6 889.9 508 893.2 504.3 893.6C500.1 894 496.7 890.2 492.6 885.6C487.7 880 481.5 872.5 474.5 863.4C477.2 870.5 480.7 880.4 483.4 892.8C486.3 906 485.2 907 484.8 907.2C482.2 908.4 473.4 894.5 469.2 887.1C463.6 877.4 456.8 863.2 452 844C438.6 820.6 427.2 802 419.5 789.7C397.2 753.9 389.5 744.6 382.1 723C379.6 715.5 374.1 697.9 372.5 674.8C371.9 665.5 372.2 660.1 376.1 619.4C380 578.9 381.3 567.3 383.8 551.4C388.7 520.2 392.2 510.8 396.7 502.3C404.5 487.7 414.5 477.8 421.6 471.8Z" fill="#8E8E8E"/>
<path d="M427.9 468.9C406 477.6 394.4 499 388.6 520.7C381.5 547.1 378.5 574.9 375.9 602.1C373.2 630.1 369.1 659 371.6 687.1C374 714.2 386.4 737 400 760C416.7 788.2 433.4 816.3 450 844.5C451 846.2 453.6 844.7 452.6 843C438.6 819.3 424.6 795.7 410.6 772C397.2 749.4 381.8 726.8 376.5 700.7C371.3 674.7 374.9 647.6 377.1 621.4C379.4 593.9 382.2 566.3 387.4 539.1C392.5 513 401.4 482.6 428.6 471.8C430.5 471.1 429.7 468.2 427.9 468.9Z" fill="black"/>
<path d="M428.3 473.1C447.7 498.2 439.9 533.9 436.3 562.8C431.8 599.1 427.3 635.3 422.8 671.6C422.6 673.5 425.6 673.5 425.8 671.6C430.5 633.4 435.3 595.1 440 556.9C443.5 528.5 449.3 495.4 430.4 471C429.2 469.5 427.1 471.6 428.3 473.1Z" fill="black"/>
<path d="M415.3 666C425.6 673.2 428 686.4 429.9 697.9C432.1 710.8 434.3 723.6 437.2 736.3C442.9 761.4 451 786 464.7 808C465.7 809.6 468.3 808.1 467.3 806.5C452.5 782.8 444.3 755.9 438.6 728.7C435.9 715.8 434.2 702.8 431.5 689.9C429.4 679.7 425.7 669.6 416.8 663.4C415.2 662.3 413.7 664.9 415.3 666Z" fill="black"/>
<path d="M467.4 809.8C473.7 809.8 479.9 809.9 485.9 811.9C487.7 812.5 488.5 809.6 486.7 809C480.4 806.9 473.9 806.8 467.4 806.8C465.5 806.8 465.5 809.8 467.4 809.8Z" fill="black"/>
<path d="M487.9 825.5C487.5 833.9 493.2 840.1 498.7 845.7C506.1 853.3 513.9 860.6 521.9 867.6C523.3 868.9 525.5 866.8 524 865.5C517.4 859.7 511 853.8 504.8 847.6C498.8 841.6 490.4 834.8 490.9 825.5C491 823.6 488 823.6 487.9 825.5Z" fill="black"/>
<path d="M450.5 844.4C454.4 855.5 458.3 866.6 463 877.4C465.4 882.8 467.9 888.2 470.7 893.4C473.2 898 475.8 903.8 479.5 907.5C481.1 909.1 483.3 910.2 485.4 908.6C487.9 906.6 487.1 902.7 486.5 900C484.1 887.4 480.4 875 476 862.9C475.3 861.1 472.4 861.9 473.1 863.7C476.3 872.3 479 881.1 481.2 890C481.8 892.4 482.3 894.8 482.9 897.2C483.3 898.9 485.2 904 484 905.4C481.9 907.7 475.8 896.2 475.1 894.9C465.8 878.7 459.6 861 453.4 843.5C452.8 841.8 449.9 842.6 450.5 844.4Z" fill="black"/>
<path d="M474.4 863.4C479.7 871.4 485 879.9 491.8 886.8C495.8 890.9 503.9 897.5 510.1 894.6C516.6 891.7 512.1 883.8 509.6 879.9C503.2 870 496.7 860.1 490.3 850.1C489.3 848.5 486.7 850 487.7 851.6C492 858.2 496.3 864.8 500.6 871.4C502.6 874.4 504.5 877.5 506.5 880.5C508.6 883.7 514.4 892 506.2 891.8C499.8 891.7 494.1 885 490.4 880.5C485.5 874.5 481.3 868.1 477 861.6C475.9 860.3 473.3 861.8 474.4 863.4Z" fill="black"/>
<path d="M487.9 851C494.3 859.7 502.2 867.7 511.4 873.4C514.4 875.3 518.4 876.9 521.6 874.5C523.9 872.7 524.4 870.1 523.2 867.6C522.3 865.9 519.7 867.4 520.6 869.1C518.9 872.4 517 873.3 514.9 871.8C514.2 871.5 513.6 871.2 513 870.8C511.8 870.1 510.7 869.3 509.6 868.5C507.1 866.7 504.6 864.7 502.3 862.5C497.9 858.5 494 854.1 490.5 849.4C489.3 847.9 486.7 849.4 487.9 851Z" fill="black"/>
<path d="M479.6 856C486.3 870.1 495.8 882.5 507.8 892.5C509.3 893.7 511.4 891.6 509.9 890.4C498.1 880.5 488.7 868.4 482.1 854.5C481.4 852.8 478.8 854.3 479.6 856Z" fill="black"/>
<path d="M480 774.2C482.9 792.3 485.8 810.3 488.7 828.4C489 830.3 491.9 829.5 491.6 827.6C488.7 809.5 485.8 791.5 482.9 773.4C482.6 771.5 479.7 772.4 480 774.2Z" fill="black"/>
<path d="M482.9 774.2C484.2 772.2 488 768.8 490.4 771.9C490.9 772.6 490.9 774.9 491 775.8C491.5 779.3 492.1 782.9 492.6 786.4C493.6 793.1 494.7 799.9 495.7 806.6C497.8 820.1 499.9 833.6 502 847.1C502.3 849 505.2 848.2 504.9 846.3C502 827.3 499 808.4 496.1 789.4C495.4 784.6 494.6 779.8 493.9 774.9C493.6 772.9 493.7 769.8 492 768.4C488.2 765.3 482.3 769.4 480.3 772.6C479.3 774.3 481.9 775.8 482.9 774.2Z" fill="black"/>
<path d="M508.4 871.3C513.8 898.8 518.3 926.4 522 954.2C522.3 956.1 525.3 956.1 525 954.2C521.3 926.2 516.7 898.3 511.2 870.5C510.9 868.6 508 869.4 508.4 871.3Z" fill="black"/>
<path d="M503.2 894C506.8 912.7 509.9 931.5 512.5 950.4C512.8 952.3 515.7 951.5 515.4 949.6C512.8 930.7 509.7 911.9 506.1 893.2C505.7 891.3 502.8 892.1 503.2 894Z" fill="black"/>
<path d="M512.9 950.4C514.6 954.6 518.7 957.4 523.3 956.9C525.2 956.7 525.2 953.7 523.3 953.9C520.2 954.3 517 952.7 515.8 949.6C515.1 947.8 512.2 948.6 512.9 950.4Z" fill="black"/>
<path d="M513.1 949.6C509.3 959.6 510.2 973.4 518.7 980.9C521.9 983.8 526 984.7 530 983C534.9 981 543.8 967.7 549.1 975.1C550.2 976.7 552.8 975.2 551.7 973.6C546.3 965.9 538.3 972.6 533.4 977C529.7 980.3 525.3 982.6 520.8 978.8C518.3 976.7 516.6 973.4 515.5 970.4C513.2 963.8 513.5 956.9 516 950.4C516.7 948.6 513.8 947.8 513.1 949.6Z" fill="black"/>
<path d="M523 954.1C523.8 959.2 526.6 964.5 531.6 966.5C538 969 552.7 963.2 550 975.6C549.6 977.5 552.5 978.3 552.9 976.4C554.1 971.1 552.1 965.5 546.4 964.2C542.3 963.2 538.2 965.1 534.1 964.2C529.1 963 526.7 958.1 525.9 953.4C525.5 951.4 522.7 952.3 523 954.1Z" fill="black"/>
<path d="M468.2 473.1C469.7 476.7 471.6 479.4 474.2 481.3C478.2 484.4 482.8 485 485.9 485C489.2 481.2 492.5 477.4 495.8 473.6C498.2 475.9 504.5 481.4 513.5 481.7C517.5 481.8 521.6 480.9 527.5 477.8C542.9 469.7 552.2 456.6 556.7 449.5C565.1 435.8 568 423.6 569.6 416.2C572.1 404.8 576.1 385.5 568.4 363.8C565.6 356 564.3 352.1 560.9 348.8C541.6 330 474.3 344 454.9 386.8C455.1 386.9 443.4 412.8 468.2 473.1Z" fill="#E8BEAC"/>
<path opacity="0.18" d="M550.4 359.3C551.9 365.4 527.4 368.6 508.1 396.1C494.5 415.6 492.4 434.5 492 438.7C490.6 453.9 493.5 466.3 495.9 473.7C491.3 470.9 486.7 468 482.2 465.2C477.7 468.3 473.3 471.3 468.8 474.4C463 467.7 449.5 450.2 447 424.3C446.2 415.7 444.1 394.5 456.2 377.1C481.4 340.9 548 349.6 550.4 359.3Z" fill="#8E8E8E"/>
<path d="M479.5 398.9C490.1 396.5 498.6 393.2 504.5 390.5C516.6 385 525 378.9 533 373.1C540.3 367.8 546.2 362.9 550.4 359.2C555.3 361.4 564.7 366.4 568.2 376.3C569.1 379 569.6 381.8 569.3 391.1C568.9 401.5 568.7 408.8 566.7 418.2C562.6 438.3 553.5 454 548 462.4C554.9 459.2 565.4 453.1 574 441.8C585.4 426.9 587.2 411.5 588.6 397.4C591 373.1 593.3 350.3 578.8 334.3C564 317.9 539.8 317.7 519.9 317.6C508.8 317.5 494.8 317.4 479.3 323.7C453.3 334.4 452.8 351.1 416.4 389.8C389.7 418.1 381.5 418.1 374.7 435.6C368 452.7 363 485.8 383.7 503.7C404.4 521.5 438.4 513.7 457.3 497.4C461.7 493.6 477 479.3 478 455.9C478.9 435 467.9 420.5 464.9 416.8C455.9 406.2 455.3 394.6 460 390.4C463.1 387.6 469.9 386.9 474.6 390.4C478.5 393.4 479.3 397.8 479.5 398.9Z" fill="#161616"/>
<path d="M477 457.1C482.2 463.1 488.1 468.5 494.5 473.2C499.8 477.1 506.9 482.6 513.7 483.4C520.6 484.2 528.8 479.5 534.4 476C540.9 472 546.6 466.8 551.4 460.9C561.5 448.1 566 432 568.6 416.1C571.5 398.5 571.9 380.5 566.8 363.3C566.3 361.5 563.4 362.2 563.9 364.1C568.6 379.9 568.6 396.4 566.2 412.5C564 427.4 560.4 442.6 551.9 455.2C544.5 466.3 531 478 517.4 480.1C510 481.2 501.9 474.7 496.2 470.6C490 466.1 484.4 460.8 479.3 455C477.8 453.5 475.7 455.6 477 457.1Z" fill="black"/>
<path d="M541.1 406.5C539.3 413.6 537.5 420.8 535.7 427.9C534.8 431.3 534 434.7 533.1 438.1C532.5 440.3 532 447 530 448.4C530.7 448.7 531.5 449 532.2 449.3C530.6 445.3 528.8 441.5 526.4 437.8C525.4 436.2 522.8 437.7 523.8 439.3C526 442.7 527.8 446.3 529.3 450.1C529.6 450.9 530.6 451.6 531.5 451C533.8 449.4 533.9 447.2 534.6 444.5C535.6 440.5 536.6 436.4 537.6 432.4C539.7 424 541.8 415.6 543.9 407.2C544.4 405.5 541.6 404.7 541.1 406.5Z" fill="black"/>
<path d="M504.5 439.7C505.6 448.5 513.3 455.3 522.3 454.8C524.2 454.7 524.2 451.7 522.3 451.8C515.1 452.2 508.4 446.9 507.5 439.7C507.2 437.8 504.2 437.8 504.5 439.7Z" fill="black"/>
<path d="M527.086 411.591C528.698 407.24 528.578 403.185 526.817 402.532C525.056 401.88 522.322 404.877 520.71 409.228C519.098 413.578 519.218 417.633 520.979 418.286C522.74 418.938 525.474 415.941 527.086 411.591Z" fill="black"/>
<path d="M555.961 416.086C557.573 411.736 557.453 407.68 555.692 407.028C553.931 406.375 551.197 409.373 549.585 413.723C547.973 418.073 548.093 422.129 549.854 422.781C551.615 423.434 554.349 420.436 555.961 416.086Z" fill="black"/>
<path d="M522 388.2C525.1 384.7 530.1 385.3 532.2 389.5C533.1 391.2 535.6 389.7 534.8 388C531.9 382.2 524.2 381.2 519.9 386.1C518.6 387.5 520.7 389.6 522 388.2Z" fill="black"/>
<path d="M551.8 391.9C554.6 389 560.7 387.1 562.5 392.3C563.1 394.1 566 393.3 565.4 391.5C562.9 384.2 554.3 385.1 549.7 389.8C548.4 391.1 550.5 393.3 551.8 391.9Z" fill="black"/>
<path d="M467.9 416.2C460.7 413.5 457.9 402.4 460.2 395.7C461.4 392.2 464.9 388.9 468.8 388.9C474.3 388.9 477.3 394.7 478.1 399.4C478.4 401.3 481.3 400.5 481 398.6C479.2 388.1 467.3 380.9 459.5 390.8C453 399.2 457.1 415.4 467.1 419.1C468.9 419.7 469.7 416.8 467.9 416.2Z" fill="black"/>
<path d="M494.8 472.6C491.5 476.4 488.2 480.2 484.9 484C483.6 485.5 485.8 487.6 487 486.1C490.3 482.3 493.6 478.5 496.9 474.7C498.2 473.3 496.1 471.2 494.8 472.6Z" fill="black"/>
<path d="M466.9 473.9C469.9 481 476.4 486.2 484 487.6C485.9 488 486.7 485.1 484.8 484.7C477.8 483.4 472.3 478.9 469.5 472.4C468.8 470.6 466.2 472.1 466.9 473.9Z" fill="black"/>
<path d="M1136.5 870C1141.6 873.1 1147.4 876.1 1153.7 879C1168.1 885.5 1181.5 889 1192.6 890.9C1194.6 894.5 1197.5 899.7 1200.9 905.9C1210.1 922.7 1217.2 936 1219.1 939.4C1234.4 968.1 1255.8 1012.5 1259 1019.2C1256.5 1020.5 1252.3 1022.1 1247.2 1021.5C1241.2 1020.8 1237.2 1017.2 1234 1014.1C1218.3 999.5 1213.7 993.4 1213.7 993.4C1203.1 979.4 1192.8 966.9 1172.1 942.1C1166.8 935.8 1162.5 930.8 1159.9 927.8C1148.7 926.8 1137.5 925.8 1126.4 924.7C1129.8 906.5 1133.2 888.2 1136.5 870Z" fill="black"/>
<path d="M1214.1 740.6C1192.5 741.4 1175.4 741.4 1168.3 741.3C1158.9 741.2 1145.4 741 1086.1 737.9C1057.8 736.4 1052.9 736.1 1039.5 735.7C1017 735 996.3 735 971.8 739.8C955.8 742.9 947.9 746.1 940.7 751.8C937.4 754.4 926.7 763.2 923.3 778.2C922.8 780.6 921.6 786.5 923.5 798.2C926.5 817.1 934.1 831.6 939.3 840.2C946.7 852.4 956.3 863.9 972.2 877.6C981.3 885.4 1002 902.3 1044.8 923.1C1065.5 933.2 1093.6 945.3 1128.4 955.9C1127.6 950.9 1126.7 943.7 1126.4 935.1C1125.7 915.4 1128.6 900.4 1131.2 886.7C1133.2 876.6 1136.3 863.3 1141.5 848C1134.4 844 1127.4 839.9 1120.3 835.9C1140.6 839.5 1158.3 841.1 1172.3 841.7C1203.1 843.2 1225.2 840.8 1251.4 837.9C1272.2 835.6 1282.8 834.4 1288.4 831C1317.6 813.2 1327.1 757.8 1307.7 739.7C1297.1 729.6 1284.6 737.9 1214.1 740.6Z" fill="white"/>
<path opacity="0.13" d="M1130.7 889.8C1118.8 884.4 1102 875.7 1083.5 862.5C1043.3 833.7 1007.6 791.8 1013.7 783.9C1017 779.7 1030.7 787.5 1052 795.4C1105.7 815.2 1152 814.6 1184.4 814.1C1214.9 813.7 1261.1 809.5 1315.2 790.4C1314 797.5 1310.6 811.2 1299.2 821.9C1291.9 828.8 1284.1 831.7 1278.8 833.4C1243.8 844.9 1202.3 843.6 1189.9 843.1C1170.9 842.3 1146.4 840.8 1118 837.7C1126.4 840.5 1134.8 843.3 1143.2 846.1C1139.1 860.6 1134.9 875.2 1130.7 889.8Z" fill="#898989"/>
<path d="M1202.4 738.8C1159 741 1115.9 738 1072.6 735.5C1050.9 734.3 1029.2 733.4 1007.5 734.3C988.7 735.1 969 736.7 951.6 744.1C937.2 750.2 925 760.9 922 776.8C918.9 793.4 923.7 811.4 930.5 826.6C945.7 860.4 975.3 884.5 1006.3 903.4C1044.2 926.4 1085.1 945.8 1128.1 957.3C1130 957.8 1130.8 954.9 1128.9 954.4C1092 944.6 1057.1 928.7 1023.9 910.1C992.2 892.4 960.7 871.4 941.1 840.1C931.9 825.5 925.4 808.7 924.3 791.3C923.7 781.7 925 771.9 930.5 763.8C935.1 757 942.1 752 949.4 748.4C966.3 740.1 986.2 738.3 1004.7 737.4C1024.7 736.4 1044.8 737 1064.7 738C1110.7 740.4 1156.3 744 1202.4 741.7C1204.3 741.7 1204.4 738.7 1202.4 738.8Z" fill="black"/>
<path d="M1013.1 785.2C1054 810.6 1097.5 831.5 1142.8 847.5C1144.6 848.1 1145.4 845.2 1143.6 844.6C1098.5 828.6 1055.2 807.8 1014.6 782.6C1012.9 781.6 1011.4 784.2 1013.1 785.2Z" fill="black"/>
<path d="M1142.1 845.1C1129.1 880 1124 917.4 1127 954.5C1127.2 956.4 1130.2 956.4 1130 954.5C1126.9 917.6 1132 880.6 1145 845.9C1145.7 844.1 1142.8 843.3 1142.1 845.1Z" fill="black"/>
<path d="M1135.5 871C1141.7 877.1 1152.3 880.2 1160.4 883C1170.6 886.6 1181.1 889.3 1191.8 891.1C1193.7 891.4 1194.5 888.5 1192.6 888.2C1183.1 886.6 1173.7 884.4 1164.6 881.3C1159.6 879.6 1154.6 877.7 1149.8 875.6C1145.6 873.8 1140.9 872.1 1137.7 868.8C1136.2 867.5 1134.1 869.6 1135.5 871Z" fill="black"/>
<path d="M1191.4 891.6C1214.4 933 1236.6 974.9 1258 1017.2C1258.9 1018.9 1261.5 1017.4 1260.6 1015.7C1239.2 973.4 1216.9 931.6 1194 890.1C1193.1 888.4 1190.5 889.9 1191.4 891.6Z" fill="black"/>
<path d="M1127.8 924.2C1135.8 925.3 1143.9 926.3 1151.9 927.4C1155.3 927.9 1158.6 928.1 1161.3 930.6C1162.7 931.9 1163.9 933.6 1165 935.1C1167.1 937.9 1169.3 940.7 1171.4 943.5C1180.5 955.6 1189.6 967.6 1199.3 979.3C1209.1 991 1219.4 1002.2 1230.9 1012.2C1238.6 1018.9 1250.1 1029 1260.2 1020.4C1261.7 1019.1 1259.5 1017 1258.1 1018.3C1250.6 1024.7 1241.6 1017.3 1235.7 1012.4C1230.1 1007.7 1224.8 1002.7 1219.7 997.4C1209.6 987.1 1200.4 976.1 1191.5 964.8C1182.7 953.6 1174.5 941.7 1165.4 930.7C1161.7 926.2 1157.6 925.2 1152 924.5C1144 923.4 1135.9 922.4 1127.9 921.3C1125.9 921 1125.9 924 1127.8 924.2Z" fill="black"/>
<path d="M1122.5 838.6C1177 846.4 1232.5 844.7 1286.4 833.4C1288.3 833 1287.5 830.1 1285.6 830.5C1232.3 841.7 1177.2 843.4 1123.3 835.7C1121.4 835.4 1120.6 838.3 1122.5 838.6Z" fill="black"/>
<path d="M1098 414.1C1098.4 408.3 1098.7 400.9 1098.5 392.4C1098.3 382.3 1097.7 383.6 1096.8 367.8C1095.9 352.1 1096.1 345.8 1092.2 343.9C1090.4 343 1088 343.3 1086.4 344.3C1085.3 345 1083.8 346.5 1082.4 357.7C1081.6 364.2 1082 365 1080.9 366.3C1078.1 369.7 1073.8 367 1068.5 370.6C1065.4 372.7 1066.4 373.9 1062 378.3C1057.4 382.9 1056 381.9 1053 385.5C1052.5 386.1 1047.6 392.1 1048.7 399.4C1048.9 400.8 1049.5 405.1 1052.2 406.2C1054.8 407.3 1057 404.5 1058.8 405.5C1060.8 406.5 1060 410.5 1059.7 418.1C1059.4 426.6 1059.2 431.1 1061 435.5C1062.6 439.5 1065.4 442.4 1067.9 444.3C1068.5 447.7 1069.3 452.9 1070 459.3C1072.3 481.5 1070.1 492.4 1070 507.6C1070 532.2 1075.8 551.3 1079.6 563.8C1084.8 580.9 1091.3 594.4 1096.2 603.6C1102 604 1110.5 603.9 1120.2 601.1C1131 597.9 1137.6 593 1150.9 582.7C1175.3 563.9 1187.6 554.3 1192.6 549.2C1212.5 528.9 1215.4 517.8 1216.3 512.6C1217 508.6 1219.4 495.4 1212.3 490C1206.4 485.5 1197.1 488.7 1193.2 490C1185.7 492.5 1181.8 496.5 1175.1 502.1C1162.5 512.6 1161.9 510.6 1149.9 520.2C1142.3 526.3 1132 535.6 1121.2 548.9C1120.5 545.2 1119.3 539.4 1117.7 532.3C1114.6 518.4 1112.1 509.8 1110.7 504.1C1106.2 486.7 1104.5 472.5 1101.1 444.2C1100.1 436.4 1099 426.2 1098 414.1Z" fill="#E8BEAC"/>
<path opacity="0.18" d="M1091.1 342.9C1091.8 350.7 1092 361 1090 372.7C1087.4 388.2 1082.2 400.3 1077.9 408.4C1077.2 410.2 1075.5 414.8 1076.9 420.5C1079 429.1 1086.3 433 1087.5 433.6C1090.7 450.4 1093.9 467.1 1097.1 483.9C1102.6 513.2 1108 542.6 1113.2 571.9C1122.5 563.7 1131.9 555.5 1141.4 547.2C1163.5 528.1 1185.5 509.5 1207.3 491.4C1202.6 490.6 1197.9 489.7 1193.2 488.9C1189.6 491.2 1184.6 494.4 1178.6 498.5C1167.2 506.3 1154.8 514.7 1141.4 527.2C1136 532.2 1128.9 539.2 1121.3 548.3C1120.4 542.5 1118.8 534 1116.3 523.6C1113 510.3 1111.7 508.7 1109.3 498.9C1105.5 483.5 1108.2 484.6 1103.8 458.1C1099.1 429.6 1098.8 427.9 1098.8 427.9C1098.1 423.9 1097.6 421.2 1097.3 417.3C1096.3 405.2 1098.3 396.1 1098.8 393.6C1100.1 385.4 1099.9 370.6 1091.1 342.9Z" fill="#A5A4A4"/>
<path d="M1199.8 483.8C1170.5 501 1143.6 521.9 1120 546.4C1118.7 547.8 1120.8 549.9 1122.1 548.5C1145.5 524.2 1172.2 503.5 1201.3 486.4C1203 485.5 1201.5 482.9 1199.8 483.8Z" fill="black"/>
<path d="M1120.9 556.7C1123.6 547.7 1122.3 538.7 1119.9 529.8C1117.1 519.3 1113.9 508.9 1111.5 498.3C1106.5 476.8 1103.3 455 1101.8 433C1101.7 431.1 1098.7 431.1 1098.8 433C1100.2 453.3 1103.1 473.5 1107.4 493.5C1109.6 503.6 1112.2 513.6 1115.1 523.5C1118.2 534.1 1121.5 545 1118.1 556C1117.5 557.7 1120.4 558.5 1120.9 556.7Z" fill="black"/>
<path d="M1101.8 431.5C1100.1 423.3 1096 404.1 1083.6 406.8C1079.5 407.7 1075.5 411.5 1075.8 416C1076.2 422.2 1082.4 420.2 1085.7 423.5C1087.1 424.9 1089.2 422.7 1087.8 421.4C1086.1 419.7 1084.4 419.7 1082.4 418.8C1074.7 415.5 1083.1 407 1089.1 410.6C1095.5 414.4 1097.5 425.6 1098.9 432.3C1099.3 434.2 1102.2 433.4 1101.8 431.5Z" fill="black"/>
<path d="M1099.2 418.9C1101.1 395.5 1100 371.8 1095.3 348.7C1094.8 346.1 1094.3 342.7 1091.5 341.5C1088.9 340.4 1086.2 342 1084.8 344.1C1082.6 347.5 1082.6 352.8 1082.2 356.7C1081.6 363 1081.6 369.4 1082.1 375.7C1082.2 377.6 1085.2 377.6 1085.1 375.7C1084.8 371.3 1084.6 366.8 1084.8 362.4C1085 358.3 1084.6 351.9 1086.4 348.3C1086.5 347.9 1086.6 347.4 1086.7 347C1090.1 344.9 1091.8 345.1 1092 347.6C1092.8 348.9 1092.8 351.6 1093.1 353.2C1094 358 1094.7 362.9 1095.3 367.8C1097.3 384.8 1097.6 401.9 1096.2 418.9C1096 420.8 1099 420.8 1099.2 418.9Z" fill="black"/>
<path d="M1082.2 365.5C1079.9 360.5 1073.7 367.1 1072.2 369.4C1068.2 375.4 1068.1 383 1070.6 389.6C1072.1 393.3 1075.6 398.3 1080 395.4C1085.8 391.7 1085.1 379.6 1084.4 373.9C1084.2 372 1081.2 372 1081.4 373.9C1081.9 378 1081.9 382 1081.1 386.1C1080.8 387.5 1080.7 389.5 1079.8 390.7C1077.4 394.1 1074.5 391.4 1073.4 388.7C1071.8 384.8 1071.2 380.4 1072.3 376.3C1072.8 374.4 1073.6 372.6 1074.7 371C1075.2 370.3 1079 365.9 1079.5 367.1C1080.4 368.8 1083 367.3 1082.2 365.5Z" fill="black"/>
<path d="M1073.9 367.8C1063.1 368.3 1058.4 378.9 1059.8 388.5C1060.4 392.5 1061.8 396.6 1066.2 397.6C1070.5 398.6 1073.9 395.5 1074.8 391.5C1075.2 389.6 1072.3 388.8 1071.9 390.7C1069.9 399.4 1063.5 392.7 1062.8 388.5C1062.4 385.9 1062.3 383.3 1062.9 380.7C1064.1 375.3 1068.2 371 1073.9 370.8C1075.9 370.7 1075.9 367.7 1073.9 367.8Z" fill="black"/>
<path d="M1061.6 376.9C1054.8 379 1048.5 386 1050.2 393.6C1051.8 401 1061 401.9 1064.7 395.7C1065.7 394 1063.1 392.5 1062.1 394.2C1060.2 397.3 1055.8 398.1 1053.7 394.6C1052.5 392.6 1052.9 389.8 1053.6 387.8C1055 383.8 1058.4 381 1062.4 379.8C1064.2 379.2 1063.5 376.3 1061.6 376.9Z" fill="black"/>
<path d="M1050.5 389C1047.2 393.5 1045.1 402.4 1050.1 406.7C1052 408.3 1054.6 408.4 1056.8 407.2C1059.7 405.6 1060.9 402.3 1061.8 399.3C1062.4 397.5 1059.5 396.7 1058.9 398.5C1058.3 400.4 1057.8 402.3 1056.3 403.7C1053.8 406.1 1051.2 404.6 1050.4 401.6C1049.4 397.7 1050.7 393.7 1053 390.6C1054.2 388.9 1051.6 387.4 1050.5 389Z" fill="black"/>
<path d="M1056.1 404.7C1061.9 417.3 1051.6 438 1068.2 445C1070 445.7 1070.8 442.8 1069 442.1C1060.3 438.4 1060.7 427.8 1061.1 419.9C1061.3 414 1061.2 408.5 1058.7 403.1C1057.9 401.4 1055.3 402.9 1056.1 404.7Z" fill="black"/>
<path d="M1066.4 444.7C1069.8 458.4 1068 472.6 1067.9 486.6C1067.8 500.1 1068.6 513.6 1070.4 526.9C1073.9 552.7 1081.1 577.9 1091.5 601.7C1092.3 603.5 1094.9 601.9 1094.1 600.2C1083.2 575.2 1075.9 548.6 1072.7 521.4C1071.2 508.6 1070.6 495.7 1070.9 482.9C1071.2 469.8 1072.5 456.8 1069.3 443.9C1068.9 442 1066 442.8 1066.4 444.7Z" fill="black"/>
<path d="M1093.5 604.6C1121.9 611 1146.9 588.1 1167.4 572C1179.5 562.5 1191.3 552.7 1202.7 542.4C1212.8 533.2 1222.3 523.3 1229 511.3C1229.9 509.6 1227.4 508.1 1226.4 509.8C1220.1 521.1 1211.3 530.5 1201.8 539.1C1191.5 548.5 1180.7 557.5 1169.8 566.3C1158.8 575.1 1147.7 584.1 1135.8 591.6C1123.4 599.5 1109.1 605.1 1094.3 601.7C1092.4 601.3 1091.6 604.2 1093.5 604.6Z" fill="black"/>
<path d="M1099.7 276.9C1100.4 275.4 1101.1 273.1 1100.8 270.5C1100.2 265.9 1096.6 263.1 1094 260.3C1089.9 256 1088.5 251.7 1085.1 243.6C1083.3 239.3 1077.4 225.2 1083.6 211.3C1088.2 201 1097.1 196.3 1098.9 195.4C1101.6 194 1112.2 188.8 1122.5 193.4C1131 197.3 1134.2 205.6 1136.9 212.8C1137.8 215.2 1142.3 227.4 1138.8 242.1C1137.9 245.9 1136.7 251.2 1132.9 256.7C1130.2 260.6 1128.1 261.9 1126 265.9C1123.4 270.7 1122.9 275.5 1122.8 278.6C1124.7 278.6 1126.6 278.7 1128.5 278.7C1128.3 281.4 1128 284 1127.8 286.7C1123.5 285.7 1121.9 286.2 1121.3 287C1120.3 288.5 1122.6 290.9 1121.6 293C1121.3 293.6 1120.4 294.9 1115 295.7C1110 296.4 1102.4 297.5 1100.2 293.9C1099 291.9 1100.5 290.1 1099 288.1C1097.6 286.2 1094.9 285.9 1092.8 285.9C1090.9 280.6 1091.2 278.8 1092 278.3C1092.7 277.8 1093.7 278.4 1095.8 278.2C1097.5 278.1 1098.8 277.5 1099.7 276.9Z" fill="#F4DC61"/>
<path d="M1112.7 276.2C1112.5 265.4 1112.2 254.7 1112 243.9C1112 242 1109 242 1109 243.9C1109.2 254.7 1109.5 265.4 1109.7 276.2C1109.7 278.1 1112.7 278.1 1112.7 276.2Z" fill="black"/>
<path d="M1097.4 231.7C1101.1 236.1 1105.1 240.4 1109.2 244.5C1109.8 245.1 1110.8 245.1 1111.3 244.5C1114.2 241.4 1117.1 238.3 1120 235.2C1121.6 233.5 1124.3 231.5 1125.2 229.2C1125.6 228.2 1124.6 227.4 1123.8 227.3C1123.7 227.3 1123.7 227.3 1123.7 227.3C1123.1 227.2 1122.4 227.8 1122.3 228.4V228.5C1121.9 230.4 1124.8 231.2 1125.2 229.3V229.2C1124.7 229.6 1124.2 229.9 1123.8 230.3H1123.9C1123.4 229.7 1122.9 229 1122.5 228.4C1121.7 230.5 1117.7 233.5 1116.1 235.2C1113.9 237.6 1111.7 240 1109.4 242.3C1110.1 242.3 1110.8 242.3 1111.5 242.3C1107.4 238.2 1103.5 233.9 1099.7 229.5C1098.3 228.1 1096.1 230.2 1097.4 231.7Z" fill="black"/>
<path d="M1111.6 242.2C1112 234.6 1112.2 227 1112.4 219.4C1112.4 217.5 1109.4 217.5 1109.4 219.4C1109.2 227 1109 234.6 1108.6 242.2C1108.5 244.1 1111.5 244.1 1111.6 242.2Z" fill="black"/>
<path d="M1037 201C1046.2 203.4 1054.8 209.1 1063.2 213.4C1064.9 214.3 1066.4 211.7 1064.7 210.8C1056 206.3 1047.3 200.5 1037.8 198.1C1036 197.6 1035.2 200.5 1037 201Z" fill="black"/>
<path d="M1083.1 194.3C1079.1 189.6 1075.2 185 1071.2 180.3C1069.9 178.8 1067.8 181 1069.1 182.4C1073.1 187.1 1077 191.7 1081 196.4C1082.3 197.9 1084.4 195.7 1083.1 194.3Z" fill="black"/>
<path d="M1117.5 179.6C1118.1 169.9 1119.4 160.3 1121.3 150.8C1121.7 148.9 1118.8 148.1 1118.4 150C1116.5 159.8 1115.2 169.6 1114.5 179.6C1114.3 181.5 1117.3 181.5 1117.5 179.6Z" fill="black"/>
<path d="M1152.2 197.5C1158.8 191.6 1165.6 185.9 1172.4 180.4C1173.9 179.2 1171.8 177.1 1170.3 178.3C1163.5 183.9 1156.7 189.6 1150.1 195.4C1148.7 196.7 1150.8 198.8 1152.2 197.5Z" fill="black"/>
<path d="M1165.1 226.9C1173.3 224 1181.4 221 1189.5 217.8C1191.3 217.1 1190.5 214.2 1188.7 214.9C1180.6 218.1 1172.5 221.1 1164.3 224C1162.5 224.6 1163.2 227.5 1165.1 226.9Z" fill="black"/>
<path d="M1047.6 247.3C1052.7 245.6 1057.9 243.9 1063 242.2C1064.8 241.6 1064 238.7 1062.2 239.3C1057.1 241 1051.9 242.7 1046.8 244.4C1044.9 245 1045.7 247.9 1047.6 247.3Z" fill="black"/>
<path d="M1090.7 279.2C1092.5 281.7 1090 285.1 1092.2 287.7C1093.6 289.4 1095.8 289.7 1097.8 289.8C1107.6 290.3 1117.9 288.8 1127.8 288.4C1129.7 288.3 1129.7 285.3 1127.8 285.4C1119.8 285.8 1111.8 286.2 1103.8 286.6C1100.1 286.8 1094.9 288.3 1094.1 283.3C1093.7 281 1094.8 279.9 1093.3 277.8C1092.2 276.1 1089.6 277.6 1090.7 279.2Z" fill="black"/>
<path d="M1094.4 279.7C1105.8 279.9 1117.1 280.1 1128.5 280.3C1128 279.8 1127.5 279.3 1127 278.8C1127.2 280.9 1127.2 282.5 1126.8 284.7C1126.4 286.6 1129.3 287.4 1129.7 285.5C1130.2 283.2 1130.3 281.1 1130 278.8C1129.9 278 1129.4 277.3 1128.5 277.3C1117.1 277.1 1105.8 276.9 1094.4 276.7C1092.5 276.7 1092.5 279.7 1094.4 279.7Z" fill="black"/>
<path d="M1098.5 288C1096.9 290.2 1097.3 293.1 1099.1 295.1C1101.9 298.1 1106.8 297.6 1110.5 297.5C1114 297.4 1118.8 297.7 1121.7 295.2C1123.8 293.4 1124.3 290.4 1122.8 288.1C1121.7 286.5 1119.1 288 1120.2 289.6C1123.4 294.4 1112 294.4 1110.5 294.5C1108.2 294.6 1097.3 294.9 1101.1 289.5C1102.2 288 1099.6 286.5 1098.5 288Z" fill="black"/>
<path d="M1101.1 277.3C1102.9 269.1 1096.9 262.6 1093 256C1088.2 247.9 1083.9 239.1 1082.8 229.6C1081.8 221.3 1083.4 212.3 1088.4 205.4C1094.3 197.3 1104.6 194.1 1114.3 194C1134.2 193.7 1138 218.2 1137.9 233.6C1137.9 244.3 1134.4 252.4 1127.9 260.7C1123.5 266.3 1119.9 272.3 1121.4 279.6C1121.8 281.5 1124.7 280.7 1124.3 278.8C1122.3 269.2 1131 262.8 1135.5 255.4C1139.1 249.6 1140.6 242.8 1140.9 236C1141.4 223.9 1139.6 208.3 1131.7 198.6C1123.5 188.4 1108.4 189.6 1097.5 194.5C1085.4 199.8 1079.5 212.4 1079.5 225.2C1079.5 232.9 1081.8 240.5 1085 247.5C1086.9 251.7 1089.2 255.8 1091.7 259.8C1094.8 264.8 1099.5 270.3 1098.2 276.6C1097.8 278.4 1100.7 279.2 1101.1 277.3Z" fill="black"/>
<path d="M1272.28 460.193L1272.29 460.193C1320.73 456.555 1356.43 477.144 1369.03 485.335C1370.39 499.278 1371.88 520.109 1371.4 545.452C1370.9 569.616 1368.82 587.235 1366.52 604.202C1366.21 606.493 1365.9 608.773 1365.58 611.057C1363.57 625.699 1361.53 640.495 1360.4 659.149L1360.4 659.15C1359.12 680.486 1358.71 711.322 1363.55 749.273C1346.51 754.799 1318.4 761.47 1283.69 758.807C1252.6 756.408 1228.22 747.485 1212.81 740.367C1211.99 725.739 1210.48 704.172 1207.38 678.204L1207.38 678.201C1204.09 650.819 1200.72 631.513 1198.58 619.238C1198.24 617.318 1197.94 615.57 1197.67 613.99C1193.13 585.981 1189.66 544.182 1196.25 486.918C1208.79 478.384 1235.35 462.879 1272.28 460.193Z" fill="#EC615B" stroke="black" stroke-width="5"/>
<path d="M1147.1 896.7C1139.5 899.7 1133.2 901.8 1128.8 903.2C1109.8 909.2 1102 909.4 1093.2 916.6C1091.2 918.2 1088.5 920.8 1083.3 928.4C1075.5 940 1070.2 951.2 1062.4 971.7C1055.2 990.7 1049.5 1005.9 1044.2 1027.7C1041.7 1037.9 1040 1046.6 1038.9 1053.1C1043.3 1051.1 1050.3 1047.6 1057.9 1041.8C1079 1025.8 1084.5 1008.1 1106.3 976.1C1110.8 969.5 1117.7 959.7 1127.1 948.2C1132 944.7 1140.3 939.7 1151.5 937C1159 935.3 1165.5 935.1 1170.4 935.3C1169.6 931.9 1168.7 928.5 1167.9 925.1C1161 915.6 1154.1 906.2 1147.1 896.7Z" fill="black"/>
<path d="M1131.3 878.1C1132.6 878.8 1134.6 879.8 1136.8 881.3C1146.3 887.9 1150.6 896.5 1153.7 902.4C1167.8 929.4 1170.6 927.2 1179.5 948.4C1183.2 957.2 1185.7 964.7 1187.3 969.9C1193.5 967.5 1202.6 963.8 1213.5 958.7C1238.9 946.8 1257.2 935.2 1313.6 894.9C1360.8 861.1 1321.9 887.9 1394.6 833C1397.2 831.1 1415.3 817.4 1432.2 794.3C1443.4 779.1 1446.8 769.7 1447.8 760.8C1448.5 755.1 1450.3 740.5 1440.9 728.4C1434.7 720.4 1426.6 717.2 1423.2 716C1414.9 712.9 1403.6 711.7 1384.1 717.8C1364.2 724.1 1350.3 733.5 1325.1 752.3C1305.6 766.9 1293.7 776.4 1283.6 784.2C1250.6 809.9 1222.8 831.6 1187.1 851.6C1174.1 858.7 1155.3 868.5 1131.3 878.1Z" fill="white"/>
<path opacity="0.18" d="M1441.3 728.8C1436.9 739 1429.7 754.1 1418.7 771.2C1377.8 835 1322.4 866.8 1287.5 886.3C1261.8 900.7 1222.7 919.2 1171.4 931.8C1174.1 936.8 1176.8 942.3 1179.4 948.4C1182.7 956 1185.2 963.3 1187.2 969.9C1198.7 965.2 1215.2 958 1234.2 947.9C1261.7 933.2 1270.2 925.4 1332 880.9C1332 880.9 1369.1 854.3 1413 816.2C1415.5 814 1429.5 801.7 1440.2 781.6C1447.1 768.6 1448.1 760.9 1448.3 756.2C1448.9 743.6 1444.1 733.7 1441.3 728.8Z" fill="#969696"/>
<path d="M1134 878.9C1178.2 858.9 1219.9 833.9 1258.6 804.7C1277.8 790.3 1296.4 775.1 1315.7 760.9C1334.3 747.2 1353.6 733.5 1374.5 723.4C1394.3 713.9 1422.9 708.7 1438.9 728.1C1454.9 747.5 1444.7 774.2 1431.9 792.1C1418.3 811.2 1400.5 826.7 1382.2 841C1362.7 856.3 1342.7 871.1 1322.8 886C1280.4 917.9 1236.9 949.5 1186.9 968.4C1185.1 969.1 1185.9 972 1187.7 971.3C1234 953.8 1274.9 925.5 1314.4 896.1C1335.4 880.4 1356.4 864.6 1377.2 848.6C1395.9 834.3 1414.4 819.2 1429.1 800.7C1442.2 784.3 1453.9 763.5 1448.7 741.7C1443.8 721.4 1424.7 711 1404.7 711.8C1381.2 712.7 1359.5 727.2 1340.5 739.7C1319.9 753.3 1300.4 768.5 1280.9 783.7C1257.8 801.7 1234.5 819.3 1209.6 834.9C1184.8 850.5 1159 864.3 1132.3 876.3C1130.7 877.1 1132.2 879.7 1134 878.9Z" fill="black"/>
<path d="M1130.6 879.4C1138.9 882.9 1144.3 891.8 1149.4 898.9C1154.4 905.8 1159 912.9 1163.3 920.1C1172.3 935.3 1179.8 951.3 1185.8 967.9C1186.5 969.7 1189.4 968.9 1188.7 967.1C1182.4 949.7 1174.5 932.9 1165 917C1160.2 909 1155 901.2 1149.4 893.7C1144.6 887.3 1139.8 879.9 1132.2 876.7C1130.3 876.1 1128.8 878.6 1130.6 879.4Z" fill="black"/>
<path d="M1146.7 895.2C1137.6 898.4 1128.6 901.6 1119.5 904.9C1111.3 907.8 1102.4 910.2 1094.6 914.1C1088.1 917.3 1084.5 923 1081.1 929.2C1076.7 937.1 1072.7 945.1 1068.8 953.2C1054 984.8 1043.5 1018.3 1037.4 1052.6C1037.2 1053.6 1038.1 1054.9 1039.2 1054.4C1052.7 1049.7 1063 1039.9 1071.7 1028.9C1082.3 1015.5 1091.7 1001.1 1101 986.8C1109.5 973.8 1116.9 958.6 1128.9 948.3C1134.9 943.2 1141.8 940.4 1149.5 938.8C1156.6 937.3 1163.6 936.1 1169.6 931.7C1171.2 930.6 1169.7 928 1168.1 929.1C1161.7 933.7 1154 934.6 1146.5 936.4C1140.1 937.9 1134.3 940.4 1129.1 944.4C1118 952.9 1111 965.6 1103.7 977.2C1094.3 992 1084.5 1006.7 1074.1 1020.9C1064.7 1033.7 1053.9 1046.2 1038.5 1051.5C1039.1 1052.1 1039.7 1052.7 1040.3 1053.3C1046.2 1020.4 1056 988.3 1069.9 957.9C1073.3 950.5 1076.9 943.3 1080.7 936.1C1084.6 928.7 1088.3 920.4 1096.1 916.5C1104.3 912.5 1113.6 910 1122.1 907C1130.5 904 1139 901 1147.4 898C1149.3 897.5 1148.6 894.6 1146.7 895.2Z" fill="black"/>
<path d="M1074.9 603.3C1087.7 667.8 1100.6 732.3 1113.4 796.8C1164.1 799.5 1214.7 802.2 1265.4 804.9C1255.3 737.5 1245.3 670.1 1235.2 602.8C1181.8 603 1128.4 603.1 1074.9 603.3Z" fill="white" stroke="black" stroke-width="3" stroke-miterlimit="10"/>
<path opacity="0.22" d="M1189.5 602.9C1192.6 621.1 1195 640.8 1196.3 662C1199.6 715.4 1194.8 762.5 1187.7 800.8C1213.6 802.2 1239.5 803.6 1265.5 804.9C1255.4 737.5 1245.4 670.1 1235.3 602.8C1220 602.9 1204.7 602.9 1189.5 602.9Z" fill="#898989"/>
<path d="M1340.9 488.6C1337 492.4 1336.2 497.5 1335.7 505.9C1334.6 527.3 1337.6 543.7 1337.6 543.7C1341.2 563 1342.2 582.7 1344.7 602.1C1347.6 624.3 1348.9 635.6 1343.2 645.5C1338.5 653.7 1330.8 659.5 1328.5 661.2C1320.2 667.3 1312.5 669.7 1305.9 671.5C1293.9 674.9 1277.2 679.3 1256.1 683.4C1250.5 676 1244.6 671.6 1240.7 669.2C1235.2 665.8 1226.3 660.1 1220.9 663.5C1218.4 665.1 1216.7 668.8 1217.5 671.3C1218.6 674.6 1223.3 674.1 1226.1 678.1C1227.9 680.7 1227.9 683.9 1227.7 685.9C1223.8 686.7 1217.9 687.7 1210.6 688.2C1196.8 689.1 1193 687.3 1181.4 688.2C1169.8 689.1 1154.9 692.4 1154.8 696C1154.8 698.6 1162.6 700.6 1164.8 701.2C1170.9 702.8 1174.1 702 1182.5 702.5C1189.2 702.9 1197 704 1197 704.8C1197 706.6 1158.1 703.9 1156.1 713.2C1155.5 715.9 1158.1 718.6 1159.9 720.5C1161.9 722.7 1166.3 726.4 1185.8 728.3C1189.8 728.7 1195.3 729.1 1201.8 729.1C1196 732 1190.3 734.9 1184.5 737.8C1184.5 738.5 1184.5 739.5 1185.1 740.5C1188.4 746.3 1205 742.5 1212.7 740.8C1222.7 738.5 1237.2 734.1 1254.1 724.5C1269.2 723.9 1281.6 722.7 1290.2 721.7C1326.2 717.4 1344.6 710.5 1355.9 705.4C1368.3 699.8 1374.5 695.1 1379.1 688.7C1380.5 686.7 1384 681.4 1387.8 665.2C1391.6 648.9 1392.3 636 1392.5 632C1392.9 624.2 1393.2 610.9 1390.9 579.9C1387.4 533.5 1385.7 550.3 1383 519.6C1382.7 516 1381.8 505.1 1374.7 494.8C1372.6 491.7 1369.9 487.9 1364.9 485.5C1357.2 482 1346.7 482.8 1340.9 488.6Z" fill="#E8BEAC"/>
<path opacity="0.24" d="M1360 484C1362 491.1 1364.7 501.5 1367.1 514.2C1368.6 522.2 1372.9 547.2 1371.4 611.9C1370.4 652.7 1368.3 658.3 1365 663.7C1356.1 678.1 1341.6 684.3 1312.7 696.8C1288.7 707.1 1272.8 714 1249.7 717.6C1239.1 719.3 1222.8 720.9 1201.9 729.3C1198.8 730.5 1182.6 737.1 1183.3 740.2C1183.9 742.6 1194.5 742.1 1203.8 741.6C1214.6 741 1220.2 740.7 1227.4 738.6C1233.2 736.9 1243.3 733 1253.7 723.7C1269.9 723.8 1283.4 722.7 1293.4 721.5C1309.4 719.6 1327.5 717.4 1348.7 708.6C1362.2 703 1371.7 698.9 1379.1 688.8C1381.1 686.1 1384.9 680.1 1388.7 661C1391.6 646.5 1392.8 632.2 1392.8 614.4C1392.8 605.4 1391.5 590.1 1389 559.5C1386.9 534.6 1388.9 562.3 1382 514.6C1381.3 509.7 1380.2 502 1374.5 494.8C1369.9 488.8 1364 485.6 1360 484Z" fill="#898989"/>
<path d="M1339.1 494.8C1342.9 483 1357.6 482 1366.4 488.5C1376.3 495.7 1379.4 508.2 1381.3 519.6C1385.4 544.4 1388.8 569.5 1390.5 594.5C1392.2 619.9 1391.6 645.8 1384.9 670.5C1381.6 682.7 1376.6 692.4 1365.5 699C1355.5 704.9 1344.4 709.1 1333.3 712.4C1307.5 720 1280.5 721.9 1253.7 722.2C1251.8 722.2 1251.8 725.2 1253.7 725.2C1280.4 724.8 1307.5 722.9 1333.3 715.5C1345.6 712 1358.3 707.3 1369.1 700.3C1379.2 693.8 1384.1 684.4 1387.3 673.1C1395 645.8 1395.4 617 1393.1 588.9C1392 574.9 1390.2 561 1388.3 547.1C1386.4 533.3 1385.5 518.7 1381.2 505.4C1377.7 494.8 1370.2 484.1 1358.6 481.8C1349.2 479.9 1339.2 484.9 1336.2 494.1C1335.6 495.8 1338.5 496.6 1339.1 494.8Z" fill="black"/>
<path d="M1337.1 490.8C1332.2 506.1 1334 522.8 1335.6 538.5C1337.3 555 1339.9 571.3 1341.8 587.8C1342.8 596 1343.6 604.2 1344 612.5C1344.5 621 1345.1 630.1 1343.7 638.6C1340.9 654.6 1325.8 662 1312.2 667.6C1294.6 674.8 1276 679.5 1257.1 681.8C1255.2 682 1255.2 685 1257.1 684.8C1273.8 682.8 1290.3 679 1306.1 673.2C1318.6 668.6 1333.1 663.2 1341.3 652C1350.3 639.7 1347.7 621 1346.6 606.8C1345.3 588.7 1342.4 570.8 1340.2 552.8C1337.7 533.2 1333.7 510.9 1339.9 491.6C1340.5 489.8 1337.6 489 1337.1 490.8Z" fill="black"/>
<path d="M1257.2 682.5C1248 672.6 1236.6 660.9 1221.8 662.1C1217.8 662.4 1213.2 664.5 1214.6 669.3C1215.3 671.7 1217.3 673.2 1219.3 674.5C1223.5 677.2 1226.5 680 1227.8 685C1228.3 686.9 1231.2 686.1 1230.7 684.2C1229.7 680.5 1227.9 677.1 1224.9 674.6C1223.6 673.5 1219.2 671.7 1218.7 670.4C1219.1 668.7 1219.6 667 1220 665.3C1220.9 665.2 1221.7 665.1 1222.6 665C1224.1 664.9 1225.7 665.1 1227.2 665.3C1238.9 667.2 1247.4 676.3 1255.1 684.6C1256.4 686 1258.5 683.9 1257.2 682.5Z" fill="black"/>
<path d="M1227.4 684.5C1215 688.9 1201.2 685.8 1188.3 686.3C1182.4 686.5 1176.5 687.1 1170.6 688C1166 688.7 1159.3 688.8 1155.5 692C1149.6 696.9 1157 701.9 1161.9 702.5C1175 704.3 1188.6 704 1201.8 704.7C1203.7 704.8 1203.7 701.8 1201.8 701.7C1192.1 701.2 1182.3 700.7 1172.6 700.2C1170 700.1 1167.4 700 1164.8 699.8C1163.5 699.7 1152.8 698.8 1157.9 694C1159.3 692.7 1162.9 692.5 1164.7 692.1C1166.9 691.7 1169.1 691.3 1171.3 690.9C1181.3 689.4 1191.5 688.9 1201.6 689.3C1210.5 689.7 1219.4 690.4 1228 687.4C1230 686.8 1229.2 683.9 1227.4 684.5Z" fill="black"/>
<path d="M1201.2 703.1C1191.2 703.7 1180.5 703.3 1170.7 705.6C1166.2 706.7 1161.8 708.5 1157.7 710.7C1155.8 711.7 1153 712.9 1153.5 715.5C1154.5 721.5 1168.7 721.4 1173 721.5C1183.8 721.6 1194.4 719.6 1205.2 720.4C1207.1 720.5 1207.1 717.5 1205.2 717.4C1197.7 716.9 1190.3 717.6 1182.8 718.1C1175.9 718.6 1165.9 719.9 1159.5 716.6C1155.2 714.4 1157.5 714.1 1159.9 712.9C1161.8 711.9 1163.7 711 1165.7 710.3C1169.4 708.9 1173.2 708 1177.1 707.6C1185 706.8 1193.1 706.6 1201 706.1C1203.1 706 1203.1 703 1201.2 703.1Z" fill="black"/>
<path d="M1159.2 721.8C1172.2 728.5 1186.6 731.3 1201.1 729.7C1203 729.5 1203 726.5 1201.1 726.7C1187.1 728.2 1173.2 725.7 1160.7 719.2C1159 718.4 1157.5 720.9 1159.2 721.8Z" fill="black"/>
<path d="M1201.5 727.8C1194 729.5 1185.7 732 1182 739.4C1181.7 740.1 1181.8 741.1 1182.5 741.5C1187.8 743.9 1193.2 743.6 1198.9 743.4C1206.3 743 1213.8 742.6 1221.2 741.4C1233.8 739.4 1245.9 734.8 1255.2 725.8C1256.6 724.5 1254.5 722.3 1253.1 723.7C1244.7 731.9 1233.7 736.1 1222.3 738.2C1215.8 739.4 1209.3 739.9 1202.8 740.2C1196.7 740.5 1189.9 741.5 1184.1 738.9C1184.3 739.6 1184.5 740.3 1184.6 741C1187.9 734.3 1195.5 732.3 1202.3 730.8C1204.1 730.2 1203.3 727.3 1201.5 727.8Z" fill="black"/>
<path d="M1197 356.2C1194 363.3 1193.6 370.3 1193 378.8C1192.7 383.1 1192.1 396.6 1196.6 413.6C1199.4 424.2 1202.4 435.7 1211.7 447.2C1219.8 457.2 1229.1 462.8 1235 465.7C1239.1 464.5 1243.5 463.1 1248.2 461.2C1252.8 459.4 1257 457.4 1260.8 455.5C1261 459.2 1261.7 465.8 1265.5 472.9C1268.7 479 1272.8 483 1275.4 485.2C1278.4 483.9 1281.8 482.2 1285.4 479.6C1293.9 473.5 1298.6 466 1301.1 461.3C1299.7 455.5 1298.4 448.9 1297.6 441.6C1296.2 428.6 1296.6 417.1 1297.6 407.7C1299.8 407.7 1303.3 407.4 1306.9 405.6C1315 401.5 1317.7 393 1318.9 389C1321.8 379.6 1320.2 371.6 1319.1 366.5C1318.1 362 1314.7 346.3 1301.2 334.6C1284.3 320.1 1263.2 321.9 1254.1 322.6C1234.7 324.3 1206.4 333.9 1197 356.2Z" fill="#E8BEAC"/>
<path opacity="0.29" d="M1282.3 340.2C1283.6 346.3 1284.8 354.5 1285 364.1C1285 366.9 1285.2 383.2 1280.1 401.7C1271.6 432.3 1252.7 453.6 1243.8 462.8C1249.9 460.5 1258 456.8 1266.5 450.5C1277 442.7 1283.7 434 1287.8 428C1289.2 443.2 1290.6 458.3 1292 473.5C1295 470.1 1298 466.7 1301 463.3C1299.2 454.3 1297.6 443.6 1297.3 431.4C1297 422.2 1297.5 413.8 1298.3 406.4C1299.8 406.8 1302.5 407.2 1305.6 406.2C1306.4 406 1309.4 405 1312.9 401C1318.5 394.7 1319.7 387.3 1320.2 384.2C1320.7 380.9 1321.1 376 1319.7 368.5C1317.5 356.4 1314.6 340.6 1303.4 336.4C1295.1 333.5 1286.5 337.7 1282.3 340.2Z" fill="#898989"/>
<path d="M1193.2 370.5C1190.3 363.9 1187.4 354.6 1189.6 344.5C1192.9 329.6 1205.1 321.8 1217.5 311.4C1229.1 301.8 1244.5 287 1260.2 264.7C1258.7 273.2 1257.1 281.6 1255.6 290.1C1262 284.4 1269.1 278.5 1276.8 272.6C1281.8 268.8 1286.8 265.3 1291.6 262C1290.2 263.9 1286.7 269.2 1286.5 276.8C1286.3 285.2 1290.1 291 1291.4 292.9C1292.8 291 1295.1 288.2 1298 284.7C1302.1 279.9 1303.3 278.9 1305.4 275.9C1309.7 269.8 1310.3 265.8 1311.1 265.9C1312.4 266.1 1312.9 275.1 1310.5 311C1315.2 305.7 1319.9 300.3 1324.5 295C1325.3 306.7 1326.2 318.4 1327 330.1C1328 335.7 1328.8 343.9 1327.6 353.5C1326.2 364.2 1322.9 372.5 1320.2 378C1318.1 376.1 1315 373.9 1311 373.7C1306.2 373.5 1304.6 376.2 1301.5 376C1294.8 375.5 1293.8 362.2 1285.5 351.7C1277.4 341.4 1265.7 338.1 1258.3 336C1251.4 334.1 1230.3 328.2 1212.1 340.9C1198.3 350.5 1194.3 365.6 1193.2 370.5Z" fill="#161616"/>
<path d="M1195.7 355.4C1190.7 365.1 1191.3 376.3 1191.7 386.9C1192.2 398.8 1193.8 410.8 1197.4 422.2C1203.4 441.1 1215.5 458.4 1233.8 466.9C1235.5 467.7 1237.1 465.1 1235.3 464.3C1217.7 456.1 1206 439.6 1200.3 421.4C1197 411.1 1195.5 400.3 1194.9 389.6C1194.3 378.8 1193.2 366.7 1198.3 356.8C1199.2 355.2 1196.6 353.7 1195.7 355.4Z" fill="black"/>
<path d="M1235.4 467.1C1264.9 459.4 1289.1 436.9 1299 408.2C1299.6 406.4 1296.7 405.6 1296.1 407.4C1286.5 435.2 1263 456.9 1234.6 464.2C1232.7 464.7 1233.5 467.6 1235.4 467.1Z" fill="black"/>
<path d="M1296.9 408.4C1303.9 408.3 1310.4 407.4 1314.4 401.1C1318.1 395.3 1323 386.5 1322.2 379.4C1321.6 374 1316.1 371.2 1311.2 371C1305.4 370.8 1300.1 373.9 1297.2 378.8C1296.2 380.5 1298.8 382 1299.8 380.3C1302.2 376.3 1306.5 373.8 1311.2 374C1313 374.1 1315.2 374.6 1316.7 375.7C1320.8 378.8 1319 383.7 1317.8 387.4C1316.4 391.5 1314.3 395.9 1311.8 399.6C1308.2 404.9 1302.7 405.3 1296.9 405.4C1294.9 405.4 1294.9 408.4 1296.9 408.4Z" fill="black"/>
<path d="M1296.6 406.4C1295.4 424.9 1294.5 443.6 1299.6 461.7C1300.1 463.6 1303 462.8 1302.5 460.9C1297.5 443.1 1298.5 424.7 1299.6 406.4C1299.7 404.5 1296.7 404.5 1296.6 406.4Z" fill="black"/>
<path d="M1259.3 455.9C1260.2 462.8 1262.1 469.5 1265.1 475.8C1266.7 479.3 1269.4 487 1274.1 487C1279.2 487 1284.9 482.1 1288.5 478.9C1293.8 474 1298.4 468.3 1303.2 462.8C1304.5 461.4 1302.4 459.2 1301.1 460.7C1297.6 464.7 1294.1 468.8 1290.4 472.8C1286.7 476.7 1281.9 481.9 1276.5 483.3C1273.1 484.2 1272.1 482.3 1270.5 479.6C1269.2 477.4 1268 475.1 1267 472.8C1264.5 467.2 1263 461.2 1262.2 455.1C1261.9 453.2 1259 454 1259.3 455.9Z" fill="black"/>
<path d="M1224.4 351C1222.9 371 1222.4 391.1 1223.1 411.1C1223.1 412.5 1225.2 413.3 1225.9 411.9C1228.7 406 1231.5 400.1 1234.3 394.2C1235.1 392.5 1232.5 390.9 1231.7 392.7C1228.9 398.6 1226.1 404.5 1223.3 410.4C1224.2 410.7 1225.2 410.9 1226.1 411.2C1225.4 391.1 1225.8 371.1 1227.4 351.1C1227.6 349.1 1224.6 349.1 1224.4 351Z" fill="black"/>
<path d="M1233.6 428.2C1231.2 426.7 1229.8 423.5 1231.2 420.8C1232.2 419 1234.2 417.9 1235.9 416.8C1237.7 415.6 1239.4 414.5 1240.8 412.9C1242.5 411 1243.4 408.6 1244.6 406.4C1246.9 402 1251.6 396.3 1256.7 401.1C1262.8 406.9 1257.4 420 1252.4 425C1247.3 430 1239.5 431.1 1233.2 428C1231.5 427.2 1229.9 429.7 1231.7 430.6C1239.7 434.5 1249.7 433 1255.6 426C1261.4 419.1 1266.7 404.2 1257.5 397.8C1254 395.4 1250 395.8 1246.7 398.4C1242.3 402 1241.6 408.2 1237.6 412C1234.1 415.3 1228.6 416.6 1227.8 422C1227.2 425.7 1229.1 428.9 1232.1 430.9C1233.7 431.8 1235.2 429.2 1233.6 428.2Z" fill="black"/>
<path d="M1211.6 377.2C1212.81 377.2 1213.8 374.021 1213.8 370.1C1213.8 366.179 1212.81 363 1211.6 363C1210.38 363 1209.4 366.179 1209.4 370.1C1209.4 374.021 1210.38 377.2 1211.6 377.2Z" fill="black"/>
<path d="M1247.3 372.6C1248.51 372.6 1249.5 369.421 1249.5 365.5C1249.5 361.579 1248.51 358.4 1247.3 358.4C1246.08 358.4 1245.1 361.579 1245.1 365.5C1245.1 369.421 1246.08 372.6 1247.3 372.6Z" fill="black"/>
</svg>
