<svg width="1490" height="1080" viewBox="0 0 1490 1080" fill="none" xmlns="http://www.w3.org/2000/svg">
<path d="M1084.8 224.4C1085 227.5 1085.1 230.6 1085.3 233.6C1085.3 234.2 1085.7 235 1086.4 235C1170.6 246.6 1255.5 236.8 1340 237C1363.9 237 1387.7 237.9 1411.5 240.2C1412.1 240.3 1412.8 239.7 1412.9 239.1C1413.7 235 1414.6 230.9 1415.4 226.8C1415.8 224.9 1412.9 224.1 1412.5 226C1411.7 230.1 1410.8 234.2 1410 238.3C1410.5 237.9 1411 237.6 1411.4 237.2C1327.7 229 1243.7 239.3 1159.8 237.5C1135.5 237 1111.2 235.4 1087.1 232.1C1087.5 232.6 1087.8 233.1 1088.2 233.5C1088 230.4 1087.9 227.3 1087.7 224.3C1087.7 222.5 1084.7 222.5 1084.8 224.4Z" fill="#E8E8E8"/>
<path d="M1087.3 225.9C1171.9 225.9 1256.6 225.9 1341.2 225.9C1365.2 225.9 1389.2 225.9 1413.2 225.9C1415.1 225.9 1415.1 222.9 1413.2 222.9C1328.6 222.9 1243.9 222.9 1159.3 222.9C1135.3 222.9 1111.3 222.9 1087.3 222.9C1085.4 222.9 1085.4 225.9 1087.3 225.9Z" fill="#E8E8E8"/>
<path d="M1105.5 223.5C1108 187.6 1110.1 151.6 1113.2 115.8C1113.6 111.1 1114.1 106.5 1114.9 101.9C1115.2 100.2 1115.3 96.6999 1116.3 95.2999C1117.6 93.4999 1120.4 93.4999 1122.4 93.1999C1127 92.3999 1134.7 89.5999 1137.9 94.2999C1138.8 95.6999 1139 98.5999 1139.3 100.3C1139.9 103.3 1140.3 106.3 1140.6 109.3C1142.2 126.9 1139.9 144.8 1138.6 162.4C1137.1 182.8 1135.6 203.2 1134.1 223.6C1134 225.5 1137 225.5 1137.1 223.6C1139.3 194.4 1141.7 165.3 1143.5 136.1C1144.3 122.7 1144.7 109 1141.4 95.7999C1140.5 92.0999 1139.1 88.9999 1134.9 88.5999C1128.5 88.0999 1121.1 90.2999 1114.9 91.5999C1114.4 91.6999 1114 92.1999 1113.9 92.5999C1108.6 113.3 1108.8 135.6 1107.3 156.8C1105.7 179 1104.2 201.3 1102.6 223.5C1102.4 225.4 1105.4 225.4 1105.5 223.5Z" fill="#E8E8E8"/>
<path d="M1142.7 133.2C1154.9 163.9 1167.8 194.3 1181.3 224.4C1182.1 226.2 1184.7 224.6 1183.9 222.9C1170.5 193 1157.7 162.8 1145.6 132.4C1144.9 130.6 1142 131.4 1142.7 133.2Z" fill="#E8E8E8"/>
<path d="M1145.3 117.1C1147.8 110 1155.5 106.1 1162.7 108.1C1164.6 108.6 1165.4 105.7 1163.5 105.2C1154.7 102.7 1145.4 107.7 1142.4 116.3C1141.8 118.2 1144.7 118.9 1145.3 117.1Z" fill="#E8E8E8"/>
<path d="M1162.7 108.7C1182.5 147.1 1202.2 185.6 1222 224C1222.9 225.7 1225.5 224.2 1224.6 222.5C1204.8 184.1 1185.1 145.6 1165.3 107.2C1164.4 105.4 1161.8 106.9 1162.7 108.7Z" fill="#E8E8E8"/>
<path d="M1214.8 82.9001C1218 129.4 1221.2 175.9 1224.3 222.4C1224.4 224.3 1227.4 224.3 1227.3 222.4C1224.1 175.9 1220.9 129.4 1217.8 82.9001C1217.7 81.0001 1214.7 81.0001 1214.8 82.9001Z" fill="#E8E8E8"/>
<path d="M1217.4 84.5C1222.5 79.9 1229.4 79.9 1235.8 81C1238.4 81.4 1241.2 81.9 1243.7 82.8C1248.3 84.5 1247.6 88.7 1247.8 92.8C1248.4 107.1 1248.9 121.4 1249.5 135.7C1250.6 164.6 1251.8 193.6 1252.9 222.5C1253 224.4 1256 224.4 1255.9 222.5C1254.5 187.9 1253.2 153.3 1251.8 118.8C1251.5 110.2 1251.1 101.5 1250.8 92.9C1250.6 88.5 1251.2 83.1 1246.6 80.7C1241.8 78.2 1234.4 77.3 1229 77.4C1223.8 77.5 1219.2 78.9 1215.4 82.4C1213.9 83.6 1216 85.8 1217.4 84.5Z" fill="#E8E8E8"/>
<path d="M1165.1 107C1174.6 107.6 1183.9 110.4 1193 113C1201.4 115.4 1209.6 118.4 1216.7 123.6C1218.3 124.7 1219.8 122.1 1218.2 121C1210.8 115.7 1202.4 112.6 1193.7 110.1C1184.3 107.4 1174.8 104.7 1165 104C1163.1 103.8 1163.1 106.8 1165.1 107Z" fill="#E8E8E8"/>
<path d="M1251.3 101.7C1255.7 100.6 1260.6 99.5 1265.2 100.4C1272 101.8 1273.4 107.8 1273.7 113.9C1274.2 126.2 1274.4 138.4 1274.7 150.7C1275.3 174.9 1275.6 199.1 1275.7 223.3C1275.7 225.2 1278.7 225.2 1278.7 223.3C1278.6 194.4 1278.2 165.6 1277.4 136.8C1277.2 129.8 1277 122.9 1276.8 115.9C1276.6 111.3 1276.7 106.2 1273.9 102.3C1268.7 95 1258 96.8 1250.6 98.7C1248.6 99.3 1249.4 102.2 1251.3 101.7Z" fill="#E8E8E8"/>
<path d="M1273.2 85.9001C1273.2 94.9001 1273.2 103.8 1273.2 112.8C1273.2 114.7 1276.2 114.7 1276.2 112.8C1276.2 103.8 1276.2 94.9001 1276.2 85.9001C1276.2 84.0001 1273.2 84.0001 1273.2 85.9001Z" fill="#E8E8E8"/>
<path d="M1277.6 87C1278.4 87.3 1279.3 87.6 1280.1 87.9C1280.2 88.6 1280.3 89.3 1280.4 90.1C1280.6 91.7 1280.6 93.4 1280.8 95.1C1281 97.7 1281.2 100.4 1281.4 103C1281.8 108.6 1282.1 114.3 1282.4 119.9C1283.1 131.5 1283.6 143.1 1284 154.7C1284.9 177.6 1285.2 200.5 1285.2 223.4C1285.2 225.3 1288.2 225.3 1288.2 223.4C1288.2 194.9 1287.6 166.3 1286.3 137.8C1285.6 123.9 1284.8 110 1283.8 96.1C1283.6 92.7 1284.2 86.5 1281.1 84.1C1279 82.5 1276.1 83.1 1275 85.5C1274.3 87.3 1276.8 88.8 1277.6 87Z" fill="#E8E8E8"/>
<path d="M1130.2 239.1C1133.3 244.3 1136.3 252.1 1141.3 255.8C1146.2 259.5 1152.2 256.2 1157.6 258.1C1159.4 258.7 1160.2 255.8 1158.4 255.2C1153.6 253.5 1148 256.2 1143.7 253.5C1138.8 250.5 1135.7 242.4 1132.8 237.5C1131.8 235.9 1129.2 237.4 1130.2 239.1Z" fill="#E8E8E8"/>
<path d="M1161.6 240.4C1161.2 245.6 1159.6 250.3 1157 254.7C1156 256.4 1158.6 257.9 1159.6 256.2C1162.6 251.3 1164.2 246 1164.6 240.4C1164.8 238.5 1161.8 238.5 1161.6 240.4Z" fill="#E8E8E8"/>
<path d="M1153.1 242.9C1154 247.5 1154.9 252.1 1155.9 256.7C1156.3 258.6 1159.2 257.8 1158.8 255.9C1157.9 251.3 1157 246.7 1156 242.1C1155.6 240.2 1152.7 241 1153.1 242.9Z" fill="#E8E8E8"/>
<path d="M1156.7 242.8C1156.9 242.8 1157.1 242.9 1157.3 243C1157.6 243.6 1157.6 244.2 1157.5 244.8C1157.4 245.5 1157.1 246.2 1156.9 246.9C1156.5 248.3 1156.4 249.6 1156.8 251C1157.4 252.9 1160 252.1 1159.7 250.2C1159.2 247.5 1159.6 244.8 1160.7 242.3C1159.7 242.2 1158.7 242 1157.8 241.9C1157.5 245 1157.3 248.2 1157 251.3C1156.8 253.2 1159.8 253.2 1160 251.3C1160.3 248.2 1160.5 245 1160.8 241.9C1161 240.1 1158.4 240.1 1157.9 241.5C1156.6 244.6 1156.4 247.8 1156.9 251C1157.9 250.7 1158.8 250.5 1159.8 250.2C1158.9 247.2 1162.4 243.5 1159.4 240.8C1157.6 239.2 1154.7 239.8 1154 242.1C1153.2 243.9 1156.1 244.7 1156.7 242.8Z" fill="#E8E8E8"/>
<path d="M1313.4 220.9C1312.5 217.2 1312.1 213.6 1312.4 209.8C1311.9 210.3 1311.4 210.8 1310.9 211.3C1328.6 210.4 1346.3 209.3 1364 208.9C1372.9 208.7 1381.8 208.7 1390.7 208.9C1392.7 208.9 1394.7 209 1396.6 209C1398.6 209.1 1402.7 208.4 1404.5 209.3C1408.5 211.2 1406.8 218.9 1406.8 222.4C1406.8 224.3 1409.8 224.3 1409.8 222.4C1409.8 217.7 1412.2 207.7 1405.8 206.4C1401.4 205.5 1396.2 206 1391.7 205.9C1386.1 205.8 1380.5 205.7 1374.9 205.8C1353.6 205.9 1332.3 207.2 1310.9 208.3C1310.1 208.3 1309.4 209 1309.4 209.8C1309.2 213.9 1309.5 217.8 1310.6 221.7C1310.9 223.6 1313.8 222.8 1313.4 220.9Z" fill="#E8E8E8"/>
<path d="M1324.5 190.8C1325.7 196.3 1326.6 201.8 1327 207.4C1327.1 209.3 1330.1 209.3 1330 207.4C1329.6 201.5 1328.7 195.7 1327.4 190C1327 188.2 1324.1 189 1324.5 190.8Z" fill="#E8E8E8"/>
<path d="M1326.5 192.7C1338.6 191.7 1350.7 190.6 1362.8 191.1C1374.2 191.6 1385.7 195.3 1397.1 194.1C1396.6 193.6 1396.1 193.1 1395.6 192.6C1395.2 197.9 1395.8 202.9 1397.5 208C1398.1 209.8 1401 209 1400.4 207.2C1398.8 202.4 1398.2 197.7 1398.6 192.6C1398.7 191.8 1397.9 191 1397.1 191.1C1385.7 192.2 1374.2 188.5 1362.8 188.1C1350.7 187.6 1338.5 188.7 1326.5 189.7C1324.6 189.8 1324.6 192.8 1326.5 192.7Z" fill="#E8E8E8"/>
<path d="M1224.7 503C1224.7 507.2 1224.7 511.3 1224.7 515.5C1224.7 517.4 1227.7 517.4 1227.7 515.5C1227.7 511.3 1227.7 507.2 1227.7 503C1227.7 501.1 1224.7 501.1 1224.7 503Z" fill="#E8E8E8"/>
<path d="M1226.2 502C1304 502 1381.8 502 1459.6 502C1461.5 502 1461.5 499 1459.6 499C1381.8 499 1304 499 1226.2 499C1224.2 499 1224.2 502 1226.2 502Z" fill="#E8E8E8"/>
<path d="M1228.6 515.8C1305.2 515.8 1381.7 515.8 1458.3 515.8C1460.2 515.8 1460.2 512.8 1458.3 512.8C1381.7 512.8 1305.2 512.8 1228.6 512.8C1226.7 512.8 1226.7 515.8 1228.6 515.8Z" fill="#E8E8E8"/>
<path d="M1458.1 503C1458.1 505.9 1458.1 508.8 1458.1 511.7C1458.1 513.6 1461.1 513.6 1461.1 511.7C1461.1 508.8 1461.1 505.9 1461.1 503C1461.1 501.1 1458.1 501.1 1458.1 503Z" fill="#E8E8E8"/>
<path d="M1247.8 469.3C1250.4 479.6 1252.8 490 1254.8 500.4C1255.2 502.3 1258.1 501.5 1257.7 499.6C1255.7 489.2 1253.4 478.8 1250.7 468.5C1250.2 466.6 1247.3 467.4 1247.8 469.3Z" fill="#E8E8E8"/>
<path d="M1299.8 468.4C1297.4 478.7 1295.4 489 1293.9 499.4C1293.6 501.3 1296.5 502.1 1296.8 500.2C1298.3 489.8 1300.3 479.4 1302.7 469.2C1303.1 467.3 1300.2 466.5 1299.8 468.4Z" fill="#E8E8E8"/>
<path d="M1239.6 463.7C1239.8 468.9 1247.6 468.5 1251.4 468.7C1260 469.1 1268.7 467.8 1277.3 467.3C1281.6 467 1285.9 466.9 1290.2 467.3C1293.7 467.6 1297.5 468.8 1300.9 468.1C1304.7 467.3 1307.1 463.7 1304.9 460.2C1303.9 458.6 1301.3 460.1 1302.3 461.7C1305.1 466.4 1295.6 464.9 1294.7 464.8C1292.6 464.5 1290.4 464.3 1288.3 464.2C1283.4 463.9 1278.4 464.2 1273.5 464.6C1270.3 464.8 1242.7 468.1 1242.6 463.7C1242.6 461.7 1239.6 461.7 1239.6 463.7Z" fill="#E8E8E8"/>
<path d="M1243.1 463.3C1241.3 457.7 1256.8 458.3 1259.4 458.2C1264 458 1268.7 457.8 1273.3 457.6C1275.8 457.5 1301.8 456.8 1301.1 458.7C1300.5 460.5 1303.4 461.3 1304 459.5C1307 450.6 1274.5 454.5 1270.3 454.7C1262.5 455 1253.8 454.3 1246.2 455.8C1242.2 456.6 1238.8 459.6 1240.2 464C1240.8 465.9 1243.7 465.1 1243.1 463.3Z" fill="#E8E8E8"/>
<path d="M1256.4 455C1251.8 452.9 1247.7 449.9 1244.5 446.1C1243.2 444.5 1234 431.2 1239.4 430.4C1240.3 430.3 1240.8 428.9 1240.3 428.2C1237.4 424 1236.2 418.6 1234.7 413.8C1233 408.6 1231.4 403.4 1229.7 398.3C1229.4 397.2 1228.9 396.2 1228.7 395.1C1228.2 393 1227.9 393 1230.4 392.8C1233.1 392.6 1234.5 394.7 1236.3 396.5C1239.7 399.9 1242.7 403.6 1245.4 407.5C1255.5 422.1 1261.1 439.3 1265.3 456.4C1265.8 458.3 1268.7 457.5 1268.2 455.6C1262.8 433.8 1254.9 411.4 1238.9 394.9C1236.7 392.6 1232.5 387.3 1228.8 387.9C1226 388.4 1225.2 391.4 1225.4 393.9C1225.8 399.5 1228.8 405.6 1230.6 411C1232.6 417.2 1233.9 424.4 1237.7 429.8C1238 429.1 1238.3 428.3 1238.6 427.6C1232 428.6 1235.8 437.8 1237.6 441.4C1241.4 448.7 1247.5 454.3 1254.9 457.8C1256.6 458.4 1258.1 455.8 1256.4 455Z" fill="#E8E8E8"/>
<path d="M1259.8 427.6C1259.5 414.9 1259.2 401.7 1263.5 389.6C1265.6 383.7 1268.8 378.4 1272.5 373.4C1273.4 372.1 1274.4 370 1275.8 369.2C1276.8 367.6 1278.3 367.4 1280.2 368.7C1282.6 368.1 1283.8 368.7 1283.8 370.5C1285 373.2 1284.6 377.8 1284.6 380.6C1284.6 387.3 1283 393.5 1281.4 399.9C1280.8 402.1 1280.3 404.4 1280.5 406.6C1280.7 409.2 1282.1 411.2 1282.8 413.6C1284.8 420.4 1281.3 427.4 1278.9 433.6C1276.5 440.1 1274 446.6 1271.6 453.2C1270.9 455 1273.8 455.8 1274.5 454C1277.7 445.4 1281.1 436.9 1284.1 428.2C1286.2 422.1 1287.2 416.8 1284.8 410.8C1281.6 402.7 1286.7 393.6 1287.4 385.3C1287.8 379.9 1288.7 370.7 1285.2 365.9C1277.6 355.4 1265.5 377.8 1263.1 382.8C1256.3 396.8 1256.4 412.5 1256.8 427.7C1256.9 429.6 1259.9 429.6 1259.8 427.6Z" fill="#E8E8E8"/>
<path d="M1234.6 403C1244.5 416.9 1250.4 433.6 1257.3 449.1C1258.1 450.9 1260.7 449.3 1259.9 447.6C1253.1 432 1247.1 415.4 1237.2 401.5C1236.1 399.9 1233.5 401.4 1234.6 403Z" fill="#E8E8E8"/>
<path d="M1262.2 395.9C1262.6 401.2 1264.4 405.9 1267.7 410C1268.9 411.5 1271 409.4 1269.8 407.9C1267.1 404.4 1265.5 400.3 1265.2 395.9C1265.1 394 1262.1 394 1262.2 395.9Z" fill="#E8E8E8"/>
<path d="M1275.8 395.2C1278.2 391.6 1280.7 388 1283.1 384.4C1284.2 382.8 1281.6 381.3 1280.5 382.9C1278.1 386.5 1275.6 390.1 1273.2 393.7C1272.2 395.3 1274.8 396.8 1275.8 395.2Z" fill="#E8E8E8"/>
<path d="M1305.6 393.2C1303.1 397.2 1299.5 400.3 1296.2 403.5C1292.6 406.9 1289 410.4 1285.4 413.8C1284 415.1 1286.1 417.3 1287.5 415.9C1294.4 409.3 1303.1 402.9 1308.2 394.7C1309.2 393.1 1306.6 391.6 1305.6 393.2Z" fill="#E8E8E8"/>
<path d="M1304.3 397.2C1304.5 402.5 1313.3 412.3 1306.5 415.5C1305.6 416 1305.6 417.2 1306.2 417.9C1308.5 420.7 1307 424.9 1306.7 428.2C1306.4 431.9 1306.7 435.6 1305.7 439.2C1303.9 446.1 1297.5 450.2 1291.8 453.8C1290.2 454.8 1291.7 457.4 1293.3 456.4C1300.2 452 1307.3 447 1308.9 438.4C1309.7 433.8 1309.7 429 1310.1 424.4C1310.5 421.1 1310.4 418.5 1308.2 415.9C1308.1 416.7 1308 417.5 1307.9 418.3C1317.4 413.8 1307.4 403.6 1307.2 397.4C1307.2 395.3 1304.2 395.3 1304.3 397.2Z" fill="#E8E8E8"/>
<path d="M1299.5 411.9C1292.6 423 1286.7 434.6 1281.8 446.8C1281.1 448.6 1284 449.4 1284.7 447.6C1289.5 435.7 1295.3 424.3 1302.1 413.4C1303.1 411.7 1300.5 410.2 1299.5 411.9Z" fill="#E8E8E8"/>
<path d="M1253.1 489.8C1257.1 495.2 1262.6 498.9 1269.2 500.3C1271.1 500.7 1271.9 497.8 1270 497.4C1264.2 496.2 1259.2 493.1 1255.7 488.3C1254.6 486.8 1252 488.3 1253.1 489.8Z" fill="#E8E8E8"/>
<path d="M1251.4 477.5C1261.7 485.4 1272.6 496.7 1285.8 499.4C1287.7 499.8 1288.5 496.9 1286.6 496.5C1273.8 493.9 1263 482.6 1252.9 474.9C1251.4 473.7 1249.9 476.3 1251.4 477.5Z" fill="#E8E8E8"/>
<path d="M1259.3 469.9C1265.5 475 1271.5 480.2 1277.8 485.1C1280.5 487.2 1283.3 489.2 1286.6 490.5C1289.7 491.8 1293 492.4 1295.8 494.4C1297.4 495.5 1298.9 492.9 1297.3 491.8C1295.1 490.3 1292.9 489.6 1290.5 488.7C1286.4 487.3 1283.1 485.4 1279.7 482.7C1273.5 477.9 1267.5 472.8 1261.5 467.8C1259.9 466.6 1257.8 468.7 1259.3 469.9Z" fill="#E8E8E8"/>
<path d="M1275.7 468.5C1281.5 474.5 1288.5 478.9 1296.5 481.5C1298.3 482.1 1299.1 479.2 1297.3 478.6C1289.8 476.1 1283.3 472 1277.8 466.3C1276.5 465 1274.3 467.1 1275.7 468.5Z" fill="#E8E8E8"/>
<path d="M1349.3 497.6C1348.7 496 1347.8 493.9 1347.9 492.2C1348.3 487.8 1351.3 487.4 1354.2 486.9C1358.4 486.1 1362.8 486 1367.1 486C1374.4 485.9 1381.8 486.5 1389.1 486.8C1396.4 487 1403.6 486.6 1410.9 486C1413.9 485.7 1419.2 484.5 1422.1 485.5C1425.1 486.6 1425.9 488.1 1426 490.9C1426.1 493.1 1426.1 495.3 1426.2 497.6C1426.3 499.5 1429.3 499.5 1429.2 497.6C1429.1 494.2 1430.1 488.2 1428.4 485C1426.8 482.2 1423.1 482.5 1420.3 482.5C1408.9 482.5 1397.8 484.2 1386.3 483.7C1375.7 483.3 1365 482.4 1354.5 484C1345.9 485.3 1343.7 490.6 1346.6 498.6C1347 500.2 1349.9 499.4 1349.3 497.6Z" fill="#E8E8E8"/>
<path d="M1370.5 481.5C1371.3 479.7 1372 477.9 1372.8 476.1C1373.7 476 1374.6 475.9 1375.5 475.7C1376.7 475.6 1377.8 475.7 1379 475.6C1381.6 475.6 1384.1 475.5 1386.7 475.5C1392.2 475.4 1397.6 475.4 1403.1 475.3C1408.2 475.2 1413.4 475.2 1418.5 475.1C1419.8 475.1 1421.1 475.1 1422.4 475C1424 475 1424.5 474.6 1425 475.8C1425.6 477.3 1424.5 481.5 1424.3 483.1C1424.1 485 1427.1 485 1427.3 483.1C1427.5 480.7 1429 475.7 1427.8 473.5C1426.8 471.7 1425.3 472 1423.3 472C1413.7 472 1404 472.3 1394.4 472.4C1389.9 472.5 1385.4 472.5 1380.9 472.6C1377.5 472.6 1373.3 472.2 1370.2 473.8C1366.6 475.7 1364.9 480.6 1368.4 483.5C1369.9 484.8 1372 482.7 1370.5 481.5Z" fill="#E8E8E8"/>
<path d="M1391.1 469.3C1388.5 465.8 1399.4 466.2 1400.1 466.1C1402.5 465.9 1410.7 464.4 1409.1 469.8C1408.5 471.7 1411.4 472.4 1412 470.6C1412.7 468.2 1411.9 466 1410 464.4C1406.7 461.7 1402.6 463 1398.7 463.2C1395.6 463.3 1391.9 462.3 1389.4 464.7C1387.6 466.3 1387.1 468.8 1388.5 470.8C1389.7 472.3 1392.3 470.8 1391.1 469.3Z" fill="#E8E8E8"/>
<path d="M1238.1 518C1241.9 523.2 1246.4 527.5 1251.7 531.1C1253.3 532.2 1254.8 529.6 1253.2 528.5C1248.4 525.2 1244.1 521.2 1240.7 516.4C1239.5 514.9 1236.9 516.4 1238.1 518Z" fill="#E8E8E8"/>
<path d="M1251.3 530.1C1254.6 530.1 1257.9 530.1 1261.2 530.1C1263.1 530.1 1266.2 530.6 1267.9 529.7C1269.2 529 1269.6 527.4 1270.2 526.2C1271.8 523 1273.7 520 1275.9 517.1C1277.1 515.6 1275 513.5 1273.8 515C1272.7 516.3 1271.7 517.7 1270.7 519.1C1269.5 521 1268.7 523.7 1267.3 525.4C1264.5 528.7 1255.4 527.2 1251.3 527.1C1249.4 527.1 1249.4 530.1 1251.3 530.1Z" fill="#E8E8E8"/>
<path d="M1262.4 517.8C1263.2 520.8 1264 523.9 1264.9 526.9C1265.4 528.8 1268.3 528 1267.8 526.1C1267 523.1 1266.2 520 1265.3 517C1264.8 515.1 1261.9 515.9 1262.4 517.8Z" fill="#E8E8E8"/>
<path d="M1384.3 517.3C1385.9 520.6 1387.6 523.8 1389.7 526.8C1390.8 528.4 1392.2 530.9 1394.1 531.8C1396.1 532.8 1398.9 532 1400.9 531.8C1404.5 531.4 1408.1 531.1 1411.7 530.7C1413.6 530.5 1413.6 527.5 1411.7 527.7C1409.3 527.9 1406.9 528.2 1404.5 528.4C1402.4 528.6 1399.3 529.5 1397.3 529.1C1392.1 528.1 1388.9 519.9 1386.9 515.7C1386 514 1383.4 515.5 1384.3 517.3Z" fill="#E8E8E8"/>
<path d="M1411.8 514.8C1410.6 519.1 1410 523.5 1410.1 527.9C1410.2 529.8 1413.2 529.8 1413.1 527.9C1413 523.7 1413.5 519.6 1414.6 515.6C1415.2 513.8 1412.3 513 1411.8 514.8Z" fill="#E8E8E8"/>
<path d="M1413.1 529.4C1417.1 525.6 1420.9 521.6 1424.6 517.5C1425.9 516.1 1423.8 513.9 1422.5 515.4C1418.8 519.5 1415 523.5 1411 527.3C1409.6 528.6 1411.7 530.7 1413.1 529.4Z" fill="#E8E8E8"/>
<path d="M770.9 224.4C770.9 252.6 770.9 280.7 770.9 308.9C770.9 310.8 773.9 310.8 773.9 308.9C773.9 280.7 773.9 252.6 773.9 224.4C773.9 222.5 770.9 222.5 770.9 224.4Z" fill="#E8E8E8"/>
<path d="M773.3 311.2C809 311.2 844.8 311.2 880.5 311.2C882.4 311.2 882.4 308.2 880.5 308.2C844.8 308.2 809 308.2 773.3 308.2C771.3 308.2 771.3 311.2 773.3 311.2Z" fill="#E8E8E8"/>
<path d="M773.3 225.9C808 225.9 842.6 225.9 877.3 225.9C879.2 225.9 879.2 222.9 877.3 222.9C842.6 222.9 808 222.9 773.3 222.9C771.3 222.9 771.3 225.9 773.3 225.9Z" fill="#E8E8E8"/>
<path d="M877.3 224.4C877.3 252.6 877.3 280.7 877.3 308.9C877.3 310.8 880.3 310.8 880.3 308.9C880.3 280.7 880.3 252.6 880.3 224.4C880.3 222.5 877.3 222.5 877.3 224.4Z" fill="#E8E8E8"/>
<path d="M826.7 221.9C826.6 220.6 826.8 219.4 827.4 218.2C827.7 217.5 828.9 215.7 829.6 216.2C830.4 216.7 830.7 219 830.8 219.8C831.1 221.3 831.1 222.8 830.9 224.3C830.7 226.2 833.7 226.2 833.9 224.3C834.1 221.7 833.9 219.1 833 216.6C832.4 215 831.6 213.1 829.7 212.9C825.6 212.4 823.5 218.7 823.7 221.8C823.8 223.9 826.8 223.9 826.7 221.9Z" fill="#E8E8E8"/>
<path d="M776.6 234.1C776.6 256.6 776.6 279 776.6 301.5C776.6 303.4 779.6 303.4 779.6 301.5C779.6 279 779.6 256.6 779.6 234.1C779.6 232.2 776.6 232.2 776.6 234.1Z" fill="#E8E8E8"/>
<path d="M778.1 303C809.5 303 840.9 303 872.3 303C874.2 303 874.2 300 872.3 300C840.9 300 809.5 300 778.1 300C776.2 300 776.2 303 778.1 303Z" fill="#E8E8E8"/>
<path d="M874.7 300.7C874.7 278.2 874.7 255.8 874.7 233.3C874.7 231.4 871.7 231.4 871.7 233.3C871.7 255.8 871.7 278.2 871.7 300.7C871.7 302.7 874.7 302.7 874.7 300.7Z" fill="#E8E8E8"/>
<path d="M778.9 236.4C809.2 236.4 839.5 236.4 869.9 236.4C871.8 236.4 871.8 233.4 869.9 233.4C839.6 233.4 809.3 233.4 778.9 233.4C777 233.4 777 236.4 778.9 236.4Z" fill="#E8E8E8"/>
<path d="M779.4 287.1C791.1 283.6 803 280.5 814.6 285.9C822.9 289.8 830.1 295.7 839.4 297.4C841.3 297.7 842.1 294.9 840.2 294.5C829.6 292.5 821.6 284.8 811.5 281.4C800.6 277.8 789.2 281 778.6 284.2C776.8 284.8 777.6 287.7 779.4 287.1Z" fill="#E8E8E8"/>
<path d="M818.4 285.4C832.7 280.4 847.6 278.6 862.6 280.1C864.5 280.3 864.5 277.3 862.6 277.1C847.3 275.6 832.1 277.4 817.6 282.5C815.8 283.2 816.6 286.1 818.4 285.4Z" fill="#E8E8E8"/>
<path d="M821.5 262.2C820.4 260.3 820.7 257.5 822.6 256.2C824.3 255 827 255.5 828.2 257.1C829.4 258.8 828.7 261.5 826.8 262.5C824.6 263.6 822.1 261.5 822.1 259.3C822.1 257.4 819.1 257.4 819.1 259.3C819 263.3 823.1 266.7 827.1 265.6C830.8 264.6 832.8 259.9 831.2 256.5C829.6 252.9 824.8 251.6 821.4 253.4C817.7 255.4 816.8 260.3 818.8 263.8C819.9 265.4 822.4 263.9 821.5 262.2Z" fill="#E8E8E8"/>
<path d="M1308.6 238.9C1312.2 243.7 1312.9 250.2 1317.3 254.4C1321.4 258.4 1326.3 257.8 1331.3 256C1333.1 255.4 1332.3 252.5 1330.5 253.1C1327.8 254 1324.7 255 1321.9 253.9C1319.5 252.9 1317.9 250.7 1316.7 248.4C1314.8 244.7 1313.7 240.7 1311.2 237.3C1310 235.8 1307.4 237.3 1308.6 238.9Z" fill="#E8E8E8"/>
<path d="M1330.9 254.8C1335.7 250.7 1339.9 246 1343.5 240.8C1344.6 239.2 1342 237.7 1340.9 239.3C1337.5 244.3 1333.4 248.8 1328.8 252.7C1327.3 253.9 1329.4 256.1 1330.9 254.8Z" fill="#E8E8E8"/>
<path d="M1323.6 237.8C1325 241.1 1325.6 244.5 1325.5 248C1325.4 249.9 1328.4 249.9 1328.5 248C1328.6 243.9 1327.8 240 1326.2 236.3C1325.5 234.5 1322.9 236 1323.6 237.8Z" fill="#E8E8E8"/>
<path d="M1243.5 629C1243.5 642.3 1243.5 655.7 1243.5 669C1243.5 670.9 1246.5 670.9 1246.5 669C1246.5 655.7 1246.5 642.3 1246.5 629C1246.5 627.1 1243.5 627.1 1243.5 629Z" fill="#E8E8E8"/>
<path d="M1207 674.5C1242.3 674.5 1277.7 674.5 1313 674.5C1314.9 674.5 1314.9 671.5 1313 671.5C1277.7 671.5 1242.3 671.5 1207 671.5C1205.1 671.5 1205.1 674.5 1207 674.5Z" fill="#E8E8E8"/>
<path d="M1264.5 677C1264.5 685.3 1264.5 693.7 1264.5 702C1264.5 703.9 1267.5 703.9 1267.5 702C1267.5 693.7 1267.5 685.3 1267.5 677C1267.5 675.1 1264.5 675.1 1264.5 677Z" fill="#E8E8E8"/>
<path d="M1206 706.5C1237.3 706.5 1268.7 706.5 1300 706.5C1301.9 706.5 1301.9 703.5 1300 703.5C1268.7 703.5 1237.3 703.5 1206 703.5C1204.1 703.5 1204.1 706.5 1206 706.5Z" fill="#E8E8E8"/>
<path d="M1229.5 709C1229.5 715.3 1229.5 721.7 1229.5 728C1229.5 729.9 1232.5 729.9 1232.5 728C1232.5 721.7 1232.5 715.3 1232.5 709C1232.5 707.1 1229.5 707.1 1229.5 709Z" fill="#E8E8E8"/>
<path d="M1239.5 224.8C1239.5 220.6 1238.7 215.3 1239.5 211.2C1240.6 205.4 1248.7 206.5 1253.4 206.2C1255.3 206.1 1255.3 203.1 1253.4 203.2C1249.6 203.4 1245.6 203.4 1241.8 204C1240.1 204.3 1238.6 204.8 1237.6 206.3C1236.4 208.1 1236.6 210.6 1236.6 212.7C1236.6 216.7 1236.6 220.8 1236.6 224.8C1236.5 226.8 1239.5 226.8 1239.5 224.8Z" fill="#E8E8E8"/>
<path d="M1221.9 113.1C1231 110.6 1240.1 111.2 1248.8 114.7C1250.6 115.4 1251.4 112.5 1249.6 111.8C1240.4 108.1 1230.7 107.6 1221.1 110.2C1219.2 110.8 1220 113.7 1221.9 113.1Z" fill="#E8E8E8"/>
<path d="M1218.2 104.1C1226.2 98.5999 1235.8 97.5999 1244.8 101.2C1246.6 101.9 1247.4 98.9999 1245.6 98.2999C1236 94.3999 1225.2 95.5999 1216.7 101.5C1215.1 102.6 1216.6 105.2 1218.2 104.1Z" fill="#E8E8E8"/>
<path d="M1185.7 156.5C1182.5 158.7 1176.4 161.6 1175.5 165.8C1175.1 168 1176.1 170 1176.9 172C1178.3 175.5 1179.7 179 1181.2 182.5C1187 196.2 1193.5 209.6 1200.7 222.6C1201.6 224.3 1204.2 222.8 1203.3 221.1C1197.8 211.1 1192.7 200.9 1188 190.5C1185.5 185 1183.1 179.4 1180.9 173.8C1179.6 170.5 1177.8 167.6 1180.2 164.2C1181.6 162.2 1185.2 160.5 1187.3 159.1C1188.8 158 1187.3 155.4 1185.7 156.5Z" fill="#E8E8E8"/>
<path d="M765.2 646.6C757 652.7 747.1 662.5 743.5 676.5C740.9 686.9 743.4 693 742.5 706.4C741.9 715.7 739.5 728.8 731.8 744.4C714.3 740.8 684.9 737.3 650.2 745.3C629.5 750.1 612.9 757.6 600.7 764.4C602.6 765.6 605.2 767 608.5 767.9C627.2 773 646.9 757.3 647.5 758.4C648.1 759.4 625.5 770 626.7 779.2C627.5 785.4 638.6 788.7 650.1 792.2C659.8 795.1 669 797.9 681.3 796.5C698.2 794.6 709.9 786.1 715.1 781.7C720.1 784.2 727.5 787.5 736.8 790.4C753.9 795.6 777.5 802.8 793.2 793C803.4 786.6 806.5 771.6 812.3 741.8C819.3 705.5 822.6 687.3 813.2 672.4C800.9 652.5 775.6 647.9 765.2 646.6Z" fill="#E8BEAC" stroke="#161616" stroke-width="3" stroke-miterlimit="10"/>
<path d="M728.6 745.5C740.7 750 750.7 758.2 757.6 769.1C758.6 770.7 761.2 769.2 760.2 767.6C752.9 756 742.2 747.4 729.4 742.6C727.5 741.9 726.8 744.8 728.6 745.5Z" fill="#161616"/>
<path d="M664.2 765.2C652.3 767.2 642.7 775.2 638.4 786.4C637.7 788.2 640.6 789 641.3 787.2C645.2 777 654.2 769.9 665 768.1C666.9 767.8 666.1 764.9 664.2 765.2Z" fill="#161616"/>
<path d="M678.2 775.2C673.9 777.8 669.9 780.8 666.1 784C663.6 786.2 660.8 788.8 661.4 792.4C662.9 801.9 674.3 799.8 680.5 797.4C682.3 796.7 681.5 793.8 679.7 794.5C677 795.5 674 796.8 671.1 796.7C666.4 796.5 662.2 792 666.2 787.9C670 783.9 675 780.7 679.7 777.7C681.3 776.7 679.8 774.1 678.2 775.2Z" fill="#161616"/>
<path d="M858.5 523.5C853.4 525.2 846.9 527.8 839.6 531.4C837.5 532.4 832.2 535.1 826.5 538.8C817.7 544.4 811.3 550.3 804 557.7C794.7 567.2 785.3 576.7 774.1 591.9C764.7 604.7 750.1 624.8 739.6 654.3C735.4 666 733 676.1 731.6 683.3C737.1 680.1 742.1 678.5 746 677.6C768.5 672.5 790.1 683.9 810.6 694.6C818.3 698.6 824.4 702.5 828.6 705.2C830.8 694.4 833 683.5 835.2 672.7C837.1 663.6 838.9 654.4 840.8 645.3C843.7 642.8 847.6 639.1 851.9 634.3C860 625.1 876.1 606.8 878.3 581.4C881 552.1 863.6 529.7 858.5 523.5Z" fill="#EC615B"/>
<path d="M852.6 524.7C841.9 526.3 832.7 532 824.4 538.6C814.8 546.1 805.8 554.4 797.4 563.2C781 580.2 766.7 599.2 754.9 619.7C753.9 621.4 756.5 622.9 757.5 621.2C768.9 601.4 782.5 583 798.3 566.5C806 558.5 814.1 550.9 822.6 543.8C831.7 536.3 841.4 529.3 853.4 527.5C855.3 527.3 854.5 524.4 852.6 524.7Z" fill="#161616"/>
<path d="M848.4 633.9C841 641.4 833.4 648.7 825.7 655.8C824.3 657.1 826.4 659.2 827.8 657.9C835.5 650.8 843.1 643.5 850.5 636C851.8 634.6 849.7 632.5 848.4 633.9Z" fill="#161616"/>
<path d="M838 647.6C834.5 666.8 831.1 686.1 827.6 705.3C828.3 705 829.1 704.7 829.8 704.4C813.9 693.3 796.2 685 777.4 679.8C762.7 675.8 744 671.9 731.4 683C730 684.3 732.1 686.4 733.5 685.1C746.3 673.7 767 679.7 781.5 684.1C798.2 689.2 813.9 697 828.2 706.9C829 707.4 830.2 706.9 830.4 706C833.9 686.8 837.3 667.5 840.8 648.3C841.2 646.5 838.3 645.7 838 647.6Z" fill="#161616"/>
<path d="M755.6 618.3C745.2 638.6 732.2 659.5 731.3 683C731.2 684.9 734.2 684.9 734.3 683C735.2 660.1 748 639.7 758.2 619.8C759 618.1 756.4 616.6 755.6 618.3Z" fill="#161616"/>
<path opacity="0.4" d="M844.5 580.5C826.6 616.1 816.9 646.1 811.2 667.1C802.9 697.9 800 722.2 778.5 742.4C775 745.7 764.7 755.2 748.5 761.1C714.5 773.4 689.3 756.8 667.9 774.4C665.5 776.4 658.4 781.4 659.2 787.1C660 792.5 667.4 795.3 668.5 795.8C677.3 799.2 686.4 795.7 697.8 791.1C710.7 785.9 709.3 784.1 715.1 783.1C727.3 781 732.9 788.7 749.1 793.8C756 795.9 776.4 802.3 791.1 793.8C801.9 787.5 805.2 775.7 810.4 755.8C814 742.3 817.7 722.6 817.1 697.8C821.1 700.9 825.1 704 829.1 707.1C834.3 664.9 839.4 622.7 844.5 580.5Z" fill="#3D3D3D"/>
<path opacity="0.38" d="M838.5 623.8C824.8 649.7 818.1 671.6 814.5 686.4C807.3 716.1 809.6 730.1 799.8 751C789.3 773.7 772.3 788.1 760.5 796.3C767.1 797.8 783 800.6 794.5 791.6C802.6 785.3 804.7 776.3 807.8 761.6C811.7 743.5 815.8 722.9 819.8 700.3C822.9 702.3 826 704.3 829.1 706.3C832.3 678.9 835.4 651.3 838.5 623.8Z" fill="#3D3D3D"/>
<path d="M856.4 521.5C852.8 545 849.3 568.7 845.9 592.5C832.7 684.8 821.3 775.5 811.7 864.7C811.9 867.7 812.7 872.5 815.7 877.3C818.7 882.2 822.7 884.7 824.6 886C842.8 899 851.9 905.6 861.1 910C905.2 931.3 954 928.8 954 928.8C964.3 928.3 984.8 927 1006.8 918.2C1008 917.7 1016.4 913.8 1033.2 905.9C1048.4 898.8 1051.1 897.4 1054.8 894C1063.6 885.9 1067 875.9 1069.3 868.8C1074.2 853.7 1073.7 840.9 1073.5 837.8C1073.5 837.8 1072.5 812.9 1071.8 667.5C1071.7 637.9 1074.6 594.4 1090.2 540.7C1074 532.8 1058.8 525.5 1040.5 516.7C1027.9 510.6 1016.2 505 999.4 503C994.6 502.4 990.3 502.2 983.9 502.3C957.9 502.5 936.5 506.5 927.3 508.1C909.4 511 885.2 515.4 856.4 521.5Z" fill="#EC615B"/>
<path d="M855.6 525C886.6 518.4 917.9 513.1 949.3 509.2C950.7 509 951.5 507.2 950.1 506.4C949.7 506.2 949.3 505.9 948.8 505.7C947.1 504.7 945.6 507.3 947.3 508.3C947.7 508.5 948.1 508.8 948.6 509C948.9 508.1 949.1 507.1 949.4 506.2C917.7 510.1 886.1 515.4 854.9 522.1C852.9 522.5 853.7 525.4 855.6 525Z" fill="#161616"/>
<path d="M846.3 577.4C835.3 655.8 825.3 734.3 816.3 813C815.2 822.9 814.1 832.7 813 842.6C812.1 851.2 809.6 860.9 810.7 869.5C811.7 877.1 817.7 881.9 823.2 886.5C829.2 891.5 835.5 896.2 842.1 900.5C869.2 918 900.9 928.5 933.1 930.4C971.4 932.6 1009.9 922.8 1042.6 902.8C1044.2 901.8 1042.7 899.2 1041.1 900.2C983.9 935.1 911.1 936.5 852.8 903.4C846.1 899.6 839.6 895.4 833.4 890.8C827.1 886.1 816.9 879.7 814.3 872C813.1 868.3 813.7 864.2 814.1 860.3C814.6 855.4 815.2 850.4 815.7 845.5C816.7 836.3 817.7 827.1 818.8 817.9C823.1 780.4 827.5 743 832.3 705.6C837.7 663.1 843.3 620.6 849.3 578.2C849.5 576.3 846.6 575.5 846.3 577.4Z" fill="#161616"/>
<path d="M993.6 502.1C1011.2 505.6 1027.7 513.7 1044.1 520.6C1060.2 527.4 1078.1 532.9 1092.3 543.3C1093.9 544.4 1095.4 541.8 1093.8 540.7C1079.9 530.5 1062.4 525.1 1046.7 518.5C1029.7 511.4 1012.6 502.9 994.4 499.2C992.5 498.8 991.7 501.7 993.6 502.1Z" fill="#161616"/>
<path d="M1072 671.7C1070.4 713.8 1068.8 755.9 1070.3 797.9C1071 818.3 1074.2 839.5 1070.4 859.8C1067.2 876.5 1057.8 893.2 1041.1 899.4C1039.3 900.1 1040.1 903 1041.9 902.3C1068.5 892.4 1075.4 862.1 1075 836.7C1074.8 819.5 1073.3 802.3 1072.9 785C1072.5 767.4 1072.7 749.9 1073 732.3C1073.4 712.1 1074.2 691.9 1074.9 671.7C1075.1 669.7 1072.1 669.7 1072 671.7Z" fill="#161616"/>
<path opacity="0.38" d="M1057.6 648C1052.3 666.2 1044 686.1 1031.2 705.9C973.9 794 869 811.6 842.2 815.3C878.2 819.1 914.6 823.2 951.4 827.6C992 832.4 1032.1 837.5 1071.6 842.7C1069.1 798 1069.1 761.2 1069.7 734.9C1070.8 680.5 1074.7 636.5 1067.6 635.1C1065.9 634.7 1062.9 636.6 1057.6 648Z" fill="#3D3D3D"/>
<path opacity="0.42" d="M1069.9 680.7C1066.3 691.3 1060.8 706.3 1052.7 723.6C1041.3 748.1 1030.4 771.7 1016.3 786.2C976.9 826.7 899.9 809.2 899.7 812C899.6 813.6 927.8 818.1 1070.2 831.2C1070.2 781 1070.1 730.9 1069.9 680.7Z" fill="#3D3D3D"/>
<path d="M1249.3 1093C882.3 1044 515.2 995 148.2 946.1C256.5 883.3 364.9 820.5 473.2 757.7C804.3 790.3 1135.5 823 1466.6 855.6C1394.1 934.7 1321.7 1013.9 1249.3 1093Z" fill="white" stroke="#161616" stroke-width="3" stroke-miterlimit="10"/>
<path d="M144.6 954.6C512.5 1003.4 880.4 1052.2 1248.2 1101" stroke="#161616" stroke-width="16" stroke-miterlimit="10"/>
<path d="M1241.2 1103.2C1318.3 1021.7 1395.4 940.1 1472.4 858.6" stroke="#161616" stroke-width="16" stroke-miterlimit="10"/>
<path d="M1118.4 889C1080.9 918.3 1044.2 948.5 1008.1 979.5C1006.6 980.8 1008.8 982.9 1010.2 981.6C1046.3 950.6 1083.1 920.4 1120.5 891.1C1122 890 1119.9 887.8 1118.4 889Z" fill="#161616"/>
<path d="M1009.5 981.1C1021.3 983.6 1033.3 983.6 1045.4 983.7C1059 983.9 1071.8 985.3 1084.8 989.1C1109.2 996.2 1133.1 1000.9 1158.6 1000.3C1160.5 1000.3 1160.5 997.3 1158.6 997.3C1145.5 997.6 1132.4 996.8 1119.4 994.7C1107.2 992.7 1095.6 989.1 1083.7 985.8C1072.3 982.6 1060.9 981.1 1049 980.9C1036 980.6 1023 981 1010.2 978.3C1008.4 977.8 1007.6 980.7 1009.5 981.1Z" fill="#161616"/>
<path d="M1120.6 891.2C1160.2 894.4 1199.5 900.7 1238.1 910.1C1240 910.6 1240.8 907.7 1238.9 907.2C1200.1 897.7 1160.5 891.4 1120.6 888.2C1118.7 888 1118.7 891 1120.6 891.2Z" fill="#161616"/>
<path d="M1160.9 998.5C1188.8 970.9 1215.6 942.1 1241 912.1C1242.2 910.6 1240.1 908.5 1238.9 910C1213.5 939.9 1186.7 968.7 1158.8 996.4C1157.4 997.8 1159.5 999.9 1160.9 998.5Z" fill="#161616"/>
<path d="M1044.4 969.2C1078.8 965 1113.6 969.3 1145.9 981.9C1147.7 982.6 1148.5 979.7 1146.7 979C1114.2 966.4 1079 962 1044.4 966.2C1042.5 966.4 1042.5 969.4 1044.4 969.2Z" fill="#161616"/>
<path d="M1096.5 958.2C1117.7 959.8 1138.6 963.1 1159.3 968C1161.2 968.5 1162 965.6 1160.1 965.1C1139.2 960.1 1118 956.8 1096.5 955.2C1094.5 955.1 1094.6 958.1 1096.5 958.2Z" fill="#161616"/>
<path d="M1080.6 936.1C1112.5 936.8 1144.1 941.4 1174.9 949.9C1176.8 950.4 1177.6 947.5 1175.7 947C1144.7 938.5 1112.8 933.8 1080.6 933.1C1078.7 933.1 1078.7 936.1 1080.6 936.1Z" fill="#161616"/>
<path d="M1120.2 926.9C1137.4 929.3 1154.4 932.3 1171.4 935.9C1173.3 936.3 1174.1 933.4 1172.2 933C1155.2 929.4 1138.2 926.4 1121 924C1119.1 923.7 1118.3 926.6 1120.2 926.9Z" fill="#161616"/>
<path d="M1098.3 994C1092.2 1003.4 1086.1 1012.8 1079.9 1022.1C1079.3 1023 1080.1 1024.5 1081.2 1024.4C1130.5 1018.8 1180.5 1022 1228.7 1033.8C1230.6 1034.3 1231.4 1031.4 1229.5 1030.9C1181 1019 1130.8 1015.8 1081.2 1021.3C1081.6 1022.1 1082.1 1022.8 1082.5 1023.6C1088.6 1014.2 1094.7 1004.8 1100.9 995.5C1102 993.9 1099.4 992.4 1098.3 994Z" fill="#161616"/>
<path d="M1219.2 937.2C1238.5 936.8 1257.7 936.4 1277 936C1276.5 935.4 1276 934.7 1275.6 934.1C1262.3 965.8 1248.9 997.4 1235.6 1029.1C1234.9 1030.9 1237.8 1031.7 1238.5 1029.9C1251.8 998.2 1265.2 966.6 1278.5 934.9C1278.9 934 1277.9 933 1277.1 933C1257.8 933.4 1238.6 933.8 1219.3 934.2C1217.3 934.3 1217.3 937.3 1219.2 937.2Z" fill="#161616"/>
<path d="M1146.1 1011.7C1151.2 1010.7 1156.3 1010.5 1161.5 1010.9C1163.4 1011 1163.4 1008 1161.5 1007.9C1156 1007.5 1150.7 1007.8 1145.3 1008.8C1143.4 1009.1 1144.2 1012 1146.1 1011.7Z" fill="#161616"/>
<path d="M1174.5 1012C1190.2 1012.6 1205.9 1014.1 1221.5 1016.5C1223.4 1016.8 1224.2 1013.9 1222.3 1013.6C1206.5 1011.1 1190.5 1009.6 1174.5 1009C1172.6 1008.9 1172.6 1011.9 1174.5 1012Z" fill="#161616"/>
<path d="M1175.4 993.2C1179.1 993.2 1182.8 993.2 1186.6 993.2C1188.5 993.2 1188.5 990.2 1186.6 990.2C1182.9 990.2 1179.2 990.2 1175.4 990.2C1173.5 990.2 1173.5 993.2 1175.4 993.2Z" fill="#161616"/>
<path d="M1198.7 992.9C1211 993.2 1223.2 994.4 1235.4 996.4C1237.3 996.7 1238.1 993.8 1236.2 993.5C1223.8 991.5 1211.3 990.3 1198.7 989.9C1196.8 989.9 1196.8 992.9 1198.7 992.9Z" fill="#161616"/>
<path d="M1196.8 975.8C1210.8 976 1224.7 976.8 1238.6 978.4C1240.5 978.6 1240.5 975.6 1238.6 975.4C1224.7 973.8 1210.8 972.9 1196.8 972.8C1194.9 972.7 1194.9 975.7 1196.8 975.8Z" fill="#161616"/>
<path d="M1102.9 1009C1109.6 1009.2 1116.2 1008.4 1122.8 1006.8C1124.7 1006.3 1123.9 1003.4 1122 1003.9C1115.7 1005.5 1109.4 1006.2 1102.9 1006C1101 1006 1101 1009 1102.9 1009Z" fill="#161616"/>
<path d="M1150.4 852.3C1147.8 855.5 1144.8 862 1147.9 865.9C1149.8 868.3 1153.4 867.8 1156.1 867.9C1161 868.1 1165.9 868.4 1170.8 868.6C1190.7 869.5 1210.5 870.5 1230.4 871.4C1232.3 871.5 1232.3 868.5 1230.4 868.4C1215.7 867.7 1201.1 867 1186.4 866.3C1179.2 866 1172.1 865.6 1164.9 865.3C1161.4 865.1 1157.7 865.3 1154.2 864.8C1151.6 864.4 1149.7 864.3 1149.8 861.1C1149.9 858.6 1151 856.3 1152.5 854.4C1153.7 852.9 1151.6 850.7 1150.4 852.3Z" fill="#161616"/>
<path d="M1153.1 856.1C1169.9 856.7 1186.7 857.2 1203.5 857.8C1211.7 858.1 1220 858.3 1228.2 858.6C1235.6 858.9 1243.4 859.4 1248.7 865.1C1250 866.5 1252.1 864.4 1250.8 863C1246.8 858.6 1241.4 856.9 1235.6 856.1C1227 855 1218.1 855.2 1209.4 854.9C1190.6 854.3 1171.8 853.6 1153.1 853C1151.2 853.1 1151.2 856.1 1153.1 856.1Z" fill="#161616"/>
<path d="M1229.4 871.5C1237.1 871.6 1244.4 869.2 1250.6 864.6C1252.1 863.5 1250.6 860.9 1249.1 862C1243.3 866.3 1236.7 868.6 1229.4 868.5C1227.4 868.5 1227.4 871.5 1229.4 871.5Z" fill="#161616"/>
<path d="M1231.8 856.1C1227.6 858.9 1225.7 864.1 1227.1 868.9C1227.6 870.7 1230.5 870 1230 868.1C1229 864.6 1230.2 860.7 1233.3 858.6C1234.9 857.6 1233.4 855 1231.8 856.1Z" fill="#161616"/>
<path d="M502.1 496.6C499.6 491.4 492.5 491 488.7 494.9C484.6 499.1 482.7 507.2 483.1 512.9C484 524.4 495.2 529.8 498.2 540.1C499.6 544.8 506.8 546.3 509.2 541.5C513.2 533.6 518.8 526.8 523.8 519.6C528.2 513.2 534.9 503.3 532.5 495.1C531.5 491.6 528.4 488.6 524.6 488.2C520 487.7 516.8 490.5 514.1 493.9C511.4 497.4 509 501 507 504.9C505.2 508.3 503.8 512.3 500.3 514.2C503.2 515.4 506.2 516.6 509.1 517.8C507.8 513.5 506.5 509.2 505.3 505C502 506.9 498.6 508.9 495.3 510.8C499.8 515.9 507.5 516.6 512.9 512.3C515.4 510.3 516.8 507.6 518.5 505C519.3 503.8 520 502.7 521.2 501.9C522 501.3 523 500.9 524 500.6C526 500.5 525.9 500.3 523.8 500C522.8 498.3 521.8 496.5 520.8 494.8C520.8 495 520.8 495.3 520.8 495.5C522.3 493.6 523.7 491.6 525.2 489.7C525 489.8 524.8 489.8 524.6 489.9C517.3 492.2 520.4 503.8 527.8 501.5C528 501.4 528.2 501.4 528.4 501.3C531.1 500.5 532.6 498.2 532.8 495.5C532.8 495.3 532.8 495 532.8 494.8C532.9 492.7 531.5 490.7 529.8 489.6C524.8 486.4 517.4 489.5 513.3 492.8C511 494.7 509.4 496.9 507.8 499.4C506.8 501 505.7 504.4 503.8 502.2C499.8 497.7 492.1 502.5 493.8 508C495.1 512.3 496.4 516.6 497.6 520.8C498.7 524.6 503 526.3 506.4 524.4C511.5 521.7 514.3 517 516.8 512C518.3 509.1 519.8 506.3 521.7 503.7C522 503.2 524.7 500.4 524.6 499.9C522 497.7 520.7 497.8 520.5 500.2C520.3 501 520 501.7 519.7 502.4C514.7 514.5 504.7 523.7 498.8 535.3C502.5 535.8 506.1 536.3 509.8 536.7C507.9 530.2 503.6 525.5 499.5 520.3C497.8 518.1 495.9 515.7 495.3 513C494.9 511.1 495.1 509.4 495.6 507.6C495.9 506.4 496.3 505.3 496.8 504.2C498.5 501.8 496.8 501.2 491.8 502.5C495.1 509.6 505.4 503.5 502.1 496.6Z" fill="#A2D2FF"/>
<path d="M508.6 529.4C517.4 518.8 525.1 507.5 531.5 495.4C535.1 488.6 524.7 482.5 521.1 489.3C515.2 500.6 508.3 511.2 500.1 520.9C495.2 526.8 503.6 535.3 508.6 529.4Z" fill="#A2D2FF"/>
<path d="M532.3 359.7C530.7 370.2 531.1 380.5 533.9 390.8C535.4 396.4 544.1 394 542.6 388.4C540.3 379.8 539.6 370.9 541 362.1C541.8 356.4 533.1 354 532.3 359.7Z" fill="#EC615B"/>
<path d="M535.7 364.3C546.7 369 555.5 359.8 555.9 349C555.9 348 555.3 345.3 555.7 344.4C555.5 344.4 555.3 344.4 555.2 344.4C556.1 344.7 556.8 345.2 557.2 346.1C558.8 348.1 559.6 350.7 561.3 352.7C564.8 356.8 569.6 357.4 574.7 357.7C577.2 357.8 580.2 357.5 581.7 359.9C583.2 362.2 582.4 366.1 582.2 368.7C582 372.3 581.7 376 581.4 379.6C581.3 380.5 580.4 383.9 581.7 382.6C580.9 383.5 577.6 383.7 576.5 384C569.9 385.5 563.1 386.1 556.4 385.7C552.9 385.5 547.6 385.9 545.6 382.8C543.8 379.9 543.7 375.5 544.2 372.2C541.5 372.6 538.7 372.9 536 373.3C538.4 378.6 540.7 383.9 543.1 389.3C544.7 392.8 550.5 391.8 551.3 388.2C553.7 377.4 550.4 366.1 553.8 355.5C551.3 356.2 548.8 356.8 546.3 357.5C549.2 361 548.5 368.5 549.2 372.8C550 377.8 551.4 382.4 553.7 386.8C555.8 390.6 562.4 389 562.1 384.5C561.3 372.5 560.5 360.4 559.8 348.4C556.9 348.8 553.9 349.2 551 349.6C555.2 360.9 555.8 372.7 552.5 384.3C554.7 383.4 556.9 382.5 559.1 381.6C553.5 377.3 549.3 371.7 546.4 365.3C544.5 361.2 537.8 363.3 538 367.6C538.2 371.6 538.3 375.6 538.5 379.6C541.5 379.6 544.5 379.6 547.5 379.6C547.3 374.6 547.5 369.7 548.5 364.8C548.9 363.1 549.3 361.3 549.8 359.6C550.1 358.5 550.5 357.3 550.9 356.2C552.2 354.6 552 354 550.3 354.4C555.1 361.2 555.7 371.4 554.9 379.3C557.7 378.5 560.5 377.8 563.3 377C561 372.3 559.5 367.3 558.9 362.1C558.6 359.4 558.5 356.7 558.7 354C558.7 353.6 559.2 350.8 559 350.6C558.3 350.7 557.6 350.7 556.9 350.8C557.3 351.6 557.7 352.3 558.1 353.1C562.7 362.5 564.1 373.1 563 383.5C565.8 382.7 568.6 382 571.4 381.2C569.6 377.3 568.2 373.2 567.4 369C567.1 367.2 566.9 365.4 567.1 363.6C567.2 362.6 567.4 361.6 567.7 360.6C568.8 359.4 568.9 358.9 568 359.2C566.8 359 565.7 358.9 564.5 358.7C566.1 359.5 567.1 367.4 567.4 369.2C568 373.5 567.9 378 567.3 382.3C570.2 382.3 573.1 382.3 576 382.3C574.9 379.1 574.1 375.8 573.6 372.5C573.1 369.3 573.4 366 572.4 362.9C574.6 369.8 574.2 377.1 572.2 383.9C574.9 383.5 577.7 383.2 580.4 382.8C579.2 380.2 578.2 377.4 577.7 374.5C577.4 373.1 577.3 371.7 577.2 370.3C577.2 369.7 577.1 369.1 577.2 368.5C577.5 367.1 576.8 367 575.2 368.1C574.3 367.4 573.4 366.7 572.5 366C578.2 375.8 566.8 386.7 557.1 385.3C558.2 386.7 559.3 388.2 560.4 389.6C560.3 387.8 559.7 385.2 560.3 383.5C559.6 384.4 558.9 385.3 558.2 386.2C556.5 387.3 565.6 386 561.8 385.6C556.6 385.1 555.8 393.1 560.6 394.4C565.4 395.7 569.8 398.3 574.9 397.7C579.3 397.2 582.6 394.6 584.4 390.7C586.3 386.6 586.7 381.8 586.1 377.3C585.8 374.8 585.2 372.5 584.2 370.3C583.8 369.3 583.3 368.3 582.8 367.3C582.5 366.7 582.1 366.1 581.7 365.5C581.3 364.6 581.1 364.8 581.3 366.1C584.1 366.9 586.9 367.6 589.7 368.4C589.8 366.5 590 364.7 590.1 362.8C587.2 363.2 584.2 363.6 581.3 364C583 369 582.7 373.6 580.7 378.5C578.5 383.9 587.2 386.2 589.4 380.9C591.9 374.6 592.1 368 590 361.6C588.4 356.7 581.5 357.7 581.2 362.8C581.1 364.7 580.9 366.5 580.8 368.4C580.5 372.8 587.3 374.7 589.2 370.7C591.4 365.9 590.8 359.7 585.7 357C581.3 354.7 575.4 356.7 573.3 361.2C570.4 367.4 576.9 372.9 577.5 378.9C577.8 381.7 577.8 387.3 574.7 388.7C571.7 390 566 386.5 563.2 385.7C562.8 388.6 562.4 391.6 562 394.5C571.1 395.3 571.3 383.3 565 379.4C561.9 377.5 557.7 376 554.4 378C550.3 380.5 551.5 385.5 551.6 389.5C551.7 391.3 552.9 393.6 554.9 393.8C570.9 396.1 585.5 383.3 582.4 366.6C581.8 363.3 580.5 359.6 576.8 358.9C573.7 358.3 570.6 360.1 569.3 362.9C566 370 569.9 380.5 572.9 387C574.6 390.7 580.1 389.4 581.1 385.9C583.1 379.2 583.7 372.3 582.5 365.4C581.6 360.2 580 353.4 573.5 353.2C559 352.9 565 376.7 567.5 384.2C568.8 388 575.4 388.9 576.2 384.2C577.4 376.5 577.3 368.8 575.3 361.2C574.1 356.7 571.7 347.9 565.2 350.2C560 352.1 558.4 359.6 558.4 364.5C558.4 371.7 561 378.8 564 385.1C566.1 389.6 572 386.8 572.4 382.8C573.3 374.4 572.6 365.9 570.2 357.8C568.5 352.1 565.4 340.6 557.8 340.9C550.4 341.1 550 350.6 550 356C550 364.7 552.2 373.1 556 381C558.1 385.4 564 382.7 564.4 378.7C565.2 371.6 564.5 364.4 562.3 357.6C560.7 352.6 558.1 345.4 552.1 344.7C545.5 344 543.2 351.6 541.7 356.5C539.5 363.7 538.8 371.3 539.1 378.9C539.4 384.7 548.3 384.7 548.1 378.9C547.9 374.9 547.8 370.9 547.6 366.9C544.8 367.7 542 368.4 539.2 369.2C542.8 377.1 548.3 383.5 555.1 388.7C557.5 390.5 561 388.5 561.7 386C565.5 373 565 359.2 560.2 346.5C558.5 342.1 551 342.3 551.4 347.7C552.2 359.7 553 371.8 553.7 383.8C556.5 383 559.3 382.3 562.1 381.5C556.9 371.8 560.4 358.9 553.3 350.3C551 347.5 546.7 349.3 545.8 352.3C542.3 363 545.7 374.2 543.3 385C546 384.6 548.8 384.3 551.5 383.9C549.1 378.6 546.8 373.3 544.4 367.9C542.9 364.5 536.8 365.3 536.2 369C535.1 376 535.6 385.8 541.7 390.6C544.5 392.8 548.2 393 551.7 393.4C556.4 393.9 561.2 394.1 566 393.8C570.6 393.5 575.1 392.8 579.6 391.8C582.6 391.1 586.6 390.6 588.7 388.2C591.4 385.3 590.9 380.6 591.2 376.9C591.5 372.5 592 368.2 592.1 363.8C592.2 356.6 589.3 350.3 581.9 348.5C578.9 347.8 575.8 348.2 572.7 347.7C567.9 347 567.4 342.9 564.8 339.5C561.5 335.1 554.4 332.3 549.9 336.6C547 339.4 547.6 343 547.7 346.6C547.8 349.8 546.2 357.9 541.1 355.7C535 354.3 530.4 362.1 535.7 364.3Z" fill="#EC615B"/>
<path d="M270.7 414.1C277.7 420.5 284.3 427.4 290 435C293.8 440 297.7 450 304.5 451.4C308.5 452.2 311.7 450.1 314.7 447.7C318.8 444.4 322.8 441 326.9 437.6C331 434.2 335 430.9 339.1 427.5C342 425.1 345.3 422.9 345.5 418.8C345.7 414.9 343.2 412 340.9 409.1C337.7 405 334.4 400.9 331.2 396.8C328 392.7 324.7 388.6 321.5 384.5C319.1 381.5 316.9 377.5 312.9 376.6C309.3 375.8 306 377.9 303 379.5C299 381.6 295.1 384 291.4 386.5C284.1 391.5 277.3 397.2 271.1 403.6C269.2 405.6 269.4 409.3 272 410.7C278.5 414 284.7 417.9 290.3 422.7C292.8 424.8 295.2 427.1 297.5 429.5C298.6 430.7 299.7 431.9 300.8 433.2C301.5 434 302.2 434.9 302.9 435.7C303.8 438.1 305.1 438 306.7 435.2C307.1 437.9 307.4 440.7 307.8 443.4C318.2 437.1 327.7 429.3 335.9 420.3C339.3 416.5 335 410.7 330.4 413.2C323.4 417 316.2 420.1 308.7 422.5C310.4 424.7 312.1 426.9 313.8 429.1C318 422.4 323.2 416.6 329.3 411.5C326.9 409.7 324.6 407.9 322.2 406C316.7 414.2 309.8 421.4 301.9 427.3C304.1 429 306.3 430.7 308.5 432.4C311.1 423 316.4 414.7 324.3 408.8C322.2 406.7 320.2 404.7 318.1 402.6C313.6 411.5 307.3 419.1 299.2 424.9C300.7 424.9 302.2 424.9 303.7 424.9C304 425.2 304.2 425.6 304.5 425.9C304.7 425.1 304.9 424.3 305.1 423.6C305.4 422.6 305.7 421.6 306.1 420.5C307 417.8 308.2 415.3 309.5 412.8C312 408.1 315.1 404 318.8 400.2C316.4 398.4 314.1 396.6 311.7 394.7C306.4 405.6 299.1 415.1 289.9 423.1C292.5 424.2 295 425.2 297.6 426.3C298.7 414.5 303.8 403.7 312.1 395.2C309.7 393.4 307.4 391.6 305 389.7C300.9 397.7 294.9 404 287.1 408.5C289.4 409.8 291.6 411.1 293.9 412.4C293.8 408.8 294.3 405.3 296 402.1C296.7 400.7 297.6 399.4 298.6 398.3C300.2 396.4 303.2 395.9 300.4 394.1C299.1 392.5 298.4 392.6 298.3 394.6C297.8 395.6 297.4 396.6 296.9 397.6C296.1 399.1 295.3 400.5 294.5 401.9C293.6 403.3 292.7 404.7 291.7 406C290.9 407 290.2 408 289.3 409C287.9 409.8 287.8 410.4 289 410.7C289.7 411.6 290.4 412.5 291.1 413.4C290.1 410.2 293.4 404.2 294.9 401.5C295.8 400 301 391.4 303.3 391.9C304.4 392.1 305.9 397.7 306.3 398.7C307.1 400.9 307.8 403.2 308.3 405.5C308.8 407.8 309.4 410.2 309.4 412.5C309.4 415.2 309.4 415.3 307.2 413.4C300.9 408 300.2 394.3 309.5 391.2C314.2 389.6 315.6 395.6 316.7 399C318.3 403.9 319.8 408.9 321.4 413.9C323.9 412.4 326.4 411 328.9 409.5C323.3 404 320.3 397 320.1 389.1C318.2 390.5 316.3 392 314.4 393.4C324.9 397.4 326.6 410.6 328 420.2C328.8 425.9 337.5 423.5 336.7 417.8C334.7 404.2 331 390 316.8 384.7C314.1 383.7 311 386.3 311.1 389C311.3 399.2 315.3 408.5 322.5 415.7C325.6 418.8 331.4 415.7 330 411.3C328.2 405.6 326.6 399.9 324.6 394.3C323.2 390.3 321.4 386.1 317.7 383.7C309.7 378.4 300.3 384.4 296.2 391.7C291.5 400.2 292.7 410.8 299.1 418C304.4 423.9 314.7 427.1 317.6 417.2C320.2 408.4 315.7 395.4 311.3 387.8C305.3 377.6 295.4 385.3 290.3 391.9C287.6 395.4 285.5 399.2 284 403.3C282.6 407.1 280.3 413.3 283.1 417C289.7 425.6 299.2 411 302.1 406.2C304.6 402.2 308.2 396.7 307.6 391.7C307 387 302.6 384.8 298.4 386.6C289.2 390.6 284.5 402.9 284.9 412.2C285 415.6 288.6 417.8 291.7 416.1C300.7 410.9 308 403.3 312.8 394.1C315.1 389.7 309.4 384.9 305.7 388.6C295.7 398.8 289.9 411.8 288.6 426C288.2 430.2 293.6 431.5 296.3 429.2C306 420.8 313.9 410.5 319.5 399C321.6 394.6 316.2 389.7 312.4 393.5C306.6 399.5 302 406.4 298.8 414.1C296.7 419.2 292.3 428.9 299.1 432.4C300.5 433.1 302.3 433.3 303.6 432.4C313 425.7 320.6 417.2 325.8 406.9C327.6 403.3 323.6 397.8 319.6 400.7C309.8 408.1 302.9 417.9 299.7 429.7C298.7 433.2 303 437.2 306.3 434.8C315.6 428 323.4 419.9 329.9 410.3C332.9 405.8 326.5 401.8 322.8 404.8C316.1 410.3 310.5 416.8 305.9 424.2C303.8 427.5 307.3 432 311 430.8C319.3 428.2 327.3 424.8 334.9 420.6C333.1 418.2 331.3 415.9 329.4 413.5C321.7 422 312.9 429.3 303.1 435.2C299.5 437.4 300.7 442 304.2 443.4C308.4 445.1 312.9 441.7 313.1 437.4C313.4 432.2 308 427.3 304.8 423.9C296.7 415.1 287 407.9 276.4 402.6C276.7 405 277 407.3 277.3 409.7C282 404.9 287 400.5 292.3 396.5C297.1 392.9 303.1 388.1 308.8 386.2C310.5 385.6 310.4 385.3 311.8 386.7C313.2 388.1 314.3 389.8 315.4 391.3C317.6 394.1 319.9 397 322.1 399.8C324.5 402.9 327 406 329.4 409.1C330.7 410.8 336 415.9 335.6 417.8C335.2 420 329.7 423.2 327.9 424.7C325.1 427 322.3 429.3 319.5 431.6C316.7 433.9 313.9 436.2 311.1 438.5C309.9 439.5 307.3 442.4 305.2 441.3C304.4 440.9 303 437.9 302.5 437.2C295.2 426.2 286.5 416.3 276.8 407.4C272.8 403.9 266.4 410.2 270.7 414.1Z" fill="#EC615B"/>
<path d="M275.5 406.1C279.1 413.1 301.7 452.1 311.3 438.8C314.7 434.1 306.9 429.6 303.5 434.3C303.3 434.5 303.2 434.8 303 435C304.3 434.3 305.6 433.5 306.9 432.8C305.2 433 301.1 427.3 300 426C297.8 423.5 295.6 421 293.6 418.3C289.7 413 286.3 407.4 283.3 401.6C280.7 396.4 272.9 401 275.5 406.1Z" fill="#EC615B"/>
<path d="M454.4 282.6C443.7 274.8 439.6 258.8 446.3 247.1C449.6 241.3 455.6 236.6 462.6 237.4C469.8 238.2 473.3 243.4 473.8 250.2C474.1 254 473.7 257.9 473.6 261.7C473.4 265.3 473.8 269.5 472.8 273C471.8 276.5 468.2 278.4 466.8 281.9C465.6 284.9 466.9 287.5 463.4 288.5C462.4 288.8 461 288.7 460.1 289C458.5 288.8 458.5 289.1 460.1 289.8C459.7 288.5 459.4 287.3 459 286C457.7 281.6 456.4 277.1 455.1 272.7C452.9 265.3 448.3 254.4 454.1 247.5C451.7 247.8 449.3 248.1 446.8 248.4C450.3 251 449 261.6 449.2 265.2C449.5 272.7 449.8 280.2 450.1 287.7C450.4 295.6 461.3 295.3 462.1 287.7C462.9 279.8 461.8 272 461.5 264C461.3 260.6 461.3 257.1 461.8 253.7C462 252 462.4 250.4 462.9 248.8C463.2 247.7 463.7 246.6 464.2 245.6C465.3 243.9 465.3 243.7 464.3 245C462.8 245.2 461.2 245.4 459.7 245.6C459.4 245.5 460.8 249.2 461 250C461.4 251.5 461.6 253.1 461.8 254.6C462.2 258.8 462.2 263.1 462 267.3C461.9 269.2 461.7 271.1 461.4 273.1C461.2 274.3 461 275.5 460.8 276.7C459.8 279.1 461.5 279.7 465.9 278.2C466.3 277.4 465.2 274.2 465.1 273.3C464.9 271.2 464.8 269 464.9 266.9C465 262.8 465.5 258.9 466.5 254.9C466.8 253.7 467.1 252.6 467.5 251.4C469 248.8 467.4 247.9 462.7 248.8C462.3 249.5 463.9 253.3 464.1 254C465 258.2 465.2 262.5 464.8 266.8C464.6 268.8 464.4 275.3 462.1 275.8C454.6 277.6 457.8 289.2 465.3 287.4C473.2 285.5 475.4 277.5 476.4 270.4C477.5 262 477.1 252.5 473.9 244.6C470.8 237 461.7 236.9 457.7 243.9C453.7 250.9 452.8 260.8 452.9 268.7C453 275.1 453.1 286.1 460.8 288.4C469.3 290.9 472.3 281.7 473.2 275.3C474.4 266.9 474.7 258.3 473.3 249.9C472.3 243.7 468.3 231.8 459.8 234.1C451.6 236.2 450 250.5 449.6 257.3C449.1 267.5 451.3 277.6 450.3 287.8C454.3 287.8 458.3 287.8 462.3 287.8C461.9 277.7 461.5 267.6 461 257.5C460.7 249.8 459.5 243 453 238.2C451.1 236.7 447.3 237.3 445.7 239.1C439.1 246.9 438.6 256.5 440.9 266.1C442.1 271.3 443.8 276.5 445.3 281.6C446.7 286.4 447.5 292.2 450.1 296.4C454.2 303.2 465.6 301.6 471.5 298.1C474.6 296.3 476.7 293.3 477.5 289.8C478 287.6 477.8 286.7 479.2 284.9C480.8 282.9 482.4 281.3 483.4 278.9C485.1 275.1 485.2 270.9 485.4 266.9C485.6 261.9 486.1 256.8 486 251.7C485.8 242.8 482.9 234.4 475.2 229.3C460.4 219.5 441.8 228.6 434.8 243.4C426.6 260.9 433.2 281.6 448.5 292.8C454.6 297.5 460.6 287.1 454.4 282.6Z" fill="#A2D2FF"/>
<path d="M453.8 309.1C455.8 312.3 459.4 313.5 463 312.4C464.6 311.9 466 311 467.2 309.9C467.5 309.6 467.9 309.3 468.2 308.9C468.5 308.6 468.4 308.6 468 309C469.9 308 468.4 307.7 463.6 307.9C466 309.9 469.8 310.4 472.1 307.9C474.2 305.7 474.6 301.6 472.1 299.4C469.2 296.9 465.5 296.5 462.1 298.5C461 299.1 459.9 300 459.1 301C458.4 301.9 460 300.4 458.9 301.2C459.1 301.1 459.3 301 459.5 301C457.4 301.5 458.9 302.2 464 303.1C462.3 300.4 458.6 299.1 455.8 300.9C453.3 302.6 452 306.3 453.8 309.1Z" fill="#A2D2FF"/>
<path d="M456.6 317C456.6 317.3 456.6 317.6 456.6 317.9C456.6 319.4 457.3 321.1 458.4 322.1C459.4 323.1 461.1 323.9 462.6 323.9C464.2 323.8 465.8 323.3 466.8 322.1C467.9 320.9 468.6 319.5 468.6 317.9C468.6 317.6 468.6 317.3 468.6 317C468.6 315.5 467.9 313.8 466.8 312.8C465.8 311.8 464.1 311 462.6 311C461 311.1 459.4 311.6 458.4 312.8C457.3 313.9 456.6 315.3 456.6 317Z" fill="#A2D2FF"/>
<path d="M397.2 206.4C423.5 175.1 448.7 142.9 472.9 109.8C470.6 110.7 468.4 111.6 466.1 112.6C468.4 113.3 470.1 114.5 471.8 116.2C471.5 113.8 471.2 111.4 470.9 108.9C447.8 141.9 424.8 174.8 401.7 207.8C404.4 207.1 407.2 206.4 409.9 205.6C407.9 204.4 405.9 203.2 403.9 201.9C404.6 204.6 405.3 207.4 406.1 210.1C416.6 196.4 426.2 182.2 434.9 167.3C438.8 160.6 428.4 154.6 424.5 161.2C415.8 176 406.2 190.3 395.7 204C393.7 206.6 395.4 210.7 397.9 212.2C399.9 213.4 401.9 214.6 403.9 215.9C406.8 217.7 410.3 216.4 412.1 213.7C435.2 180.7 458.2 147.8 481.3 114.8C482.8 112.6 482.1 109.3 480.4 107.5C477.3 104.3 473.6 102.1 469.4 100.8C466.7 99.9 464.2 101.4 462.6 103.6C439.1 135.8 414.5 167.2 388.8 197.7C383.8 203.8 392.3 212.4 397.2 206.4Z" fill="#A2D2FF"/>
<path d="M329.9 546.4C329.9 546.1 329.9 545.8 329.9 545.5C329.9 537.8 317.9 537.8 317.9 545.5C317.9 545.8 317.9 546.1 317.9 546.4C317.9 554.2 329.9 554.2 329.9 546.4C329.9 546.1 329.9 545.8 329.9 545.5C329.9 537.8 317.9 537.8 317.9 545.5C317.9 545.8 317.9 546.1 317.9 546.4C317.9 554.2 329.9 554.2 329.9 546.4Z" fill="#A2D2FF"/>
<path d="M234.1 462.7C241.8 462.7 241.8 450.7 234.1 450.7C226.4 450.7 226.4 462.7 234.1 462.7Z" fill="#A2D2FF"/>
<path d="M261.2 468C267 468 267 459 261.2 459C255.4 459 255.4 468 261.2 468Z" fill="#EC615B"/>
<path d="M628.7 239.4C634.5 239.4 634.5 230.4 628.7 230.4C622.9 230.4 622.9 239.4 628.7 239.4Z" fill="#EC615B"/>
<path d="M685.1 375.4C685.1 376 685.1 376.5 685.1 377.1C685.1 378.3 685.6 379.5 686.4 380.3C687.2 381.1 688.5 381.7 689.6 381.6C690.8 381.5 692 381.2 692.8 380.3C693.6 379.4 694.1 378.3 694.1 377.1C694.1 376.5 694.1 376 694.1 375.4C694.1 374.2 693.6 373 692.8 372.2C692 371.4 690.7 370.8 689.6 370.9C688.4 371 687.2 371.3 686.4 372.2C685.6 373.1 685.1 374.2 685.1 375.4Z" fill="#EC615B"/>
<path d="M648.8 304C665.8 306.7 689.6 314.6 683.3 336.8C680.4 347 672.4 354.3 664.5 360.8C656.7 367.1 649 373.3 641.9 380.4C635.1 387.2 628.9 394.6 623.2 402.4C618.7 408.6 612.5 416.3 613.2 424.6C613.8 432 620.3 433.8 626.2 436.1C634.7 439.4 643.7 445.2 647 454.1C651.4 466.1 642.2 476.7 633.5 483.8C625.7 490.2 617.2 495.7 611.9 504.5C610.9 506.2 613.5 507.7 614.5 506C624 490 648.2 483.6 650.9 463.4C652 455.5 648.4 448.1 642.7 442.8C639.9 440.1 636.6 437.9 633.2 436C629.1 433.8 624.3 432.9 620.3 430.6C609.1 424.1 623.1 407.5 627.9 401.2C634.8 392.1 642.5 383.7 651 376.1C664.6 363.7 685.9 352.7 687.4 332C688.9 311 666.4 303.9 649.8 301.3C647.7 300.8 646.9 303.7 648.8 304Z" fill="white"/>
<path d="M353.4 300.8C335.6 322.7 315.5 342.6 293.3 360C271.5 377.1 247.8 390.7 223.7 404.2C201.5 416.7 179.1 429.5 160.1 446.8C151.6 454.5 142.2 463.5 137.4 474.2C133.7 482.5 133.4 493.3 142.9 497.6C148.1 499.9 154.2 499.1 159.6 498.2C168.4 496.7 177.1 494.8 185.8 493.1C194.7 491.4 203.6 489.6 212.5 487.9C221 486.3 236.9 484.8 237.3 497.5C237.4 499.4 240.4 499.4 240.3 497.5C239.9 485.7 227.3 482.7 217.6 483.9C202.8 485.8 188.2 489.5 173.5 492.3C163.2 494.3 135.7 502.6 137.7 482.9C139 470.2 151 459.2 159.7 450.9C178.1 433.5 200.2 420.6 222.2 408.2C245.3 395.2 268.3 382.4 289.5 366.4C313.9 347.9 336 326.5 355.3 302.8C356.7 301.4 354.6 299.3 353.4 300.8Z" fill="white"/>
<path d="M194.3 506.2C185.5 516.8 175.2 529.3 176.8 544C178 555.3 186.1 565.9 198.3 565.1C206.1 564.6 213 560.3 219.8 557C228.3 552.9 237 549.2 246 546.5C254.9 543.9 264.2 542.2 273.5 542C280.9 541.9 289.3 542.4 295.5 547C304.9 553.8 299.1 564 294.1 571.6C289.2 578.9 284.9 586.4 281.1 594.3C277.7 601.5 274.7 609 272.3 616.6C270.5 622.3 268.4 629 272.8 634C282.2 644.9 296.5 635.6 304.4 628.2C316.5 616.9 329.6 607.5 344.7 600.5C361.6 592.7 380 588.1 398.5 587.1C407.9 586.6 417.4 586.9 426.7 588.4C435 589.7 444.3 592.3 448.2 600.6C449 602.3 451.6 600.8 450.8 599.1C445.4 587.4 430.6 585.6 419.2 584.5C404.3 583.1 389.1 584.2 374.5 587.4C359.9 590.6 345.6 596 332.6 603.4C326.2 607 320.2 611.1 314.4 615.6C307.9 620.7 302.4 627 295.8 631.7C289.9 635.9 277.3 639 273.8 629.8C272.1 625.3 274.3 620.1 275.7 615.7C277.2 611.1 278.9 606.6 280.8 602.2C284.1 594.4 288 586.9 292.4 579.7C296.3 573.4 302.1 567 303.5 559.5C305.8 547.3 293.8 541 283.5 539.5C268.2 537.4 252 540.9 237.6 546.1C228.8 549.3 220.5 553.4 212.1 557.5C203.4 561.8 192.6 565.1 185.2 556.6C171.4 540.8 185.9 520.9 196.4 508.2C197.7 506.8 195.6 504.7 194.3 506.2Z" fill="white"/>
<path d="M251.8 556.8C261.2 553.8 269.5 563 269.7 571.9C269.9 581.3 263.7 589.4 257.5 595.8C256.1 597.2 258.3 599.3 259.6 597.9C267.2 590.1 275.1 579 272.1 567.4C269.7 558.3 260.5 550.9 251 553.9C249.2 554.5 249.9 557.4 251.8 556.8Z" fill="white"/>
<path d="M601.1 298.8C605.7 302.6 611.1 303.4 616.8 304.6C623 305.9 628.4 308.3 632.7 313.1C640.8 322.2 643.3 335.9 637.3 346.7C636.4 348.4 638.9 349.9 639.9 348.2C645.7 337.8 644.5 325 638.1 315.2C635.1 310.6 630.9 306.6 625.8 304.2C618.6 300.8 609.6 301.9 603.2 296.7C601.7 295.5 599.6 297.6 601.1 298.8Z" fill="white"/>
<path d="M234.4 511.8C240.1 527.1 258.2 523.2 269.3 517.2C276.4 513.4 283 508.5 288.8 502.9C295 496.8 300 489.6 306.1 483.4C312.8 476.6 322.2 470.4 332.3 472.1C341.4 473.6 346.9 481.7 352.7 487.9C360.3 495.9 375.6 504.1 383.3 491.4C384.3 489.7 381.7 488.2 380.7 489.9C375.8 497.9 365.4 495.1 359.4 490.3C354 485.9 350.1 479.9 344.8 475.4C334.8 466.8 322.3 467.6 311.7 474.8C300 482.7 292.9 495.8 282.2 504.9C275.9 510.2 268.6 515.1 260.8 518C252.5 521.1 240.9 520.9 237.3 511.1C236.6 509.2 233.7 510 234.4 511.8Z" fill="white"/>
<path d="M259.4 418.6C272.2 429.7 282.9 442.9 291.2 457.7C292.1 459.4 294.7 457.9 293.8 456.2C285.4 441.1 274.6 427.8 261.5 416.5C260.1 415.2 257.9 417.4 259.4 418.6Z" fill="white"/>
<path d="M262 415.4C272.8 401.1 288.1 386.5 305.1 380C307.8 379 310.9 378.1 313.8 378.8C317.4 379.6 319.5 382.7 321.6 385.5C324.6 389.4 327.5 393.4 330.4 397.4C336.1 405.4 341.5 413.7 346.6 422.1C347.6 423.7 350.2 422.2 349.2 420.6C342.8 410.1 335.9 399.8 328.6 389.9C323.1 382.4 318.1 373.6 307.4 376.1C298.1 378.3 289.2 385.1 281.9 390.8C273.4 397.5 265.9 405.3 259.3 413.9C258.3 415.4 260.9 416.9 262 415.4Z" fill="white"/>
<path d="M293 459C313.4 450.4 331.6 437.8 346.7 421.6C348 420.2 345.9 418.1 344.6 419.5C329.9 435.3 312.1 447.8 292.2 456.1C290.4 456.9 291.2 459.8 293 459Z" fill="white"/>
<path d="M273.6 417.4C285 407.1 297.7 398.6 311.7 392.1C313.4 391.3 311.9 388.7 310.2 389.5C296 396.1 283.1 404.8 271.5 415.3C270 416.5 272.2 418.7 273.6 417.4Z" fill="white"/>
<path d="M281.9 422.4C288.1 417.9 294.3 413.5 300.5 409C302.1 407.9 300.6 405.3 299 406.4C292.8 410.9 286.6 415.3 280.4 419.8C278.8 421 280.3 423.6 281.9 422.4Z" fill="white"/>
<path d="M286.1 429.3C296.5 422 306.9 414.6 317.3 407.3C318.9 406.2 317.4 403.6 315.8 404.7C305.4 412 295 419.4 284.6 426.7C283 427.8 284.5 430.4 286.1 429.3Z" fill="white"/>
<path d="M294.9 437.5C301.3 432.3 308 427.7 315 423.4C316.7 422.4 315.1 419.8 313.5 420.8C306.2 425.1 299.3 430 292.8 435.3C291.3 436.6 293.4 438.7 294.9 437.5Z" fill="white"/>
<path d="M299.5 445.7C308.9 438 319.1 431.6 330 426.3C331.7 425.5 330.2 422.9 328.5 423.7C317.3 429.1 307 435.8 297.4 443.6C295.9 444.8 298 446.9 299.5 445.7Z" fill="white"/>
<path d="M505.1 508.5C510 502.3 504.2 494.7 497.7 492.9C489.9 490.7 481 494.4 477.1 501.4C472.7 509.2 474.5 519.4 480.2 526C487.5 534.6 506.5 539.8 503.1 554C502.6 555.9 505.5 556.7 506 554.8C509.9 538.6 490.4 533.6 482.3 523.9C476.6 517 475.6 505.4 482.8 499.1C485.7 496.6 489.8 495.1 493.6 495.3C498.1 495.5 507.8 500.4 503.1 506.5C501.8 507.9 503.9 510 505.1 508.5Z" fill="white"/>
<path d="M506.7 507.9C507.5 502.5 510 497.7 514 494C515.9 492.2 518.1 490.8 520.5 489.7C521.7 489.2 523 488.7 524.3 488.4C527.1 487.8 527.7 487.8 530 489.8C532.3 491.9 532.4 492.5 532.3 495.4C532.3 496.5 532.1 497.6 532 498.6C531.7 500.6 531.1 502.5 530.4 504.4C528.9 508.5 526.6 512.3 524.2 515.9C515.6 528.7 503.3 540.4 502.6 556.7C502.5 558.6 505.5 558.6 505.6 556.7C506.5 534.8 529.2 522.2 534.4 501.8C535.4 497.9 536.2 492.9 534.5 489.1C532.4 484.7 527.8 484.5 523.6 485.5C513.4 487.9 505.6 496.8 504 507.1C503.5 509 506.4 509.9 506.7 507.9Z" fill="white"/>
<path d="M523.7 356.9C521.9 366.6 521.5 376.8 523.7 386.5C525.8 395.8 532.5 393.8 540.2 394.3C557.7 395.5 580.9 406.6 592.4 386.8C593.4 385.1 590.8 383.6 589.8 385.3C580 402.2 559.4 393.9 544.4 391.8C540.9 391.3 537.6 391.3 534.1 391.4C528.7 391.4 527.1 388.8 526.3 384C524.8 375.3 525 366.5 526.7 357.8C526.9 355.8 524 355 523.7 356.9Z" fill="white"/>
<path d="M524.1 361.7C529.5 358.4 534.2 357.8 540.3 356.8C542.9 356.4 544.6 355.4 545 352.7C546.1 345.9 543.2 338.9 548.6 333.1C554.6 326.6 562.7 332.4 565.2 339C566.4 342.1 567.1 345.7 569.5 348.2C572.6 351.5 576.7 350.6 580.6 351.7C595.7 355.8 591.2 375.3 588 385.8C587.4 387.6 590.3 388.4 590.9 386.6C594.3 375.7 597.7 362.1 588.6 353C587.1 351.5 585.4 350.3 583.5 349.5C580.6 348.3 577.4 348.9 574.4 347.8C568.6 345.7 568.7 337.1 565.2 332.7C558.9 324.9 548.1 326 543.8 335.1C542.6 337.6 542.2 340.2 542 342.9C541.8 346.1 543.3 352.5 539.9 353.8C537.5 354.8 533.8 354.4 531.2 355.2C528.1 356.1 525.3 357.5 522.6 359.1C521 360.2 522.5 362.8 524.1 361.7Z" fill="white"/>
<path d="M536 358.6C534.5 370.4 536.5 382.1 541.7 392.8C542.5 394.5 545.1 393 544.3 391.3C539.3 381.1 537.5 369.9 539 358.6C539.3 356.7 536.3 356.7 536 358.6Z" fill="white"/>
<path d="M439.8 292.1C426.9 286.1 419.2 272.2 419.9 258C420.7 243.5 430.5 230.3 443 223.4C450.8 219.1 459.1 217.8 467 222.4C474.2 226.5 479.3 233.6 482.2 241.2C487.4 255 485.5 270.7 477.3 283C476.2 284.6 478.8 286.1 479.9 284.5C493.5 264.2 490.4 228.9 465.5 218.4C453 213.1 439.7 220.2 430.7 229C421.9 237.6 416.2 249.9 416.9 262.3C417.7 276 425.7 288.9 438.2 294.8C440 295.5 441.5 292.9 439.8 292.1Z" fill="white"/>
<path d="M438.4 295.7C435.8 298.5 436.5 302.8 439.7 304.9C444.9 308.3 453.9 305.2 459.4 303.9C465.3 302.5 474.2 301.2 478.2 296C480.6 292.8 480.6 288.4 477.5 285.7C476 284.5 473.9 286.6 475.4 287.8C480 291.7 474 296.2 470.4 297.6C467.4 298.7 464.3 299.6 461.2 300.4C458.3 301.1 455.4 301.8 452.5 302.3C450.7 302.6 448.7 303.1 446.9 303.2C444.3 303.3 436.8 301.9 440.6 297.9C441.9 296.4 439.8 294.3 438.4 295.7Z" fill="white"/>
<path d="M444.2 306.4C444.6 312.3 449.6 316.1 455.4 316.5C463.4 317 469.4 310.3 474.1 304.8C475.3 303.3 473.2 301.2 472 302.7C468.7 306.6 465 311.1 460.1 312.8C455.1 314.6 447.7 312.6 447.3 306.4C447.1 304.5 444.1 304.5 444.2 306.4Z" fill="white"/>
<path d="M452.3 317.6C451.5 321.7 454 326 458.3 326.7C462.7 327.4 466.5 323.5 466.6 319.3C466.6 317.4 463.6 317.4 463.6 319.3C463.6 321.8 461.2 324.3 458.5 323.7C456.2 323.2 454.7 320.6 455.2 318.4C455.6 316.5 452.7 315.7 452.3 317.6Z" fill="white"/>
<path d="M431.8 254.3C440.4 259.8 447 267.5 451.2 276.8C452 278.6 454.6 277 453.8 275.3C449.4 265.5 442.4 257.5 433.3 251.7C431.6 250.7 430.1 253.3 431.8 254.3Z" fill="white"/>
<path d="M447.2 247C449.1 261.4 451.1 275.8 453 290.1C453.3 292 456.1 291.2 455.9 289.3C454 274.9 452 260.5 450.1 246.2C449.8 244.3 447 245.1 447.2 247Z" fill="white"/>
<path d="M452.4 271.5C455 262.1 461 254.5 469.5 249.7C471.2 248.8 469.7 246.2 468 247.1C458.9 252.2 452.3 260.6 449.5 270.7C449 272.6 451.9 273.4 452.4 271.5Z" fill="white"/>
<path d="M343.4 528.6C347.4 537.3 351.7 545.9 356.5 554.2C358.9 558.3 362.1 566.1 368 563.6C369.8 562.8 368.2 560.3 366.5 561C362.7 562.6 355.9 547.1 354.6 544.6C351.5 538.9 348.7 533 346 527.1C345.2 525.3 342.6 526.8 343.4 528.6Z" fill="white"/>
<path d="M346.1 530.4C354.6 523.8 362.9 517 371.5 510.6C379 504.9 387.1 499.4 396.3 496.8C406.2 493.9 414.8 496.2 421.4 504.2C427 511 430.4 519.4 434.2 527.2C435 528.9 437.6 527.4 436.8 525.7C429.5 510.7 420.9 489.5 400.4 492.8C390.2 494.4 381 500 372.7 506C362.9 513.2 353.5 520.9 343.9 528.4C342.5 529.5 344.6 531.6 346.1 530.4Z" fill="white"/>
<path d="M363.9 563.9C390 558.2 414.2 546 434.5 528.6C436 527.3 433.8 525.2 432.4 526.5C412.5 543.6 388.7 555.4 363.1 561.1C361.2 561.5 362 564.4 363.9 563.9Z" fill="white"/>
<path d="M388.2 535.7C382.9 534.4 378.5 529.2 379.8 523.5C381 518 387.7 514 393 516.6C403.7 522 396.4 537.4 385.4 533.5C383.6 532.9 382.8 535.8 384.6 536.4C390.8 538.6 398.3 535.6 400.7 529.3C403.1 523.1 399.2 515.6 393.1 513.4C386.5 511 379 515.5 377.1 522.1C374.9 529.5 380.3 536.8 387.4 538.6C389.3 539.1 390.1 536.2 388.2 535.7Z" fill="white"/>
<path d="M441.5 459.8C440.3 449.1 440.2 436.9 452.9 434C459.3 432.5 464.6 430.6 468.3 424.7C472.1 418.7 471.6 413.1 470.1 406.5C469 401.3 469.1 396.8 473.3 392.9C476.7 389.8 481.2 388.6 485.6 390C487.4 390.6 488.2 387.7 486.4 387.1C480 385.1 473.3 387.6 469.2 392.9C462.9 401.2 470.3 409.6 467.8 418.5C466.3 423.8 462.2 428.3 456.9 430.1C452.6 431.5 448 431.4 444.4 434.4C436.8 440.6 437.5 451.1 438.5 459.8C438.7 461.7 441.7 461.7 441.5 459.8Z" fill="white"/>
<path d="M417.1 403.8C414 401.3 416.5 395.7 420.5 397.8C422.1 398.6 423.1 400.5 422.2 402.2C421.3 403.9 419 404.8 417.3 403.9C415.6 403 414.1 405.6 415.8 406.5C418.9 408 422.7 406.9 424.6 404.1C426.6 401.1 425.3 397.3 422.4 395.5C419.5 393.7 415.6 394.2 413.7 397.2C412 400 412.4 403.9 415 406C416.5 407.1 418.6 405 417.1 403.8Z" fill="white"/>
<path d="M553.9 248.8C552.1 245.9 551 242.2 552.1 238.9C553 236.1 555.8 234.4 558.7 234.7C561.9 235 563.6 238 561.9 240.8C560.4 243.4 557.3 244.7 554.4 244.3C552.5 244.1 552.5 247.1 554.4 247.3C558.7 247.8 563.4 245.2 565 241.1C566.5 237.4 564.6 233.3 560.8 232.1C557.2 230.9 552.8 232.3 550.6 235.4C547.3 239.9 548.6 246 551.3 250.5C552.3 251.9 554.9 250.4 553.9 248.8Z" fill="white"/>
<path d="M392.6 371.4C398 381.2 409 386.7 420.1 385.1C433.7 383.1 441 372.7 446.4 361.1C452.7 347.7 461.4 336.7 475.3 330.8C487.9 325.5 504.2 328.2 514.6 318.3C518.6 314.5 521.3 309.2 520.4 303.6C519.7 299.3 517.1 295.7 518.1 291.2C519.3 286.3 523.1 282.7 527.9 281.7C529.8 281.3 529 278.4 527.1 278.8C521.3 280.1 516.6 284.5 515.2 290.4C514.4 293.6 515 296.5 516 299.6C517.6 304.6 518.2 308.7 514.9 313.3C509.1 321.4 498.9 322.5 489.8 323.8C481.7 325 474.1 327.2 467.1 331.4C460.9 335.1 455.4 340.1 451.1 345.9C446.4 352.3 443.8 359.8 440 366.7C435.2 375.2 427.3 381.7 417.2 382.3C408 382.8 399.4 377.9 394.9 369.8C394.3 368.2 391.7 369.7 392.6 371.4Z" fill="white"/>
<path d="M371.7 207.4C370 219.9 368.3 232.4 366.7 244.9C366.4 246.8 369.3 247.6 369.6 245.7C371.3 233.2 373 220.7 374.6 208.2C374.9 206.3 372 205.5 371.7 207.4Z" fill="white"/>
<path d="M371.2 246.6C383 238.1 394.8 229.6 406.6 221.1C408.2 220 406.7 217.4 405.1 218.5C393.3 227 381.5 235.5 369.7 244C368.1 245.1 369.6 247.7 371.2 246.6Z" fill="white"/>
<path d="M373.6 209.1C403.2 169.4 432.3 129.4 460.9 89C462 87.4 459.4 85.9 458.3 87.5C429.7 127.9 400.6 168 371 207.6C369.9 209.1 372.5 210.6 373.6 209.1Z" fill="white"/>
<path d="M410.3 216.6C437.5 180.6 463.9 144 489.5 106.8C490.6 105.2 488 103.7 486.9 105.3C461.3 142.4 434.9 179.1 407.7 215.1C406.5 216.6 409.1 218.1 410.3 216.6Z" fill="white"/>
<path d="M460 88.9999C464.7 80.1999 470.2 69.4999 480.6 66.5999C490.9 63.6999 501 71.4999 501.2 82.1999C501.2 84.0999 504.2 84.0999 504.2 82.1999C504.1 71.8999 495.4 62.5999 484.8 62.8999C470.9 63.2999 463.1 76.5999 457.4 87.4999C456.5 89.1999 459.1 90.6999 460 88.9999Z" fill="white"/>
<path d="M490.1 106.5C495.2 98.8999 499.8 91.0999 503.9 82.8999C504.8 81.1999 502.2 79.6999 501.3 81.3999C497.2 89.5999 492.6 97.3999 487.5 105C486.5 106.5 489.1 108.1 490.1 106.5Z" fill="white"/>
<path d="M457.8 93.8998C469.3 86.0998 484.2 90.2998 489.9 102.9C490.7 104.7 493.3 103.1 492.5 101.4C486.1 87.2998 469 82.5998 456.3 91.2998C454.7 92.3998 456.2 94.9998 457.8 93.8998Z" fill="white"/>
<path d="M452.5 102.9C462.5 96.5 477.2 100.7 481.8 111.9C482.5 113.7 485.4 112.9 484.7 111.1C479.3 98.3 462.8 92.8 451 100.3C449.4 101.4 450.9 104 452.5 102.9Z" fill="white"/>
<path d="M371.8 210.5C377.3 213.8 382.8 206.6 388.5 206.7C392.8 206.8 396.8 208.8 399.3 212.4C401.1 215 402 217.5 404.9 219C406.6 219.9 408.1 217.3 406.4 216.4C403 214.6 402 210.2 399.1 207.7C397.1 206 394.7 204.8 392.1 204.2C389.5 203.6 386.8 203.6 384.3 204.2C381.1 205 376.4 209.7 373.4 207.9C371.7 206.9 370.2 209.5 371.8 210.5Z" fill="white"/>
<path d="M388.2 205.1C408.4 178.5 428.7 151.8 448.9 125.2C450.1 123.7 447.5 122.2 446.3 123.7C426.1 150.3 405.8 177 385.6 203.6C384.5 205.1 387.1 206.6 388.2 205.1Z" fill="white"/>
<path d="M419.9 185.1C438.7 157.5 458.6 130.8 479.7 104.9C480.9 103.4 478.8 101.3 477.6 102.8C456.4 128.9 436.2 155.8 417.3 183.6C416.3 185.2 418.9 186.7 419.9 185.1Z" fill="white"/>
<path d="M370.6 237.1C372.5 235.5 375.3 237.1 374.8 239.6C374.4 241.5 377.3 242.3 377.7 240.4C378.2 238 377.3 235.5 375.1 234.2C372.9 232.9 370.3 233.4 368.4 235C367 236.2 369.1 238.3 370.6 237.1Z" fill="white"/>
<path d="M371.5 236.7C371 238.8 370.1 240.7 368.8 242.4C369.6 242.9 370.5 243.4 371.3 243.9C371.9 241.7 373.1 239.8 374.8 238.2C374 238.1 373.2 238 372.4 237.9C372.9 239 372.5 240.2 371.5 240.8C372.2 241.1 373 241.4 373.7 241.7C373.3 240.3 373.6 239 374.5 237.9C373.9 238 373.3 238.1 372.7 238.1C373.5 238.5 373.4 239.6 372.6 240C373.2 240.1 373.8 240.2 374.4 240.2C373.8 239.7 373.3 239.1 373 238.4C372.9 238.1 372.8 237.8 372.7 237.4C372.7 237.2 372.5 235.1 372.2 235.7C371.3 237.4 373.9 238.9 374.8 237.2C376.2 234.6 372.6 232.3 370.6 234.4C368.5 236.7 370.4 240.5 372.4 242.2C372.9 242.7 373.6 242.8 374.2 242.4C377 241 377 236.8 374.3 235.3C373.8 235 372.9 235 372.5 235.5C370.9 237.4 370.3 239.8 370.9 242.2C371.1 243.1 372.3 243.6 373.1 243.1C375.6 241.6 376.3 238.6 375.1 236.1C374.7 235.2 373.4 235.2 372.7 235.8C370.6 237.7 369.2 240.1 368.5 242.8C368.1 244.1 370 245.5 371 244.3C372.6 242.2 373.8 239.9 374.5 237.3C374.9 235.6 372 234.8 371.5 236.7Z" fill="white"/>
<path d="M365.9 252.4C363.9 263.2 359.4 273.1 352.3 281.5C351.1 283 353.2 285.1 354.4 283.6C361.8 274.7 366.7 264.5 368.8 253.1C369.1 251.3 366.2 250.5 365.9 252.4Z" fill="white"/>
<path d="M345 264.9C334.6 272.6 323.6 279.5 312.2 285.6C310.5 286.5 312 289.1 313.7 288.2C325.1 282.1 336.1 275.2 346.5 267.5C348.1 266.3 346.6 263.7 345 264.9Z" fill="white"/>
<path d="M589.1 493.5C586.4 489.3 581.9 491.5 579.5 494.7C576.9 498 574.8 501.9 572.6 505.5C570.9 508.3 568.9 511.4 568.6 514.9C568 521.9 573.3 522.7 578.6 524.4C584.9 526.5 584.5 533.9 580.5 538C577.3 541.3 572.6 542.7 568.4 544.1C566.6 544.7 567.4 547.6 569.2 547C577.6 544.3 590.1 538.2 585.8 527C585.1 525.2 583.9 523.7 582.3 522.7C581.4 522.2 580.4 521.8 579.4 521.5C576.5 520.6 575.7 520.9 573.4 518.4C571.5 517.3 570.9 515.8 571.8 513.8C572.2 512.4 572.7 511.1 573.4 509.9C574.2 508.3 575.2 506.8 576.2 505.3C577.2 503.8 584.2 491.2 586.5 494.9C587.5 496.6 590.1 495.1 589.1 493.5Z" fill="white"/>
<path d="M417.4 611.2C425.6 609.1 432.6 617.2 429 625C428.2 626.7 430.8 628.3 431.6 626.5C436.3 616.4 427.6 605.5 416.7 608.3C414.7 608.8 415.5 611.7 417.4 611.2Z" fill="white"/>
<path d="M570.6 446.5C566.8 443.7 566.8 436.4 572.6 436.2C574.7 436.1 576.9 437.3 576.8 439.6C576.8 441.5 575.1 443.8 573 443.5C571.1 443.2 570.3 446.1 572.2 446.4C575.9 447 579.1 444.3 579.7 440.7C580.4 437 577.7 433.8 574.1 433.3C570.4 432.7 566.6 434.8 565.3 438.4C564 442.4 565.8 446.7 569.1 449.1C570.6 450.2 572.1 447.6 570.6 446.5Z" fill="white"/>
<path d="M152.6 434.1C154 428.5 158.8 425.3 163.3 422.2C168 418.9 172.8 415.5 177.6 412.2C187.1 405.5 196.6 398.9 206.1 392.2C207.7 391.1 206.2 388.5 204.6 389.6C193.5 397.4 182.4 405.1 171.3 412.9C163.8 418.1 152.1 423.6 149.7 433.3C149.2 435.2 152.1 436 152.6 434.1Z" fill="white"/>
<path d="M823.5 959.8C702 939 580.5 918.2 459 897.4C532.8 867.6 606.6 837.9 680.4 808.1C795.8 833.8 911.2 859.5 1026.5 885.2C958.9 910.1 891.2 934.9 823.5 959.8Z" fill="white" stroke="#161616" stroke-width="3" stroke-miterlimit="10"/>
<path d="M818.5 961.3C818.9 962.5 819.2 963.8 819.6 965C820.1 966.6 822.5 966.3 822.5 964.6C822.5 963.6 822.5 962.7 822.5 961.7C822.5 959.8 819.5 959.8 819.5 961.7C819.5 962.9 819.3 964 818.8 965.1C819.8 965.1 820.7 965.1 821.7 965.1C821.3 963.8 821.2 962.6 821.5 961.2C820.6 961.3 819.7 961.4 818.8 961.6C819.1 961.9 819.1 962.1 818.9 962.4C819.8 962.5 820.7 962.6 821.6 962.8C821.4 962.1 821.5 961.5 821.9 960.9C821 960.6 820 960.4 819.1 960.1C818.9 961.7 818.7 963.2 818.5 964.8C818.4 965.6 819.3 966.3 820 966.3C820.9 966.3 821.4 965.6 821.5 964.8C821.7 963.2 821.9 961.7 822.1 960.1C822.3 958.6 820 958.2 819.3 959.3C818.5 960.6 818.3 962.1 818.7 963.6C819 964.9 820.8 965 821.4 964C822.2 962.8 822.2 961.3 821.3 960.2C820.6 959.3 818.8 959.2 818.6 960.6C818.2 962.4 818.3 964.3 818.8 966.1C819.3 967.6 821.2 967.4 821.7 966.1C822.2 964.7 822.5 963.3 822.5 961.9C821.5 961.9 820.5 961.9 819.5 961.9C819.5 962.9 819.5 963.8 819.5 964.8C820.5 964.7 821.5 964.5 822.4 964.4C822 963.2 821.7 961.9 821.3 960.7C820.9 958.6 818 959.4 818.5 961.3Z" fill="#161616"/>
<path d="M820.8 968.5C836.9 960.2 854.5 955.8 871.8 950.9C880.3 948.5 888.7 945.9 896.8 942.5C904.6 939.3 912.1 935.3 919.8 931.7C936.9 923.7 955.4 918.5 973.3 912.6C991.9 906.4 1010.4 900.2 1029 894.1C1030.8 893.5 1030 890.6 1028.2 891.2C1009.6 897.4 991.1 903.6 972.5 909.7C954.9 915.5 936.8 920.7 919.9 928.4C911.1 932.4 902.5 937.1 893.5 940.6C885.3 943.8 876.9 946.3 868.4 948.7C851.7 953.5 834.8 957.9 819.2 965.9C817.6 966.8 819.1 969.4 820.8 968.5Z" fill="#161616"/>
<path d="M822.2 967.9C891.3 944 960.2 919.8 1029.1 895.2C1034.5 893.3 1032.2 884.6 1026.7 886.5C957.9 911.1 888.9 935.3 819.8 959.2C814.4 961.1 816.7 969.8 822.2 967.9Z" fill="#161616"/>
<path d="M814.4 871.3C827.4 872.6 838.5 880.5 851.3 883C853.2 883.4 854 880.5 852.1 880.1C839.1 877.5 827.8 869.6 814.4 868.3C812.5 868.2 812.5 871.2 814.4 871.3Z" fill="#161616"/>
<path d="M852.2 881.6C860.1 877.3 867.5 872.2 874.2 866.2C875.6 864.9 873.5 862.8 872.1 864.1C865.5 869.9 858.4 874.9 850.7 879C849 880 850.5 882.6 852.2 881.6Z" fill="#161616"/>
<path d="M817.5 865.6C823.8 861.1 830.3 856.8 837 852.8C838.7 851.8 837.1 849.2 835.5 850.2C828.8 854.2 822.3 858.4 816 863C814.4 864.2 815.9 866.8 817.5 865.6Z" fill="#161616"/>
<path d="M837.5 853.3C848.9 857.6 860.3 861.8 871.8 866.1C873.6 866.8 874.4 863.9 872.6 863.2C861.2 858.9 849.8 854.7 838.3 850.4C836.5 849.8 835.7 852.7 837.5 853.3Z" fill="#161616"/>
<path d="M805.4 882.7C835.5 892 865.2 902.7 894.3 914.8C896.1 915.5 896.9 912.6 895.1 911.9C866 899.8 836.3 889.1 806.2 879.8C804.3 879.2 803.5 882.1 805.4 882.7Z" fill="#161616"/>
<path d="M808.3 906C827 915 845.9 923.5 865 931.8C866.8 932.6 868.3 930 866.5 929.2C847.4 921 828.5 912.4 809.8 903.4C808.1 902.6 806.6 905.2 808.3 906Z" fill="#161616"/>
<path d="M811 931.7C821.2 936.9 831.4 942.2 841.6 947.4C843.3 948.3 844.8 945.7 843.1 944.8C832.9 939.6 822.7 934.3 812.5 929.1C810.8 928.2 809.3 930.8 811 931.7Z" fill="#161616"/>
<path d="M816.8 932.6C830.9 920.6 845.7 909.6 861.1 899.4C862.7 898.3 861.2 895.7 859.6 896.8C844 907.1 829 918.4 814.7 930.5C813.2 931.8 815.3 933.9 816.8 932.6Z" fill="#161616"/>
<path d="M813.1 912.1C821.1 906.5 829.1 900.9 837.1 895.2C838.7 894.1 837.2 891.5 835.6 892.6C827.6 898.2 819.6 903.8 811.6 909.5C810.1 910.6 811.6 913.2 813.1 912.1Z" fill="#161616"/>
<path d="M818.1 966.7C692.4 945.3 566.7 923.9 441 902.5C429.2 813.2 417.3 724 405.5 634.7C540.8 652.9 676 671.1 811.3 689.4C813.6 781.8 815.9 874.2 818.1 966.7Z" fill="white" stroke="#161616" stroke-width="3" stroke-miterlimit="10"/>
<path d="M594.1 812.2C583.2 808.8 577.3 799.6 576.4 788.5C575.5 777.2 577.7 766.3 588.2 760.4C597.5 755.2 608.6 756.7 616.9 763C625.2 769.3 632.6 782.2 625.9 792.1C624.8 793.7 627.4 795.2 628.5 793.6C635.7 783 628.9 769 620.1 761.7C611 754.2 598.7 751.9 588 757.2C575.6 763.3 572.4 775.7 573.4 788.6C574.4 801.1 581 811.4 593.3 815.2C595.1 815.7 595.9 812.8 594.1 812.2Z" fill="#161616"/>
<path d="M596.9 813.3C592.3 805.7 593.8 795.1 601.2 789.8C608.6 784.5 619.2 786.7 624.8 793.5C626 795 628.1 792.9 626.9 791.4C620.3 783.5 607.9 781.3 599.3 787.4C590.7 793.6 588.9 806 594.3 814.8C595.3 816.4 597.9 814.9 596.9 813.3Z" fill="#161616"/>
<path d="M607.2 817.5C602.5 812.5 603.2 803.2 609.5 799.6C615.7 796 624.1 800.1 626.1 806.7C626.7 808.5 629.6 807.8 629 805.9C626.4 797.5 615.9 792.5 608 797.1C600.1 801.7 599.1 813.3 605.1 819.7C606.4 821 608.5 818.9 607.2 817.5Z" fill="#161616"/>
<path d="M614.9 824.5C618.8 825.9 623.3 823.6 624.8 819.9C626.4 816.2 624.3 812.2 620.8 810.6C617.3 809 613.1 809.9 611.2 813.3C609.4 816.6 610 821.1 613 823.5C614.5 824.7 616.6 822.6 615.1 821.4C611.1 818.3 613.9 811 619.2 813.2C621.5 814.1 623.1 816.5 622 819C620.9 821.4 618.1 822.6 615.7 821.7C613.9 821 613.1 823.9 614.9 824.5Z" fill="#161616"/>
<path d="M811.3 689.3L820.1 964.8" stroke="#161616" stroke-width="3" stroke-miterlimit="10"/>
<path d="M811.9 689.1C814.6 779.7 817.3 870.3 820 960.9" stroke="#161616" stroke-width="3" stroke-miterlimit="10"/>
<path opacity="0.37" d="M638.8 670.7C645.3 674.1 701.1 704.5 705 758.5C707.2 788.3 692.6 810.9 683.4 824.7C633.8 899.3 535.7 912.5 509.1 915.3C547.8 941 683 1025.7 830.8 1020.7C863.7 1019.6 914.7 1017.3 970 986.9C1011.5 964.1 1038.4 934.8 1053.8 915.3C1044.3 909.4 1034.9 903.6 1025.4 897.7C955.6 921.6 885.7 945.5 815.9 969.3C812.3 876.9 808.7 784.6 805.1 692.2C749.6 685.2 694.2 678 638.8 670.7Z" fill="#3D3D3D"/>
<path opacity="0.5" d="M559.3 921.8C572.3 930.4 592.4 942.7 618.4 954.5C650.8 969.3 746.7 1013.1 850.6 988.8C926.1 971.1 984.5 922.6 980.7 914.6C978.3 909.6 949 914.8 818.5 966.7C816.4 924.4 814.3 882 812.3 839.7C808.7 875.3 805 910.9 801.4 946.4C720.7 938.3 640 930 559.3 921.8Z" fill="#3D3D3D"/>
<path d="M586.2 807.8C578.9 799.8 576.5 788.6 580.1 778.8C583.8 768.9 593.6 760.4 605.3 760.8C615.6 761.2 623.9 768.4 626.9 775.2C629.1 780.4 628.6 785.2 628.6 785.2C628.3 787.9 627.4 790 626.7 791.3C621.6 785.4 613.8 782.7 606.5 784.4C597.5 786.5 593.6 794.2 593.2 794.9C589.1 803.3 592.7 811.1 593.2 812C590.8 810.5 588.5 809.1 586.2 807.8Z" fill="#5222D0"/>
<path d="M1092.2 681.2C1086.8 685.2 1081 690.6 1075.7 697.7C1056 724.2 1058.7 755.3 1060.1 765.4C1042.6 761.8 1013.2 758.3 978.5 766.3C957.8 771.1 941.2 778.6 929 785.4C930.9 786.6 933.5 788 936.8 788.9C955.5 794 975.2 778.3 975.8 779.4C976.4 780.4 953.8 791 955 800.2C955.8 806.4 966.9 809.7 978.4 813.2C988.1 816.1 997.3 818.9 1009.6 817.5C1026.5 815.6 1038.2 807.1 1043.4 802.7C1048.4 805.2 1055.8 808.5 1065.1 811.4C1082.2 816.6 1105.8 823.8 1121.5 814C1131.7 807.6 1134.8 792.6 1140.6 762.8C1148 724.6 1151.7 705.5 1141.5 693.4C1128 677.3 1100.9 680 1092.2 681.2Z" fill="#E8BEAC" stroke="#161616" stroke-width="3" stroke-miterlimit="10"/>
<path d="M1056.7 766.4C1068.8 770.9 1078.8 779.1 1085.7 790C1086.7 791.6 1089.3 790.1 1088.3 788.5C1081 776.9 1070.3 768.3 1057.5 763.5C1055.7 762.9 1054.9 765.8 1056.7 766.4Z" fill="#161616"/>
<path d="M992.4 786.2C980.5 788.2 970.9 796.2 966.6 807.4C965.9 809.2 968.8 810 969.5 808.2C973.4 798 982.4 790.9 993.2 789.1C995.1 788.8 994.3 785.9 992.4 786.2Z" fill="#161616"/>
<path d="M968 809.3C974.2 815.2 982.8 817.2 990.9 814.6C992.7 814 991.9 811.1 990.1 811.7C983 814 975.5 812.4 970.1 807.2C968.7 805.8 966.6 807.9 968 809.3Z" fill="#161616"/>
<path d="M1006.3 796.1C1002 798.7 998 801.7 994.2 804.9C991.7 807.1 988.9 809.7 989.5 813.3C991 822.8 1002.4 820.7 1008.6 818.3C1010.4 817.6 1009.6 814.7 1007.8 815.4C1005.1 816.4 1002.1 817.7 999.2 817.6C994.5 817.4 990.3 812.9 994.3 808.8C998.1 804.8 1003.1 801.6 1007.8 798.6C1009.5 797.7 1008 795.1 1006.3 796.1Z" fill="#161616"/>
<path d="M1087.2 538.5C1091.3 541.7 1096.6 546.1 1102.2 551.8C1103.8 553.4 1107.9 557.6 1112 562.8C1118.4 570.8 1122.5 578.4 1127 587.7C1132.8 599.6 1138.6 611.5 1144.4 629.3C1149.3 644.3 1156.8 667.9 1157.7 699.3C1158.1 711.7 1157.3 722.1 1156.5 729.4C1152.4 724.7 1148.3 721.6 1144.9 719.6C1125.8 707.9 1102.6 712.1 1080.7 716.1C1072.5 717.6 1065.7 719.4 1061 720.7C1062.2 709.7 1063.3 698.7 1064.5 687.7C1065.5 678.5 1066.4 669.2 1067.4 659.9C1065.5 656.6 1062.9 651.9 1060.5 646C1055.8 634.7 1046.4 612.5 1051.8 587.6C1058.2 559 1080.7 542.8 1087.2 538.5Z" fill="#EC615B"/>
<path d="M1090.7 544C1100.7 549.2 1107.4 558.2 1113.2 567.5C1119.2 577.1 1124.6 587 1129.4 597.2C1139.2 618 1146.4 640 1151.1 662.5C1151.5 664.4 1154.4 663.6 1154 661.7C1149.2 638.3 1141.6 615.6 1131.2 594C1126.1 583.4 1120.5 573.1 1114.1 563.2C1108.4 554.4 1101.7 546.2 1092.3 541.3C1090.5 540.5 1089 543.1 1090.7 544Z" fill="#161616"/>
<path d="M1059.5 645.7C1064.1 655.1 1068.9 664.3 1073.9 673.5C1074.8 675.2 1077.4 673.7 1076.5 672C1071.5 662.8 1066.7 653.6 1062.1 644.2C1061.2 642.4 1058.6 643.9 1059.5 645.7Z" fill="#161616"/>
<path d="M1066.6 662.9C1064.1 682.3 1061.6 701.7 1059.2 721.1C1059.1 722.1 1060.3 722.8 1061.1 722.5C1078.1 717.1 1095.8 714.5 1113.6 715.1C1127.7 715.6 1146.4 716.9 1154.3 730.7C1155.3 732.4 1157.8 730.9 1156.9 729.2C1149.4 716 1133 713.3 1119.2 712.4C1099.3 711 1079.3 713.6 1060.4 719.6C1061 720.1 1061.7 720.6 1062.3 721C1064.8 701.6 1067.3 682.2 1069.7 662.8C1069.9 661 1066.9 661 1066.6 662.9Z" fill="#161616"/>
<path d="M1150.9 661C1154.4 683 1160.1 706.3 1154.2 728.4C1153.7 730.3 1156.6 731.1 1157.1 729.2C1163.1 706.6 1157.4 682.8 1153.8 660.2C1153.5 658.3 1150.6 659.1 1150.9 661Z" fill="#161616"/>
<path opacity="0.32" d="M1079.6 534.8C1088.7 551.8 1097.8 572.1 1105.5 595.4C1120.6 641.4 1124.6 682.7 1124.9 713.6C1114.7 714.2 1104.5 714.8 1094.3 715.4C1097.6 739.1 1101 762.9 1104.3 786.6C1097.9 782.9 1088.1 778.2 1075.5 775.4C1071.4 774.5 1056.3 771.5 1040.2 774.2C1006.4 779.9 986 807.6 981.4 814.2C986 816.1 991.9 817.9 999 818.3C1020.8 819.6 1036.7 807 1041.4 803C1056.3 810.5 1069.3 814.1 1078.5 815.9C1094.6 819.2 1113.4 823 1123.8 813C1124.6 812.2 1126.4 810.3 1130.3 800.6C1136.4 785.2 1139.6 770.8 1143.8 744.7C1144.7 738.9 1146 731.1 1147.3 721.8C1149.8 724.3 1152.4 726.9 1154.9 729.4C1156.1 724.9 1157.6 718.2 1158.4 710C1160.5 688.7 1156.4 671.9 1152.5 658.2C1136.8 602.8 1127.4 569.4 1096 545.2C1089.5 540.4 1083.5 536.9 1079.6 534.8Z" fill="#3D3D3D"/>
<path opacity="0.29" d="M1132.5 603.3C1139.2 635.9 1140.1 663.6 1139.6 683.6C1139.1 702.2 1137.2 715.8 1135.2 729.5C1129.3 770.8 1126.3 791.4 1114.9 801C1093.3 819.2 1054.8 805.4 1045.6 801.9C1054.3 807.7 1085.6 827.4 1116.2 816.5C1119.4 815.3 1122.9 813.8 1126.3 811.6C1129.9 805.5 1134.7 796.1 1137.8 783.8C1139.6 776.5 1140.1 771.2 1140.8 765C1141.9 755 1143.8 740.4 1147 722.1C1149.9 724.6 1152.9 727.1 1155.8 729.6C1156.8 724.5 1158.1 716.7 1158.4 707.1C1159.3 683.9 1154.2 666.3 1148.3 646.2C1145.1 635.2 1140.1 620.4 1132.5 603.3Z" fill="#3D3D3D"/>
<path d="M857.6 340.8C858.6 351.5 860.4 366.5 864.4 384.2C867 395.7 868.6 403 872 412.1C877.1 425.8 886.8 452 912.1 469.1C918.2 473.3 928.3 478.9 942.5 482.2C944.8 482.4 947.1 482.7 949.4 482.9C950.2 487.1 951.2 493.3 952.2 500.8C954.6 520.1 953.4 526 958.4 531.2C964.5 537.5 974.2 536.9 976.3 536.7C993 535.6 1001.4 519 1001.8 518.1C999.1 513.2 996.4 507.2 994.2 500.2C989.4 484.7 989.3 470.9 990.1 461.5C997.8 450.4 1006.3 441.9 1014.9 435.3C1018.2 432.8 1021 429.4 1025.9 427.7C1032.9 425.3 1036.5 427.7 1041.7 426.1C1050.3 423.4 1054 412.3 1055.6 407.7C1061.7 389.5 1054.2 371.5 1049.4 360.8C1045.1 351 1033.9 326.7 1006.6 307.7C978.5 288.1 922.3 266.3 885.1 294.6C878.7 299.5 864.1 312.6 857.6 340.8Z" fill="#E8BEAC"/>
<path d="M861.8 382C855.4 380.9 839.2 377.1 828.7 363.2C812.7 342.1 821.3 312.6 830.2 297C844.2 272.5 869.7 264 901.7 253.3C920.7 247 938.8 241 963.4 242C977 242.6 1023.1 244.6 1050.7 278.9C1067.1 299.2 1068.9 321 1072.5 364C1074.2 383.7 1072.9 394.4 1069.5 404.6C1067 412 1058.9 435.7 1035.6 445.2C1023.4 450.2 1012.1 449.2 1005.9 448.2C1011.5 439.9 1017.1 431.7 1022.8 423.4C1026 423.6 1037.4 423.8 1046.1 415.9C1058 405 1060.1 383.3 1051.4 377.5C1045 373.2 1032.3 377.4 1021.3 387.3C1020.3 381 1018.7 374.1 1016 367C1003.4 333.1 976 314.5 962.6 306.8C957.3 313.6 940.5 333.5 910.7 341.4C887.1 347.6 867.5 343.2 858.8 340.6C859.8 354.4 860.8 368.2 861.8 382Z" fill="#161616"/>
<path d="M856.8 343.4C860.9 374.3 865.2 406.4 880.3 434.2C892.7 457 912.7 476.5 938.4 483C940.3 483.5 941.1 480.6 939.2 480.1C913.8 473.6 894.2 454 882.2 431.3C867.9 404.3 863.8 373.3 859.8 343.4C859.5 341.5 856.5 341.5 856.8 343.4Z" fill="#161616"/>
<path d="M938.4 483.4C956.5 483.4 975.5 473.7 989.7 463.3C1004 452.8 1015.7 439.3 1024.1 423.7C1025 422 1022.4 420.5 1021.5 422.2C1013.4 437.4 1002.1 450.6 988.2 460.7C974.3 470.9 955.9 480.4 938.4 480.4C936.4 480.4 936.4 483.4 938.4 483.4Z" fill="#161616"/>
<path d="M989.6 460.9C987.6 481.1 991.5 501.3 1000.7 519.4C1001.6 521.1 1004.2 519.6 1003.3 517.9C994.3 500.2 990.7 480.6 992.6 460.9C992.8 459 989.8 459 989.6 460.9Z" fill="#161616"/>
<path d="M946.1 482.9C949.4 494.3 952.1 505.9 954.1 517.6C955.4 525.4 955.9 534.2 964.6 537.1C977.6 541.5 996.8 533.7 1001.8 520.8C1002.5 519 999.6 518.2 998.9 520C996.1 527.3 989.1 531.3 981.9 533.4C975.9 535.1 966.8 536.9 961.7 532C958.7 529.1 958.3 524.5 957.7 520.6C957 516.5 956.3 512.4 955.5 508.3C953.7 499.5 951.6 490.7 949.1 482.1C948.5 480.3 945.6 481.1 946.1 482.9Z" fill="#161616"/>
<path d="M950.4 495.3C968.2 493 979.9 479.4 988.5 464.8C989.5 463.1 986.9 461.6 985.9 463.3C978 476.9 967 490.2 950.4 492.3C948.5 492.6 948.5 495.6 950.4 495.3Z" fill="#161616"/>
<path d="M949.7 485.1C963.6 483.5 976.1 477 985.4 466.5C986.7 465.1 984.6 462.9 983.3 464.4C974.6 474.3 962.8 480.6 949.7 482.1C947.9 482.3 947.8 485.3 949.7 485.1Z" fill="#161616"/>
<path d="M950.2 482.9C961.4 481.3 971.5 476.7 980.1 469.4C981.6 468.1 979.4 466 978 467.3C969.8 474.3 960.1 478.6 949.4 480.1C947.5 480.3 948.3 483.2 950.2 482.9Z" fill="#161616"/>
<path d="M949.6 485.4C950.1 487.8 950 492.6 953 493.4C955.9 494.2 960.3 490.8 962.6 489.4C970.5 484.6 977.1 478.1 982.3 470.5C983.4 468.9 980.8 467.4 979.7 469C976 474.5 971.5 479.4 966.2 483.4C963.7 485.3 961.1 486.9 958.4 488.4C957.3 489 954.8 490.7 953.7 490C953 489.6 952.7 485.3 952.6 484.6C952.1 482.7 949.2 483.5 949.6 485.4Z" fill="#161616"/>
<path d="M951 488.2C959.6 484.7 967.7 480.3 975.3 475C976.9 473.9 975.4 471.3 973.8 472.4C966.4 477.6 958.6 481.9 950.2 485.3C948.4 486 949.2 488.9 951 488.2Z" fill="#161616"/>
<path d="M952.5 491.2C962.1 487.8 970.5 482.5 977.5 475.1C978.8 473.7 976.7 471.6 975.4 473C968.7 479.9 960.8 485.1 951.7 488.3C949.9 489 950.7 491.9 952.5 491.2Z" fill="#161616"/>
<path d="M954.1 489.6C961.2 486.5 967.7 482.3 973.3 476.9C974.7 475.6 972.6 473.5 971.2 474.8C965.7 480 959.5 484 952.6 487C950.8 487.8 952.3 490.4 954.1 489.6Z" fill="#161616"/>
<path d="M881.5 377.9C880.5 384.2 881.6 390.3 885 395.7C885.7 396.8 887.3 396.6 887.7 395.3C890.1 388.4 886.7 381.6 883.3 375.7C882.6 374.4 880.5 375 880.5 376.5C880.6 381.8 881.7 387 883.7 391.9C884.4 393.7 887.3 392.9 886.6 391.1C884.7 386.4 883.6 381.6 883.5 376.5C882.6 376.8 881.6 377 880.7 377.3C883.8 382.6 887 388.4 884.8 394.6C885.7 394.5 886.6 394.4 887.5 394.2C884.5 389.5 883.4 384.2 884.3 378.7C884.7 376.8 881.8 376 881.5 377.9Z" fill="#161616"/>
<path d="M970 375.1C970 373.8 969.9 373.5 969.3 372.4C968.6 371.1 966.5 371.7 966.5 373.2C966.6 379.4 967.1 386.1 971.9 390.5C972.9 391.4 974.3 390.7 974.5 389.4C975.3 382 973.1 375.1 968.5 369.3C967.5 368.1 965.7 369.4 966 370.8C967.2 375.7 968.7 380.5 970.5 385.1C971.2 386.9 974.1 386.1 973.4 384.3C971.5 379.6 970 374.9 968.9 370C968.1 370.5 967.2 371 966.4 371.5C970.5 376.7 972.2 382.9 971.5 389.5C972.4 389.1 973.2 388.8 974.1 388.4C969.8 384.5 969.6 378.6 969.5 373.2C968.6 373.5 967.6 373.7 966.7 374C966.8 374.4 966.9 374.8 967 375.2C967 377 970 377 970 375.1Z" fill="#161616"/>
<path d="M917 394.8C915 400.8 913.3 406.9 912.2 413.1C911.6 416.4 909.5 422.6 911 425.9C914 432.6 927.3 428.5 931.9 426.3C933.6 425.5 932.1 422.9 930.4 423.7C926.7 425.5 922.7 426.4 918.6 426.1C916.2 425.9 914.3 425.5 913.8 422.8C913.5 421.3 914.5 417.4 914.8 415.7C916 408.8 917.8 402.1 920 395.5C920.5 393.8 917.6 393 917 394.8Z" fill="#161616"/>
<path d="M932.1 452.5C939.6 451.5 946.1 446.7 949.4 439.8C950.2 438.1 947.6 436.5 946.8 438.3C943.8 444.6 938.2 448.7 931.3 449.6C929.4 449.9 930.3 452.8 932.1 452.5Z" fill="#161616"/>
<path d="M875.2 369.3C877.1 367 880.6 366.6 883 368.6C884.5 369.9 886.6 367.7 885.1 366.5C881.6 363.5 876.2 363.7 873.1 367.2C871.8 368.6 873.9 370.7 875.2 369.3Z" fill="#161616"/>
<path d="M961 363.7C964.1 361 968.8 361 971.9 363.6C973.4 364.8 975.5 362.7 974 361.5C969.6 357.7 963.2 357.8 958.8 361.6C957.4 362.9 959.6 365 961 363.7Z" fill="#161616"/>
<path opacity="0.4" d="M1015.3 252.9C1021.3 260.6 1044.4 292.2 1040.1 335.6C1037.7 359.8 1027.7 377.6 1021.4 387C1025 384.2 1028.1 382.3 1030.4 381C1036.5 377.6 1040.4 375.5 1045.4 375.8C1046.9 375.9 1050.5 376.2 1053.1 378.3C1060.7 384.7 1058.1 407.4 1044.6 418C1037.2 423.8 1028.5 424.4 1024.1 424.3C1018.4 432.4 1012.6 440.5 1006.9 448.7C1010.7 449.3 1016.5 449.8 1023.2 448.8C1026.1 448.4 1037.7 446.3 1048.7 437.5C1059.5 428.8 1063.9 418.2 1066.8 411C1074.8 391 1073.2 373.4 1070.4 341.7C1069.2 327.6 1068.5 320.4 1065.7 310.9C1062.7 300.6 1058 285.4 1044.6 271.8C1035 261.8 1024.2 256.2 1015.3 252.9Z" fill="#3D3D3D"/>
<path opacity="0.48" d="M918.7 338.4C928.7 329.5 939.9 318.1 950.7 303.9C957.4 295.1 963 286.6 967.6 278.7C965.9 287.7 964.2 296.7 962.6 305.7C958.7 311.3 952.2 319.3 942.1 326.6C933.2 332.9 924.8 336.4 918.7 338.4Z" fill="#3D3D3D"/>
<path opacity="0.27" d="M989.8 327C997.4 352.3 998 373.5 997.3 387.5C996.8 397.9 994 452.4 965.3 471.2C962.5 473 955.4 477.2 955.7 477.8C956.1 478.5 969.4 472.6 976.7 468.6C988.2 462.4 1005.9 449.9 1022.3 423.5C1025 423.8 1038.2 424.7 1047.7 415.6C1059.2 404.7 1061.2 383.3 1052.1 377C1045.6 372.5 1033.2 376.3 1022.3 385.3C1021.2 380.7 1019.8 375.9 1017.9 370.8C1010.4 351 999.1 336.6 989.8 327Z" fill="#3D3D3D"/>
<path opacity="0.36" d="M965.7 477C968.3 485 970.9 493 973.5 501.1C977.1 512.1 980.6 523.2 984.1 534.2C986.1 533.8 991 532.4 995.3 528C999.6 523.6 1001 518.8 1001.5 516.8C997.6 509.1 993 497.4 991.4 482.6C990.6 474.9 990.8 468.1 991.4 462.4C982.9 467.3 974.3 472.2 965.7 477Z" fill="#3D3D3D"/>
<path opacity="0.43" d="M915.8 398.3C910.8 409 905.8 419.6 900.8 430.3C909 430.1 917.1 430 925.3 429.8C920.5 428.3 915.6 426.8 910.8 425.3C912.4 416.3 914.1 407.3 915.8 398.3Z" fill="#3D3D3D"/>
</svg>
