<svg width="370" height="144" viewBox="0 0 370 144" fill="none" xmlns="http://www.w3.org/2000/svg">
<path d="M0.128907 79.4V64.6L61.3289 38.2V54.2L19.1289 72L61.3289 89.8V105.8L0.128907 79.4ZM117.638 142.8C113.638 142.8 110.238 142.533 107.438 142V122C109.572 122.533 111.972 122.8 114.638 122.8C119.038 122.8 122.305 121.733 124.438 119.6C126.572 117.333 127.638 113.933 127.638 109.4V1.99999H149.638V108.8C149.638 120.267 146.972 128.8 141.638 134.4C136.438 140 128.438 142.8 117.638 142.8ZM228.399 144C217.866 144 209.799 141 204.199 135C198.733 129 195.999 120.533 195.999 109.6V34.4C195.999 23.4667 198.733 15 204.199 9C209.799 2.99999 217.866 -7.62939e-06 228.399 -7.62939e-06C238.933 -7.62939e-06 246.933 2.99999 252.399 9C257.999 15 260.799 23.4667 260.799 34.4V49.2H239.999V33C239.999 24.3333 236.333 20 228.999 20C221.666 20 217.999 24.3333 217.999 33V111.2C217.999 119.733 221.666 124 228.999 124C236.333 124 239.999 119.733 239.999 111.2V89.8H260.799V109.6C260.799 120.533 257.999 129 252.399 135C246.933 141 238.933 144 228.399 144ZM308.593 89.8L350.793 72L308.593 54.2V38.2L369.793 64.6V79.4L308.593 105.8V89.8Z" fill="white"/>
</svg>
